ISO-10303-21;
HEADER;
FILE_DESCRIPTION(('FreeCAD Model'),'2;1');
FILE_NAME('Open CASCADE Shape Model','2026-06-27T11:12:16',('Author'),(
    ''),'Open CASCADE STEP processor 7.8','FreeCAD','Unknown');
FILE_SCHEMA(('AUTOMOTIVE_DESIGN { 1 0 10303 214 1 1 1 1 }'));
ENDSEC;
DATA;
#1 = APPLICATION_PROTOCOL_DEFINITION('international standard',
  'automotive_design',2000,#2);
#2 = APPLICATION_CONTEXT(
  'core data for automotive mechanical design processes');
#3 = SHAPE_DEFINITION_REPRESENTATION(#4,#10);
#4 = PRODUCT_DEFINITION_SHAPE('','',#5);
#5 = PRODUCT_DEFINITION('design','',#6,#9);
#6 = PRODUCT_DEFINITION_FORMATION('','',#7);
#7 = PRODUCT('Body','Body','',(#8));
#8 = PRODUCT_CONTEXT('',#2,'mechanical');
#9 = PRODUCT_DEFINITION_CONTEXT('part definition',#2,'design');
#10 = ADVANCED_BREP_SHAPE_REPRESENTATION('',(#11,#15),#979);
#11 = AXIS2_PLACEMENT_3D('',#12,#13,#14);
#12 = CARTESIAN_POINT('',(0.,0.,0.));
#13 = DIRECTION('',(0.,0.,1.));
#14 = DIRECTION('',(1.,0.,-0.));
#15 = MANIFOLD_SOLID_BREP('',#16);
#16 = CLOSED_SHELL('',(#17,#128,#159,#201,#226,#250,#274,#316,#341,#365,
    #390,#415,#440,#457,#542,#619,#652,#685,#702,#719,#736,#753,#786,
    #810,#834,#865,#897,#929,#951,#963));
#17 = ADVANCED_FACE('',(#18),#123,.T.);
#18 = FACE_BOUND('',#19,.T.);
#19 = EDGE_LOOP('',(#20,#30,#39,#47,#56,#65,#74,#82,#91,#99,#108,#116));
#20 = ORIENTED_EDGE('',*,*,#21,.T.);
#21 = EDGE_CURVE('',#22,#24,#26,.T.);
#22 = VERTEX_POINT('',#23);
#23 = CARTESIAN_POINT('',(-10.74026123963,9.286728052707,0.));
#24 = VERTEX_POINT('',#25);
#25 = CARTESIAN_POINT('',(-3.501141171845,13.358733090837,0.));
#26 = LINE('',#27,#28);
#27 = CARTESIAN_POINT('',(-6.365727002967,11.747403560831,0.));
#28 = VECTOR('',#29,1.);
#29 = DIRECTION('',(0.871575537125,0.490261239633,0.));
#30 = ORIENTED_EDGE('',*,*,#31,.T.);
#31 = EDGE_CURVE('',#24,#32,#34,.T.);
#32 = VERTEX_POINT('',#33);
#33 = CARTESIAN_POINT('',(-2.96185380825,13.5,0.));
#34 = CIRCLE('',#35,1.1);
#35 = AXIS2_PLACEMENT_3D('',#36,#37,#38);
#36 = CARTESIAN_POINT('',(-2.96185380825,12.4,0.));
#37 = DIRECTION('',(-0.,-0.,-1.));
#38 = DIRECTION('',(0.,-1.,0.));
#39 = ORIENTED_EDGE('',*,*,#40,.F.);
#40 = EDGE_CURVE('',#41,#32,#43,.T.);
#41 = VERTEX_POINT('',#42);
#42 = CARTESIAN_POINT('',(-2.924038303443,13.5,0.));
#43 = LINE('',#44,#45);
#44 = CARTESIAN_POINT('',(11.25,13.5,0.));
#45 = VECTOR('',#46,1.);
#46 = DIRECTION('',(-1.,0.,0.));
#47 = ORIENTED_EDGE('',*,*,#48,.T.);
#48 = EDGE_CURVE('',#41,#49,#51,.T.);
#49 = VERTEX_POINT('',#50);
#50 = CARTESIAN_POINT('',(-2.030582155169,13.041666666667,0.));
#51 = CIRCLE('',#52,1.1);
#52 = AXIS2_PLACEMENT_3D('',#53,#54,#55);
#53 = CARTESIAN_POINT('',(-2.924038303443,12.4,0.));
#54 = DIRECTION('',(-0.,-0.,-1.));
#55 = DIRECTION('',(0.,-1.,0.));
#56 = ORIENTED_EDGE('',*,*,#57,.T.);
#57 = EDGE_CURVE('',#49,#58,#60,.T.);
#58 = VERTEX_POINT('',#59);
#59 = CARTESIAN_POINT('',(2.030582155169,13.041666666667,0.));
#60 = CIRCLE('',#61,2.5);
#61 = AXIS2_PLACEMENT_3D('',#62,#63,#64);
#62 = CARTESIAN_POINT('',(0.,14.5,0.));
#63 = DIRECTION('',(0.,0.,1.));
#64 = DIRECTION('',(1.,0.,0.));
#65 = ORIENTED_EDGE('',*,*,#66,.T.);
#66 = EDGE_CURVE('',#58,#67,#69,.T.);
#67 = VERTEX_POINT('',#68);
#68 = CARTESIAN_POINT('',(2.924038303443,13.5,0.));
#69 = CIRCLE('',#70,1.1);
#70 = AXIS2_PLACEMENT_3D('',#71,#72,#73);
#71 = CARTESIAN_POINT('',(2.924038303443,12.4,0.));
#72 = DIRECTION('',(-0.,-0.,-1.));
#73 = DIRECTION('',(0.,-1.,0.));
#74 = ORIENTED_EDGE('',*,*,#75,.F.);
#75 = EDGE_CURVE('',#76,#67,#78,.T.);
#76 = VERTEX_POINT('',#77);
#77 = CARTESIAN_POINT('',(2.96185380825,13.5,0.));
#78 = LINE('',#79,#80);
#79 = CARTESIAN_POINT('',(11.25,13.5,0.));
#80 = VECTOR('',#81,1.);
#81 = DIRECTION('',(-1.,0.,0.));
#82 = ORIENTED_EDGE('',*,*,#83,.F.);
#83 = EDGE_CURVE('',#84,#76,#86,.T.);
#84 = VERTEX_POINT('',#85);
#85 = CARTESIAN_POINT('',(3.501141171845,13.358733090837,0.));
#86 = CIRCLE('',#87,1.1);
#87 = AXIS2_PLACEMENT_3D('',#88,#89,#90);
#88 = CARTESIAN_POINT('',(2.96185380825,12.4,0.));
#89 = DIRECTION('',(-0.,0.,1.));
#90 = DIRECTION('',(0.,-1.,0.));
#91 = ORIENTED_EDGE('',*,*,#92,.F.);
#92 = EDGE_CURVE('',#93,#84,#95,.T.);
#93 = VERTEX_POINT('',#94);
#94 = CARTESIAN_POINT('',(10.740261239633,9.286728052707,0.));
#95 = LINE('',#96,#97);
#96 = CARTESIAN_POINT('',(6.365727002967,11.747403560831,0.));
#97 = VECTOR('',#98,1.);
#98 = DIRECTION('',(-0.871575537125,0.490261239633,0.));
#99 = ORIENTED_EDGE('',*,*,#100,.F.);
#100 = EDGE_CURVE('',#101,#93,#103,.T.);
#101 = VERTEX_POINT('',#102);
#102 = CARTESIAN_POINT('',(11.192272339708,8.75,0.));
#103 = CIRCLE('',#104,1.);
#104 = AXIS2_PLACEMENT_3D('',#105,#106,#107);
#105 = CARTESIAN_POINT('',(10.25,8.415152515582,0.));
#106 = DIRECTION('',(-0.,0.,1.));
#107 = DIRECTION('',(0.,-1.,0.));
#108 = ORIENTED_EDGE('',*,*,#109,.T.);
#109 = EDGE_CURVE('',#101,#110,#112,.T.);
#110 = VERTEX_POINT('',#111);
#111 = CARTESIAN_POINT('',(-11.1922723397,8.75,0.));
#112 = LINE('',#113,#114);
#113 = CARTESIAN_POINT('',(11.5,8.75,0.));
#114 = VECTOR('',#115,1.);
#115 = DIRECTION('',(-1.,0.,0.));
#116 = ORIENTED_EDGE('',*,*,#117,.F.);
#117 = EDGE_CURVE('',#22,#110,#118,.T.);
#118 = CIRCLE('',#119,1.);
#119 = AXIS2_PLACEMENT_3D('',#120,#121,#122);
#120 = CARTESIAN_POINT('',(-10.25,8.415152515582,0.));
#121 = DIRECTION('',(-0.,0.,1.));
#122 = DIRECTION('',(0.,-1.,0.));
#123 = PLANE('',#124);
#124 = AXIS2_PLACEMENT_3D('',#125,#126,#127);
#125 = CARTESIAN_POINT('',(0.,2.5,0.));
#126 = DIRECTION('',(-0.,-0.,-1.));
#127 = DIRECTION('',(-1.,0.,0.));
#128 = ADVANCED_FACE('',(#129),#154,.F.);
#129 = FACE_BOUND('',#130,.T.);
#130 = EDGE_LOOP('',(#131,#132,#140,#148));
#131 = ORIENTED_EDGE('',*,*,#21,.F.);
#132 = ORIENTED_EDGE('',*,*,#133,.T.);
#133 = EDGE_CURVE('',#22,#134,#136,.T.);
#134 = VERTEX_POINT('',#135);
#135 = CARTESIAN_POINT('',(-10.74026123963,9.286728052707,8.5));
#136 = LINE('',#137,#138);
#137 = CARTESIAN_POINT('',(-10.74026123963,9.286728052707,-5.E-17));
#138 = VECTOR('',#139,1.);
#139 = DIRECTION('',(0.,0.,1.));
#140 = ORIENTED_EDGE('',*,*,#141,.T.);
#141 = EDGE_CURVE('',#134,#142,#144,.T.);
#142 = VERTEX_POINT('',#143);
#143 = CARTESIAN_POINT('',(-3.501141171845,13.358733090837,8.5));
#144 = LINE('',#145,#146);
#145 = CARTESIAN_POINT('',(-6.365727002967,11.747403560831,8.5));
#146 = VECTOR('',#147,1.);
#147 = DIRECTION('',(0.871575537125,0.490261239633,0.));
#148 = ORIENTED_EDGE('',*,*,#149,.F.);
#149 = EDGE_CURVE('',#24,#142,#150,.T.);
#150 = LINE('',#151,#152);
#151 = CARTESIAN_POINT('',(-3.501141171845,13.358733090837,-4.E-17));
#152 = VECTOR('',#153,1.);
#153 = DIRECTION('',(0.,0.,1.));
#154 = PLANE('',#155);
#155 = AXIS2_PLACEMENT_3D('',#156,#157,#158);
#156 = CARTESIAN_POINT('',(-7.25,11.25,0.));
#157 = DIRECTION('',(0.490261239633,-0.871575537125,-8.E-17));
#158 = DIRECTION('',(-3.969567661868E-17,6.945898065542E-17,-1.));
#159 = ADVANCED_FACE('',(#160),#196,.T.);
#160 = FACE_BOUND('',#161,.T.);
#161 = EDGE_LOOP('',(#162,#163,#171,#180,#188,#195));
#162 = ORIENTED_EDGE('',*,*,#117,.T.);
#163 = ORIENTED_EDGE('',*,*,#164,.T.);
#164 = EDGE_CURVE('',#110,#165,#167,.T.);
#165 = VERTEX_POINT('',#166);
#166 = CARTESIAN_POINT('',(-11.1922723397,8.75,6.5));
#167 = LINE('',#168,#169);
#168 = CARTESIAN_POINT('',(-11.1922723397,8.75,-5.E-17));
#169 = VECTOR('',#170,1.);
#170 = DIRECTION('',(0.,0.,1.));
#171 = ORIENTED_EDGE('',*,*,#172,.T.);
#172 = EDGE_CURVE('',#165,#173,#175,.T.);
#173 = VERTEX_POINT('',#174);
#174 = CARTESIAN_POINT('',(-11.25,8.415152515582,6.5));
#175 = CIRCLE('',#176,1.);
#176 = AXIS2_PLACEMENT_3D('',#177,#178,#179);
#177 = CARTESIAN_POINT('',(-10.25,8.415152515582,6.5));
#178 = DIRECTION('',(-0.,0.,1.));
#179 = DIRECTION('',(0.,-1.,0.));
#180 = ORIENTED_EDGE('',*,*,#181,.T.);
#181 = EDGE_CURVE('',#173,#182,#184,.T.);
#182 = VERTEX_POINT('',#183);
#183 = CARTESIAN_POINT('',(-11.25,8.415152515582,8.5));
#184 = LINE('',#185,#186);
#185 = CARTESIAN_POINT('',(-11.25,8.415152515582,-5.E-17));
#186 = VECTOR('',#187,1.);
#187 = DIRECTION('',(0.,0.,1.));
#188 = ORIENTED_EDGE('',*,*,#189,.F.);
#189 = EDGE_CURVE('',#134,#182,#190,.T.);
#190 = CIRCLE('',#191,1.);
#191 = AXIS2_PLACEMENT_3D('',#192,#193,#194);
#192 = CARTESIAN_POINT('',(-10.25,8.415152515582,8.5));
#193 = DIRECTION('',(-0.,0.,1.));
#194 = DIRECTION('',(0.,-1.,0.));
#195 = ORIENTED_EDGE('',*,*,#133,.F.);
#196 = CYLINDRICAL_SURFACE('',#197,1.);
#197 = AXIS2_PLACEMENT_3D('',#198,#199,#200);
#198 = CARTESIAN_POINT('',(-10.25,8.415152515582,-5.E-17));
#199 = DIRECTION('',(0.,0.,1.));
#200 = DIRECTION('',(-0.490261239633,0.871575537125,0.));
#201 = ADVANCED_FACE('',(#202),#221,.T.);
#202 = FACE_BOUND('',#203,.F.);
#203 = EDGE_LOOP('',(#204,#205,#213,#220));
#204 = ORIENTED_EDGE('',*,*,#31,.T.);
#205 = ORIENTED_EDGE('',*,*,#206,.T.);
#206 = EDGE_CURVE('',#32,#207,#209,.T.);
#207 = VERTEX_POINT('',#208);
#208 = CARTESIAN_POINT('',(-2.96185380825,13.5,8.5));
#209 = LINE('',#210,#211);
#210 = CARTESIAN_POINT('',(-2.96185380825,13.5,-4.E-17));
#211 = VECTOR('',#212,1.);
#212 = DIRECTION('',(0.,0.,1.));
#213 = ORIENTED_EDGE('',*,*,#214,.F.);
#214 = EDGE_CURVE('',#142,#207,#215,.T.);
#215 = CIRCLE('',#216,1.1);
#216 = AXIS2_PLACEMENT_3D('',#217,#218,#219);
#217 = CARTESIAN_POINT('',(-2.96185380825,12.4,8.5));
#218 = DIRECTION('',(-0.,-0.,-1.));
#219 = DIRECTION('',(0.,-1.,0.));
#220 = ORIENTED_EDGE('',*,*,#149,.F.);
#221 = CYLINDRICAL_SURFACE('',#222,1.1);
#222 = AXIS2_PLACEMENT_3D('',#223,#224,#225);
#223 = CARTESIAN_POINT('',(-2.96185380825,12.4,-4.E-17));
#224 = DIRECTION('',(0.,0.,1.));
#225 = DIRECTION('',(-0.490261239633,0.871575537125,0.));
#226 = ADVANCED_FACE('',(#227),#245,.T.);
#227 = FACE_BOUND('',#228,.T.);
#228 = EDGE_LOOP('',(#229,#230,#238,#244));
#229 = ORIENTED_EDGE('',*,*,#109,.F.);
#230 = ORIENTED_EDGE('',*,*,#231,.F.);
#231 = EDGE_CURVE('',#232,#101,#234,.T.);
#232 = VERTEX_POINT('',#233);
#233 = CARTESIAN_POINT('',(11.192272339708,8.75,6.5));
#234 = LINE('',#235,#236);
#235 = CARTESIAN_POINT('',(11.192272339708,8.75,5.E-17));
#236 = VECTOR('',#237,1.);
#237 = DIRECTION('',(-0.,-0.,-1.));
#238 = ORIENTED_EDGE('',*,*,#239,.T.);
#239 = EDGE_CURVE('',#232,#165,#240,.T.);
#240 = LINE('',#241,#242);
#241 = CARTESIAN_POINT('',(11.5,8.75,6.5));
#242 = VECTOR('',#243,1.);
#243 = DIRECTION('',(-1.,0.,0.));
#244 = ORIENTED_EDGE('',*,*,#164,.F.);
#245 = PLANE('',#246);
#246 = AXIS2_PLACEMENT_3D('',#247,#248,#249);
#247 = CARTESIAN_POINT('',(11.5,8.75,0.));
#248 = DIRECTION('',(0.,-1.,0.));
#249 = DIRECTION('',(-1.,0.,0.));
#250 = ADVANCED_FACE('',(#251),#269,.F.);
#251 = FACE_BOUND('',#252,.F.);
#252 = EDGE_LOOP('',(#253,#254,#262,#268));
#253 = ORIENTED_EDGE('',*,*,#40,.F.);
#254 = ORIENTED_EDGE('',*,*,#255,.T.);
#255 = EDGE_CURVE('',#41,#256,#258,.T.);
#256 = VERTEX_POINT('',#257);
#257 = CARTESIAN_POINT('',(-2.924038303443,13.5,8.5));
#258 = LINE('',#259,#260);
#259 = CARTESIAN_POINT('',(-2.924038303443,13.5,0.));
#260 = VECTOR('',#261,1.);
#261 = DIRECTION('',(0.,0.,1.));
#262 = ORIENTED_EDGE('',*,*,#263,.T.);
#263 = EDGE_CURVE('',#256,#207,#264,.T.);
#264 = LINE('',#265,#266);
#265 = CARTESIAN_POINT('',(11.25,13.5,8.5));
#266 = VECTOR('',#267,1.);
#267 = DIRECTION('',(-1.,0.,0.));
#268 = ORIENTED_EDGE('',*,*,#206,.F.);
#269 = PLANE('',#270);
#270 = AXIS2_PLACEMENT_3D('',#271,#272,#273);
#271 = CARTESIAN_POINT('',(11.25,13.5,0.));
#272 = DIRECTION('',(0.,-1.,0.));
#273 = DIRECTION('',(-1.,0.,0.));
#274 = ADVANCED_FACE('',(#275),#311,.T.);
#275 = FACE_BOUND('',#276,.T.);
#276 = EDGE_LOOP('',(#277,#286,#287,#288,#296,#305));
#277 = ORIENTED_EDGE('',*,*,#278,.T.);
#278 = EDGE_CURVE('',#279,#232,#281,.T.);
#279 = VERTEX_POINT('',#280);
#280 = CARTESIAN_POINT('',(11.25,8.415152515582,6.5));
#281 = CIRCLE('',#282,1.);
#282 = AXIS2_PLACEMENT_3D('',#283,#284,#285);
#283 = CARTESIAN_POINT('',(10.25,8.415152515582,6.5));
#284 = DIRECTION('',(-0.,0.,1.));
#285 = DIRECTION('',(0.,-1.,0.));
#286 = ORIENTED_EDGE('',*,*,#231,.T.);
#287 = ORIENTED_EDGE('',*,*,#100,.T.);
#288 = ORIENTED_EDGE('',*,*,#289,.T.);
#289 = EDGE_CURVE('',#93,#290,#292,.T.);
#290 = VERTEX_POINT('',#291);
#291 = CARTESIAN_POINT('',(10.740261239633,9.286728052707,8.5));
#292 = LINE('',#293,#294);
#293 = CARTESIAN_POINT('',(10.740261239633,9.286728052707,5.E-17));
#294 = VECTOR('',#295,1.);
#295 = DIRECTION('',(0.,0.,1.));
#296 = ORIENTED_EDGE('',*,*,#297,.F.);
#297 = EDGE_CURVE('',#298,#290,#300,.T.);
#298 = VERTEX_POINT('',#299);
#299 = CARTESIAN_POINT('',(11.25,8.415152515582,8.5));
#300 = CIRCLE('',#301,1.);
#301 = AXIS2_PLACEMENT_3D('',#302,#303,#304);
#302 = CARTESIAN_POINT('',(10.25,8.415152515582,8.5));
#303 = DIRECTION('',(-0.,0.,1.));
#304 = DIRECTION('',(0.,-1.,0.));
#305 = ORIENTED_EDGE('',*,*,#306,.F.);
#306 = EDGE_CURVE('',#279,#298,#307,.T.);
#307 = LINE('',#308,#309);
#308 = CARTESIAN_POINT('',(11.25,8.415152515582,5.E-17));
#309 = VECTOR('',#310,1.);
#310 = DIRECTION('',(0.,0.,1.));
#311 = CYLINDRICAL_SURFACE('',#312,1.);
#312 = AXIS2_PLACEMENT_3D('',#313,#314,#315);
#313 = CARTESIAN_POINT('',(10.25,8.415152515582,5.E-17));
#314 = DIRECTION('',(0.,0.,1.));
#315 = DIRECTION('',(1.,0.,0.));
#316 = ADVANCED_FACE('',(#317),#336,.T.);
#317 = FACE_BOUND('',#318,.F.);
#318 = EDGE_LOOP('',(#319,#320,#328,#335));
#319 = ORIENTED_EDGE('',*,*,#48,.T.);
#320 = ORIENTED_EDGE('',*,*,#321,.T.);
#321 = EDGE_CURVE('',#49,#322,#324,.T.);
#322 = VERTEX_POINT('',#323);
#323 = CARTESIAN_POINT('',(-2.030582155169,13.041666666667,8.5));
#324 = LINE('',#325,#326);
#325 = CARTESIAN_POINT('',(-2.030582155169,13.041666666667,0.));
#326 = VECTOR('',#327,1.);
#327 = DIRECTION('',(0.,0.,1.));
#328 = ORIENTED_EDGE('',*,*,#329,.F.);
#329 = EDGE_CURVE('',#256,#322,#330,.T.);
#330 = CIRCLE('',#331,1.1);
#331 = AXIS2_PLACEMENT_3D('',#332,#333,#334);
#332 = CARTESIAN_POINT('',(-2.924038303443,12.4,8.5));
#333 = DIRECTION('',(-0.,-0.,-1.));
#334 = DIRECTION('',(0.,-1.,0.));
#335 = ORIENTED_EDGE('',*,*,#255,.F.);
#336 = CYLINDRICAL_SURFACE('',#337,1.1);
#337 = AXIS2_PLACEMENT_3D('',#338,#339,#340);
#338 = CARTESIAN_POINT('',(-2.924038303443,12.4,0.));
#339 = DIRECTION('',(0.,0.,1.));
#340 = DIRECTION('',(0.,1.,0.));
#341 = ADVANCED_FACE('',(#342),#360,.F.);
#342 = FACE_BOUND('',#343,.F.);
#343 = EDGE_LOOP('',(#344,#345,#346,#354));
#344 = ORIENTED_EDGE('',*,*,#92,.F.);
#345 = ORIENTED_EDGE('',*,*,#289,.T.);
#346 = ORIENTED_EDGE('',*,*,#347,.T.);
#347 = EDGE_CURVE('',#290,#348,#350,.T.);
#348 = VERTEX_POINT('',#349);
#349 = CARTESIAN_POINT('',(3.501141171845,13.358733090837,8.5));
#350 = LINE('',#351,#352);
#351 = CARTESIAN_POINT('',(6.365727002967,11.747403560831,8.5));
#352 = VECTOR('',#353,1.);
#353 = DIRECTION('',(-0.871575537125,0.490261239633,0.));
#354 = ORIENTED_EDGE('',*,*,#355,.F.);
#355 = EDGE_CURVE('',#84,#348,#356,.T.);
#356 = LINE('',#357,#358);
#357 = CARTESIAN_POINT('',(3.501141171845,13.358733090837,4.E-17));
#358 = VECTOR('',#359,1.);
#359 = DIRECTION('',(0.,0.,1.));
#360 = PLANE('',#361);
#361 = AXIS2_PLACEMENT_3D('',#362,#363,#364);
#362 = CARTESIAN_POINT('',(7.25,11.25,0.));
#363 = DIRECTION('',(-0.490261239633,-0.871575537125,8.E-17));
#364 = DIRECTION('',(3.969567661868E-17,6.945898065542E-17,1.));
#365 = ADVANCED_FACE('',(#366),#385,.F.);
#366 = FACE_BOUND('',#367,.F.);
#367 = EDGE_LOOP('',(#368,#377,#378,#379));
#368 = ORIENTED_EDGE('',*,*,#369,.F.);
#369 = EDGE_CURVE('',#322,#370,#372,.T.);
#370 = VERTEX_POINT('',#371);
#371 = CARTESIAN_POINT('',(2.030582155169,13.041666666667,8.5));
#372 = CIRCLE('',#373,2.5);
#373 = AXIS2_PLACEMENT_3D('',#374,#375,#376);
#374 = CARTESIAN_POINT('',(0.,14.5,8.5));
#375 = DIRECTION('',(0.,0.,1.));
#376 = DIRECTION('',(1.,0.,0.));
#377 = ORIENTED_EDGE('',*,*,#321,.F.);
#378 = ORIENTED_EDGE('',*,*,#57,.T.);
#379 = ORIENTED_EDGE('',*,*,#380,.T.);
#380 = EDGE_CURVE('',#58,#370,#381,.T.);
#381 = LINE('',#382,#383);
#382 = CARTESIAN_POINT('',(2.030582155169,13.041666666667,0.));
#383 = VECTOR('',#384,1.);
#384 = DIRECTION('',(0.,0.,1.));
#385 = CYLINDRICAL_SURFACE('',#386,2.5);
#386 = AXIS2_PLACEMENT_3D('',#387,#388,#389);
#387 = CARTESIAN_POINT('',(0.,14.5,8.5));
#388 = DIRECTION('',(0.,0.,1.));
#389 = DIRECTION('',(1.,0.,0.));
#390 = ADVANCED_FACE('',(#391),#410,.T.);
#391 = FACE_BOUND('',#392,.T.);
#392 = EDGE_LOOP('',(#393,#394,#402,#409));
#393 = ORIENTED_EDGE('',*,*,#83,.T.);
#394 = ORIENTED_EDGE('',*,*,#395,.T.);
#395 = EDGE_CURVE('',#76,#396,#398,.T.);
#396 = VERTEX_POINT('',#397);
#397 = CARTESIAN_POINT('',(2.96185380825,13.5,8.5));
#398 = LINE('',#399,#400);
#399 = CARTESIAN_POINT('',(2.96185380825,13.5,4.E-17));
#400 = VECTOR('',#401,1.);
#401 = DIRECTION('',(0.,0.,1.));
#402 = ORIENTED_EDGE('',*,*,#403,.F.);
#403 = EDGE_CURVE('',#348,#396,#404,.T.);
#404 = CIRCLE('',#405,1.1);
#405 = AXIS2_PLACEMENT_3D('',#406,#407,#408);
#406 = CARTESIAN_POINT('',(2.96185380825,12.4,8.5));
#407 = DIRECTION('',(-0.,0.,1.));
#408 = DIRECTION('',(0.,-1.,0.));
#409 = ORIENTED_EDGE('',*,*,#355,.F.);
#410 = CYLINDRICAL_SURFACE('',#411,1.1);
#411 = AXIS2_PLACEMENT_3D('',#412,#413,#414);
#412 = CARTESIAN_POINT('',(2.96185380825,12.4,4.E-17));
#413 = DIRECTION('',(0.,0.,1.));
#414 = DIRECTION('',(0.490261239633,0.871575537125,0.));
#415 = ADVANCED_FACE('',(#416),#435,.T.);
#416 = FACE_BOUND('',#417,.F.);
#417 = EDGE_LOOP('',(#418,#419,#427,#434));
#418 = ORIENTED_EDGE('',*,*,#66,.T.);
#419 = ORIENTED_EDGE('',*,*,#420,.T.);
#420 = EDGE_CURVE('',#67,#421,#423,.T.);
#421 = VERTEX_POINT('',#422);
#422 = CARTESIAN_POINT('',(2.924038303443,13.5,8.5));
#423 = LINE('',#424,#425);
#424 = CARTESIAN_POINT('',(2.924038303443,13.5,0.));
#425 = VECTOR('',#426,1.);
#426 = DIRECTION('',(0.,0.,1.));
#427 = ORIENTED_EDGE('',*,*,#428,.F.);
#428 = EDGE_CURVE('',#370,#421,#429,.T.);
#429 = CIRCLE('',#430,1.1);
#430 = AXIS2_PLACEMENT_3D('',#431,#432,#433);
#431 = CARTESIAN_POINT('',(2.924038303443,12.4,8.5));
#432 = DIRECTION('',(-0.,-0.,-1.));
#433 = DIRECTION('',(0.,-1.,0.));
#434 = ORIENTED_EDGE('',*,*,#380,.F.);
#435 = CYLINDRICAL_SURFACE('',#436,1.1);
#436 = AXIS2_PLACEMENT_3D('',#437,#438,#439);
#437 = CARTESIAN_POINT('',(2.924038303443,12.4,0.));
#438 = DIRECTION('',(0.,0.,1.));
#439 = DIRECTION('',(-0.812232862067,0.583333333333,0.));
#440 = ADVANCED_FACE('',(#441),#452,.F.);
#441 = FACE_BOUND('',#442,.F.);
#442 = EDGE_LOOP('',(#443,#444,#445,#451));
#443 = ORIENTED_EDGE('',*,*,#75,.F.);
#444 = ORIENTED_EDGE('',*,*,#395,.T.);
#445 = ORIENTED_EDGE('',*,*,#446,.T.);
#446 = EDGE_CURVE('',#396,#421,#447,.T.);
#447 = LINE('',#448,#449);
#448 = CARTESIAN_POINT('',(11.25,13.5,8.5));
#449 = VECTOR('',#450,1.);
#450 = DIRECTION('',(-1.,0.,0.));
#451 = ORIENTED_EDGE('',*,*,#420,.F.);
#452 = PLANE('',#453);
#453 = AXIS2_PLACEMENT_3D('',#454,#455,#456);
#454 = CARTESIAN_POINT('',(11.25,13.5,0.));
#455 = DIRECTION('',(0.,-1.,0.));
#456 = DIRECTION('',(-1.,0.,0.));
#457 = ADVANCED_FACE('',(#458,#493,#504,#515,#526),#537,.T.);
#458 = FACE_BOUND('',#459,.T.);
#459 = EDGE_LOOP('',(#460,#461,#462,#463,#464,#465,#466,#467,#468,#469,
    #470,#478,#486,#492));
#460 = ORIENTED_EDGE('',*,*,#347,.T.);
#461 = ORIENTED_EDGE('',*,*,#403,.T.);
#462 = ORIENTED_EDGE('',*,*,#446,.T.);
#463 = ORIENTED_EDGE('',*,*,#428,.F.);
#464 = ORIENTED_EDGE('',*,*,#369,.F.);
#465 = ORIENTED_EDGE('',*,*,#329,.F.);
#466 = ORIENTED_EDGE('',*,*,#263,.T.);
#467 = ORIENTED_EDGE('',*,*,#214,.F.);
#468 = ORIENTED_EDGE('',*,*,#141,.F.);
#469 = ORIENTED_EDGE('',*,*,#189,.T.);
#470 = ORIENTED_EDGE('',*,*,#471,.T.);
#471 = EDGE_CURVE('',#182,#472,#474,.T.);
#472 = VERTEX_POINT('',#473);
#473 = CARTESIAN_POINT('',(-11.25,-8.5,8.5));
#474 = LINE('',#475,#476);
#475 = CARTESIAN_POINT('',(-11.25,8.5,8.5));
#476 = VECTOR('',#477,1.);
#477 = DIRECTION('',(0.,-1.,0.));
#478 = ORIENTED_EDGE('',*,*,#479,.T.);
#479 = EDGE_CURVE('',#472,#480,#482,.T.);
#480 = VERTEX_POINT('',#481);
#481 = CARTESIAN_POINT('',(11.25,-8.5,8.5));
#482 = LINE('',#483,#484);
#483 = CARTESIAN_POINT('',(-11.25,-8.5,8.5));
#484 = VECTOR('',#485,1.);
#485 = DIRECTION('',(1.,0.,0.));
#486 = ORIENTED_EDGE('',*,*,#487,.T.);
#487 = EDGE_CURVE('',#480,#298,#488,.T.);
#488 = LINE('',#489,#490);
#489 = CARTESIAN_POINT('',(11.25,8.5,8.5));
#490 = VECTOR('',#491,1.);
#491 = DIRECTION('',(0.,1.,0.));
#492 = ORIENTED_EDGE('',*,*,#297,.T.);
#493 = FACE_BOUND('',#494,.T.);
#494 = EDGE_LOOP('',(#495));
#495 = ORIENTED_EDGE('',*,*,#496,.F.);
#496 = EDGE_CURVE('',#497,#497,#499,.T.);
#497 = VERTEX_POINT('',#498);
#498 = CARTESIAN_POINT('',(-2.9,-6.,8.5));
#499 = CIRCLE('',#500,1.1);
#500 = AXIS2_PLACEMENT_3D('',#501,#502,#503);
#501 = CARTESIAN_POINT('',(-4.,-6.,8.5));
#502 = DIRECTION('',(0.,0.,1.));
#503 = DIRECTION('',(1.,0.,0.));
#504 = FACE_BOUND('',#505,.T.);
#505 = EDGE_LOOP('',(#506));
#506 = ORIENTED_EDGE('',*,*,#507,.F.);
#507 = EDGE_CURVE('',#508,#508,#510,.T.);
#508 = VERTEX_POINT('',#509);
#509 = CARTESIAN_POINT('',(5.1,-6.,8.5));
#510 = CIRCLE('',#511,1.1);
#511 = AXIS2_PLACEMENT_3D('',#512,#513,#514);
#512 = CARTESIAN_POINT('',(4.,-6.,8.5));
#513 = DIRECTION('',(0.,0.,1.));
#514 = DIRECTION('',(1.,0.,0.));
#515 = FACE_BOUND('',#516,.T.);
#516 = EDGE_LOOP('',(#517));
#517 = ORIENTED_EDGE('',*,*,#518,.F.);
#518 = EDGE_CURVE('',#519,#519,#521,.T.);
#519 = VERTEX_POINT('',#520);
#520 = CARTESIAN_POINT('',(-2.9,6.,8.5));
#521 = CIRCLE('',#522,1.1);
#522 = AXIS2_PLACEMENT_3D('',#523,#524,#525);
#523 = CARTESIAN_POINT('',(-4.,6.,8.5));
#524 = DIRECTION('',(0.,0.,1.));
#525 = DIRECTION('',(1.,0.,0.));
#526 = FACE_BOUND('',#527,.T.);
#527 = EDGE_LOOP('',(#528));
#528 = ORIENTED_EDGE('',*,*,#529,.F.);
#529 = EDGE_CURVE('',#530,#530,#532,.T.);
#530 = VERTEX_POINT('',#531);
#531 = CARTESIAN_POINT('',(5.1,6.,8.5));
#532 = CIRCLE('',#533,1.1);
#533 = AXIS2_PLACEMENT_3D('',#534,#535,#536);
#534 = CARTESIAN_POINT('',(4.,6.,8.5));
#535 = DIRECTION('',(0.,0.,1.));
#536 = DIRECTION('',(1.,0.,0.));
#537 = PLANE('',#538);
#538 = AXIS2_PLACEMENT_3D('',#539,#540,#541);
#539 = CARTESIAN_POINT('',(0.,2.5,8.5));
#540 = DIRECTION('',(0.,0.,1.));
#541 = DIRECTION('',(1.,0.,0.));
#542 = ADVANCED_FACE('',(#543,#570,#581,#592,#603),#614,.T.);
#543 = FACE_BOUND('',#544,.T.);
#544 = EDGE_LOOP('',(#545,#546,#547,#555,#563,#569));
#545 = ORIENTED_EDGE('',*,*,#239,.F.);
#546 = ORIENTED_EDGE('',*,*,#278,.F.);
#547 = ORIENTED_EDGE('',*,*,#548,.T.);
#548 = EDGE_CURVE('',#279,#549,#551,.T.);
#549 = VERTEX_POINT('',#550);
#550 = CARTESIAN_POINT('',(11.25,-10.5,6.5));
#551 = LINE('',#552,#553);
#552 = CARTESIAN_POINT('',(11.25,1.25,6.5));
#553 = VECTOR('',#554,1.);
#554 = DIRECTION('',(0.,-1.,0.));
#555 = ORIENTED_EDGE('',*,*,#556,.T.);
#556 = EDGE_CURVE('',#549,#557,#559,.T.);
#557 = VERTEX_POINT('',#558);
#558 = CARTESIAN_POINT('',(-11.25,-10.5,6.5));
#559 = LINE('',#560,#561);
#560 = CARTESIAN_POINT('',(11.25,-10.5,6.5));
#561 = VECTOR('',#562,1.);
#562 = DIRECTION('',(-1.,0.,0.));
#563 = ORIENTED_EDGE('',*,*,#564,.T.);
#564 = EDGE_CURVE('',#557,#173,#565,.T.);
#565 = LINE('',#566,#567);
#566 = CARTESIAN_POINT('',(-11.25,-10.5,6.5));
#567 = VECTOR('',#568,1.);
#568 = DIRECTION('',(0.,1.,0.));
#569 = ORIENTED_EDGE('',*,*,#172,.F.);
#570 = FACE_BOUND('',#571,.T.);
#571 = EDGE_LOOP('',(#572));
#572 = ORIENTED_EDGE('',*,*,#573,.T.);
#573 = EDGE_CURVE('',#574,#574,#576,.T.);
#574 = VERTEX_POINT('',#575);
#575 = CARTESIAN_POINT('',(-2.9,-6.,6.5));
#576 = CIRCLE('',#577,1.1);
#577 = AXIS2_PLACEMENT_3D('',#578,#579,#580);
#578 = CARTESIAN_POINT('',(-4.,-6.,6.5));
#579 = DIRECTION('',(0.,0.,1.));
#580 = DIRECTION('',(1.,0.,0.));
#581 = FACE_BOUND('',#582,.T.);
#582 = EDGE_LOOP('',(#583));
#583 = ORIENTED_EDGE('',*,*,#584,.T.);
#584 = EDGE_CURVE('',#585,#585,#587,.T.);
#585 = VERTEX_POINT('',#586);
#586 = CARTESIAN_POINT('',(5.1,-6.,6.5));
#587 = CIRCLE('',#588,1.1);
#588 = AXIS2_PLACEMENT_3D('',#589,#590,#591);
#589 = CARTESIAN_POINT('',(4.,-6.,6.5));
#590 = DIRECTION('',(0.,0.,1.));
#591 = DIRECTION('',(1.,0.,0.));
#592 = FACE_BOUND('',#593,.T.);
#593 = EDGE_LOOP('',(#594));
#594 = ORIENTED_EDGE('',*,*,#595,.T.);
#595 = EDGE_CURVE('',#596,#596,#598,.T.);
#596 = VERTEX_POINT('',#597);
#597 = CARTESIAN_POINT('',(-2.9,6.,6.5));
#598 = CIRCLE('',#599,1.1);
#599 = AXIS2_PLACEMENT_3D('',#600,#601,#602);
#600 = CARTESIAN_POINT('',(-4.,6.,6.5));
#601 = DIRECTION('',(0.,0.,1.));
#602 = DIRECTION('',(1.,0.,0.));
#603 = FACE_BOUND('',#604,.T.);
#604 = EDGE_LOOP('',(#605));
#605 = ORIENTED_EDGE('',*,*,#606,.T.);
#606 = EDGE_CURVE('',#607,#607,#609,.T.);
#607 = VERTEX_POINT('',#608);
#608 = CARTESIAN_POINT('',(5.1,6.,6.5));
#609 = CIRCLE('',#610,1.1);
#610 = AXIS2_PLACEMENT_3D('',#611,#612,#613);
#611 = CARTESIAN_POINT('',(4.,6.,6.5));
#612 = DIRECTION('',(0.,0.,1.));
#613 = DIRECTION('',(1.,0.,0.));
#614 = PLANE('',#615);
#615 = AXIS2_PLACEMENT_3D('',#616,#617,#618);
#616 = CARTESIAN_POINT('',(-3.02E-15,-0.886858671558,6.5));
#617 = DIRECTION('',(-0.,-0.,-1.));
#618 = DIRECTION('',(-1.,0.,0.));
#619 = ADVANCED_FACE('',(#620),#647,.T.);
#620 = FACE_BOUND('',#621,.T.);
#621 = EDGE_LOOP('',(#622,#623,#624,#625,#633,#641));
#622 = ORIENTED_EDGE('',*,*,#471,.F.);
#623 = ORIENTED_EDGE('',*,*,#181,.F.);
#624 = ORIENTED_EDGE('',*,*,#564,.F.);
#625 = ORIENTED_EDGE('',*,*,#626,.T.);
#626 = EDGE_CURVE('',#557,#627,#629,.T.);
#627 = VERTEX_POINT('',#628);
#628 = CARTESIAN_POINT('',(-11.25,-10.5,19.));
#629 = LINE('',#630,#631);
#630 = CARTESIAN_POINT('',(-11.25,-10.5,6.5));
#631 = VECTOR('',#632,1.);
#632 = DIRECTION('',(0.,0.,1.));
#633 = ORIENTED_EDGE('',*,*,#634,.T.);
#634 = EDGE_CURVE('',#627,#635,#637,.T.);
#635 = VERTEX_POINT('',#636);
#636 = CARTESIAN_POINT('',(-11.25,-8.5,19.));
#637 = LINE('',#638,#639);
#638 = CARTESIAN_POINT('',(-11.25,-10.5,19.));
#639 = VECTOR('',#640,1.);
#640 = DIRECTION('',(0.,1.,0.));
#641 = ORIENTED_EDGE('',*,*,#642,.F.);
#642 = EDGE_CURVE('',#472,#635,#643,.T.);
#643 = LINE('',#644,#645);
#644 = CARTESIAN_POINT('',(-11.25,-8.5,6.5));
#645 = VECTOR('',#646,1.);
#646 = DIRECTION('',(0.,0.,1.));
#647 = PLANE('',#648);
#648 = AXIS2_PLACEMENT_3D('',#649,#650,#651);
#649 = CARTESIAN_POINT('',(-11.25,-3.869230031396,9.923193710813));
#650 = DIRECTION('',(-1.,-0.,-0.));
#651 = DIRECTION('',(0.,0.,-1.));
#652 = ADVANCED_FACE('',(#653),#680,.T.);
#653 = FACE_BOUND('',#654,.T.);
#654 = EDGE_LOOP('',(#655,#656,#657,#658,#666,#674));
#655 = ORIENTED_EDGE('',*,*,#548,.F.);
#656 = ORIENTED_EDGE('',*,*,#306,.T.);
#657 = ORIENTED_EDGE('',*,*,#487,.F.);
#658 = ORIENTED_EDGE('',*,*,#659,.T.);
#659 = EDGE_CURVE('',#480,#660,#662,.T.);
#660 = VERTEX_POINT('',#661);
#661 = CARTESIAN_POINT('',(11.25,-8.5,19.));
#662 = LINE('',#663,#664);
#663 = CARTESIAN_POINT('',(11.25,-8.5,6.5));
#664 = VECTOR('',#665,1.);
#665 = DIRECTION('',(0.,0.,1.));
#666 = ORIENTED_EDGE('',*,*,#667,.T.);
#667 = EDGE_CURVE('',#660,#668,#670,.T.);
#668 = VERTEX_POINT('',#669);
#669 = CARTESIAN_POINT('',(11.25,-10.5,19.));
#670 = LINE('',#671,#672);
#671 = CARTESIAN_POINT('',(11.25,-8.5,19.));
#672 = VECTOR('',#673,1.);
#673 = DIRECTION('',(0.,-1.,0.));
#674 = ORIENTED_EDGE('',*,*,#675,.F.);
#675 = EDGE_CURVE('',#549,#668,#676,.T.);
#676 = LINE('',#677,#678);
#677 = CARTESIAN_POINT('',(11.25,-10.5,6.5));
#678 = VECTOR('',#679,1.);
#679 = DIRECTION('',(0.,0.,1.));
#680 = PLANE('',#681);
#681 = AXIS2_PLACEMENT_3D('',#682,#683,#684);
#682 = CARTESIAN_POINT('',(11.25,-3.869230031396,9.923193710813));
#683 = DIRECTION('',(1.,0.,0.));
#684 = DIRECTION('',(0.,0.,1.));
#685 = ADVANCED_FACE('',(#686),#697,.F.);
#686 = FACE_BOUND('',#687,.F.);
#687 = EDGE_LOOP('',(#688,#694,#695,#696));
#688 = ORIENTED_EDGE('',*,*,#689,.F.);
#689 = EDGE_CURVE('',#497,#574,#690,.T.);
#690 = LINE('',#691,#692);
#691 = CARTESIAN_POINT('',(-2.9,-6.,8.5));
#692 = VECTOR('',#693,1.);
#693 = DIRECTION('',(-0.,-0.,-1.));
#694 = ORIENTED_EDGE('',*,*,#496,.F.);
#695 = ORIENTED_EDGE('',*,*,#689,.T.);
#696 = ORIENTED_EDGE('',*,*,#573,.T.);
#697 = CYLINDRICAL_SURFACE('',#698,1.1);
#698 = AXIS2_PLACEMENT_3D('',#699,#700,#701);
#699 = CARTESIAN_POINT('',(-4.,-6.,8.5));
#700 = DIRECTION('',(0.,0.,1.));
#701 = DIRECTION('',(1.,0.,0.));
#702 = ADVANCED_FACE('',(#703),#714,.F.);
#703 = FACE_BOUND('',#704,.F.);
#704 = EDGE_LOOP('',(#705,#711,#712,#713));
#705 = ORIENTED_EDGE('',*,*,#706,.F.);
#706 = EDGE_CURVE('',#508,#585,#707,.T.);
#707 = LINE('',#708,#709);
#708 = CARTESIAN_POINT('',(5.1,-6.,8.5));
#709 = VECTOR('',#710,1.);
#710 = DIRECTION('',(-0.,-0.,-1.));
#711 = ORIENTED_EDGE('',*,*,#507,.F.);
#712 = ORIENTED_EDGE('',*,*,#706,.T.);
#713 = ORIENTED_EDGE('',*,*,#584,.T.);
#714 = CYLINDRICAL_SURFACE('',#715,1.1);
#715 = AXIS2_PLACEMENT_3D('',#716,#717,#718);
#716 = CARTESIAN_POINT('',(4.,-6.,8.5));
#717 = DIRECTION('',(0.,0.,1.));
#718 = DIRECTION('',(1.,0.,0.));
#719 = ADVANCED_FACE('',(#720),#731,.F.);
#720 = FACE_BOUND('',#721,.F.);
#721 = EDGE_LOOP('',(#722,#728,#729,#730));
#722 = ORIENTED_EDGE('',*,*,#723,.F.);
#723 = EDGE_CURVE('',#519,#596,#724,.T.);
#724 = LINE('',#725,#726);
#725 = CARTESIAN_POINT('',(-2.9,6.,8.5));
#726 = VECTOR('',#727,1.);
#727 = DIRECTION('',(-0.,-0.,-1.));
#728 = ORIENTED_EDGE('',*,*,#518,.F.);
#729 = ORIENTED_EDGE('',*,*,#723,.T.);
#730 = ORIENTED_EDGE('',*,*,#595,.T.);
#731 = CYLINDRICAL_SURFACE('',#732,1.1);
#732 = AXIS2_PLACEMENT_3D('',#733,#734,#735);
#733 = CARTESIAN_POINT('',(-4.,6.,8.5));
#734 = DIRECTION('',(0.,0.,1.));
#735 = DIRECTION('',(1.,0.,0.));
#736 = ADVANCED_FACE('',(#737),#748,.F.);
#737 = FACE_BOUND('',#738,.F.);
#738 = EDGE_LOOP('',(#739,#745,#746,#747));
#739 = ORIENTED_EDGE('',*,*,#740,.F.);
#740 = EDGE_CURVE('',#530,#607,#741,.T.);
#741 = LINE('',#742,#743);
#742 = CARTESIAN_POINT('',(5.1,6.,8.5));
#743 = VECTOR('',#744,1.);
#744 = DIRECTION('',(-0.,-0.,-1.));
#745 = ORIENTED_EDGE('',*,*,#529,.F.);
#746 = ORIENTED_EDGE('',*,*,#740,.T.);
#747 = ORIENTED_EDGE('',*,*,#606,.T.);
#748 = CYLINDRICAL_SURFACE('',#749,1.1);
#749 = AXIS2_PLACEMENT_3D('',#750,#751,#752);
#750 = CARTESIAN_POINT('',(4.,6.,8.5));
#751 = DIRECTION('',(0.,0.,1.));
#752 = DIRECTION('',(1.,0.,0.));
#753 = ADVANCED_FACE('',(#754),#781,.T.);
#754 = FACE_BOUND('',#755,.T.);
#755 = EDGE_LOOP('',(#756,#757,#765,#773,#779,#780));
#756 = ORIENTED_EDGE('',*,*,#675,.T.);
#757 = ORIENTED_EDGE('',*,*,#758,.T.);
#758 = EDGE_CURVE('',#668,#759,#761,.T.);
#759 = VERTEX_POINT('',#760);
#760 = CARTESIAN_POINT('',(2.5,-10.5,19.));
#761 = LINE('',#762,#763);
#762 = CARTESIAN_POINT('',(11.25,-10.5,19.));
#763 = VECTOR('',#764,1.);
#764 = DIRECTION('',(-1.,0.,0.));
#765 = ORIENTED_EDGE('',*,*,#766,.T.);
#766 = EDGE_CURVE('',#759,#767,#769,.T.);
#767 = VERTEX_POINT('',#768);
#768 = CARTESIAN_POINT('',(-2.5,-10.5,19.));
#769 = LINE('',#770,#771);
#770 = CARTESIAN_POINT('',(11.25,-10.5,19.));
#771 = VECTOR('',#772,1.);
#772 = DIRECTION('',(-1.,0.,0.));
#773 = ORIENTED_EDGE('',*,*,#774,.T.);
#774 = EDGE_CURVE('',#767,#627,#775,.T.);
#775 = LINE('',#776,#777);
#776 = CARTESIAN_POINT('',(11.25,-10.5,19.));
#777 = VECTOR('',#778,1.);
#778 = DIRECTION('',(-1.,0.,0.));
#779 = ORIENTED_EDGE('',*,*,#626,.F.);
#780 = ORIENTED_EDGE('',*,*,#556,.F.);
#781 = PLANE('',#782);
#782 = AXIS2_PLACEMENT_3D('',#783,#784,#785);
#783 = CARTESIAN_POINT('',(11.25,-10.5,6.5));
#784 = DIRECTION('',(-0.,-1.,-0.));
#785 = DIRECTION('',(-1.,0.,0.));
#786 = ADVANCED_FACE('',(#787),#805,.T.);
#787 = FACE_BOUND('',#788,.T.);
#788 = EDGE_LOOP('',(#789,#790,#798,#804));
#789 = ORIENTED_EDGE('',*,*,#774,.F.);
#790 = ORIENTED_EDGE('',*,*,#791,.F.);
#791 = EDGE_CURVE('',#792,#767,#794,.T.);
#792 = VERTEX_POINT('',#793);
#793 = CARTESIAN_POINT('',(-2.5,-8.5,19.));
#794 = LINE('',#795,#796);
#795 = CARTESIAN_POINT('',(-2.5,-8.5,19.));
#796 = VECTOR('',#797,1.);
#797 = DIRECTION('',(0.,-1.,2.2E-16));
#798 = ORIENTED_EDGE('',*,*,#799,.F.);
#799 = EDGE_CURVE('',#635,#792,#800,.T.);
#800 = LINE('',#801,#802);
#801 = CARTESIAN_POINT('',(-11.25,-8.5,19.));
#802 = VECTOR('',#803,1.);
#803 = DIRECTION('',(1.,0.,0.));
#804 = ORIENTED_EDGE('',*,*,#634,.F.);
#805 = PLANE('',#806);
#806 = AXIS2_PLACEMENT_3D('',#807,#808,#809);
#807 = CARTESIAN_POINT('',(0.,-9.021276595745,19.));
#808 = DIRECTION('',(0.,0.,1.));
#809 = DIRECTION('',(1.,0.,0.));
#810 = ADVANCED_FACE('',(#811),#829,.T.);
#811 = FACE_BOUND('',#812,.T.);
#812 = EDGE_LOOP('',(#813,#814,#815,#823));
#813 = ORIENTED_EDGE('',*,*,#758,.F.);
#814 = ORIENTED_EDGE('',*,*,#667,.F.);
#815 = ORIENTED_EDGE('',*,*,#816,.F.);
#816 = EDGE_CURVE('',#817,#660,#819,.T.);
#817 = VERTEX_POINT('',#818);
#818 = CARTESIAN_POINT('',(2.5,-8.5,19.));
#819 = LINE('',#820,#821);
#820 = CARTESIAN_POINT('',(-11.25,-8.5,19.));
#821 = VECTOR('',#822,1.);
#822 = DIRECTION('',(1.,0.,0.));
#823 = ORIENTED_EDGE('',*,*,#824,.T.);
#824 = EDGE_CURVE('',#817,#759,#825,.T.);
#825 = LINE('',#826,#827);
#826 = CARTESIAN_POINT('',(2.5,-8.5,19.));
#827 = VECTOR('',#828,1.);
#828 = DIRECTION('',(0.,-1.,2.2E-16));
#829 = PLANE('',#830);
#830 = AXIS2_PLACEMENT_3D('',#831,#832,#833);
#831 = CARTESIAN_POINT('',(0.,-9.021276595745,19.));
#832 = DIRECTION('',(0.,0.,1.));
#833 = DIRECTION('',(1.,0.,0.));
#834 = ADVANCED_FACE('',(#835),#860,.T.);
#835 = FACE_BOUND('',#836,.T.);
#836 = EDGE_LOOP('',(#837,#838,#846,#854));
#837 = ORIENTED_EDGE('',*,*,#766,.F.);
#838 = ORIENTED_EDGE('',*,*,#839,.T.);
#839 = EDGE_CURVE('',#759,#840,#842,.T.);
#840 = VERTEX_POINT('',#841);
#841 = CARTESIAN_POINT('',(2.5,-48.5,19.));
#842 = LINE('',#843,#844);
#843 = CARTESIAN_POINT('',(2.5,-8.5,19.));
#844 = VECTOR('',#845,1.);
#845 = DIRECTION('',(0.,-1.,2.2E-16));
#846 = ORIENTED_EDGE('',*,*,#847,.T.);
#847 = EDGE_CURVE('',#840,#848,#850,.T.);
#848 = VERTEX_POINT('',#849);
#849 = CARTESIAN_POINT('',(-2.5,-48.5,19.));
#850 = LINE('',#851,#852);
#851 = CARTESIAN_POINT('',(2.5,-48.5,19.));
#852 = VECTOR('',#853,1.);
#853 = DIRECTION('',(-1.,0.,0.));
#854 = ORIENTED_EDGE('',*,*,#855,.F.);
#855 = EDGE_CURVE('',#767,#848,#856,.T.);
#856 = LINE('',#857,#858);
#857 = CARTESIAN_POINT('',(-2.5,-8.5,19.));
#858 = VECTOR('',#859,1.);
#859 = DIRECTION('',(0.,-1.,2.2E-16));
#860 = PLANE('',#861);
#861 = AXIS2_PLACEMENT_3D('',#862,#863,#864);
#862 = CARTESIAN_POINT('',(2.5,-8.5,19.));
#863 = DIRECTION('',(-0.,-2.2E-16,-1.));
#864 = DIRECTION('',(-1.,0.,0.));
#865 = ADVANCED_FACE('',(#866),#892,.F.);
#866 = FACE_BOUND('',#867,.F.);
#867 = EDGE_LOOP('',(#868,#878,#884,#885,#886));
#868 = ORIENTED_EDGE('',*,*,#869,.T.);
#869 = EDGE_CURVE('',#870,#872,#874,.T.);
#870 = VERTEX_POINT('',#871);
#871 = CARTESIAN_POINT('',(-2.5,-8.5,20.5));
#872 = VERTEX_POINT('',#873);
#873 = CARTESIAN_POINT('',(-2.5,-48.5,20.5));
#874 = LINE('',#875,#876);
#875 = CARTESIAN_POINT('',(-2.5,-8.5,20.5));
#876 = VECTOR('',#877,1.);
#877 = DIRECTION('',(0.,-1.,2.2E-16));
#878 = ORIENTED_EDGE('',*,*,#879,.T.);
#879 = EDGE_CURVE('',#872,#848,#880,.T.);
#880 = LINE('',#881,#882);
#881 = CARTESIAN_POINT('',(-2.5,-48.5,20.5));
#882 = VECTOR('',#883,1.);
#883 = DIRECTION('',(0.,0.,-1.));
#884 = ORIENTED_EDGE('',*,*,#855,.F.);
#885 = ORIENTED_EDGE('',*,*,#791,.F.);
#886 = ORIENTED_EDGE('',*,*,#887,.F.);
#887 = EDGE_CURVE('',#870,#792,#888,.T.);
#888 = LINE('',#889,#890);
#889 = CARTESIAN_POINT('',(-2.5,-8.5,20.5));
#890 = VECTOR('',#891,1.);
#891 = DIRECTION('',(0.,0.,-1.));
#892 = PLANE('',#893);
#893 = AXIS2_PLACEMENT_3D('',#894,#895,#896);
#894 = CARTESIAN_POINT('',(-2.5,-8.5,20.5));
#895 = DIRECTION('',(1.,0.,0.));
#896 = DIRECTION('',(0.,-2.2E-16,-1.));
#897 = ADVANCED_FACE('',(#898),#924,.T.);
#898 = FACE_BOUND('',#899,.T.);
#899 = EDGE_LOOP('',(#900,#910,#916,#917,#918));
#900 = ORIENTED_EDGE('',*,*,#901,.T.);
#901 = EDGE_CURVE('',#902,#904,#906,.T.);
#902 = VERTEX_POINT('',#903);
#903 = CARTESIAN_POINT('',(2.5,-8.5,20.5));
#904 = VERTEX_POINT('',#905);
#905 = CARTESIAN_POINT('',(2.5,-48.5,20.5));
#906 = LINE('',#907,#908);
#907 = CARTESIAN_POINT('',(2.5,-8.5,20.5));
#908 = VECTOR('',#909,1.);
#909 = DIRECTION('',(0.,-1.,2.2E-16));
#910 = ORIENTED_EDGE('',*,*,#911,.T.);
#911 = EDGE_CURVE('',#904,#840,#912,.T.);
#912 = LINE('',#913,#914);
#913 = CARTESIAN_POINT('',(2.5,-48.5,20.5));
#914 = VECTOR('',#915,1.);
#915 = DIRECTION('',(0.,0.,-1.));
#916 = ORIENTED_EDGE('',*,*,#839,.F.);
#917 = ORIENTED_EDGE('',*,*,#824,.F.);
#918 = ORIENTED_EDGE('',*,*,#919,.F.);
#919 = EDGE_CURVE('',#902,#817,#920,.T.);
#920 = LINE('',#921,#922);
#921 = CARTESIAN_POINT('',(2.5,-8.5,20.5));
#922 = VECTOR('',#923,1.);
#923 = DIRECTION('',(0.,0.,-1.));
#924 = PLANE('',#925);
#925 = AXIS2_PLACEMENT_3D('',#926,#927,#928);
#926 = CARTESIAN_POINT('',(2.5,-8.5,20.5));
#927 = DIRECTION('',(1.,0.,0.));
#928 = DIRECTION('',(0.,-2.2E-16,-1.));
#929 = ADVANCED_FACE('',(#930),#946,.T.);
#930 = FACE_BOUND('',#931,.T.);
#931 = EDGE_LOOP('',(#932,#933,#939,#940));
#932 = ORIENTED_EDGE('',*,*,#901,.F.);
#933 = ORIENTED_EDGE('',*,*,#934,.T.);
#934 = EDGE_CURVE('',#902,#870,#935,.T.);
#935 = LINE('',#936,#937);
#936 = CARTESIAN_POINT('',(0.,-8.5,20.5));
#937 = VECTOR('',#938,1.);
#938 = DIRECTION('',(-1.,0.,0.));
#939 = ORIENTED_EDGE('',*,*,#869,.T.);
#940 = ORIENTED_EDGE('',*,*,#941,.T.);
#941 = EDGE_CURVE('',#872,#904,#942,.T.);
#942 = LINE('',#943,#944);
#943 = CARTESIAN_POINT('',(0.,-48.5,20.5));
#944 = VECTOR('',#945,1.);
#945 = DIRECTION('',(1.,0.,0.));
#946 = PLANE('',#947);
#947 = AXIS2_PLACEMENT_3D('',#948,#949,#950);
#948 = CARTESIAN_POINT('',(0.,-28.5,20.5));
#949 = DIRECTION('',(0.,0.,1.));
#950 = DIRECTION('',(1.,0.,-0.));
#951 = ADVANCED_FACE('',(#952),#958,.F.);
#952 = FACE_BOUND('',#953,.F.);
#953 = EDGE_LOOP('',(#954,#955,#956,#957));
#954 = ORIENTED_EDGE('',*,*,#941,.T.);
#955 = ORIENTED_EDGE('',*,*,#911,.T.);
#956 = ORIENTED_EDGE('',*,*,#847,.T.);
#957 = ORIENTED_EDGE('',*,*,#879,.F.);
#958 = PLANE('',#959);
#959 = AXIS2_PLACEMENT_3D('',#960,#961,#962);
#960 = CARTESIAN_POINT('',(0.,-48.5,19.423913043478));
#961 = DIRECTION('',(0.,1.,-1.18E-15));
#962 = DIRECTION('',(0.,1.18E-15,1.));
#963 = ADVANCED_FACE('',(#964),#974,.T.);
#964 = FACE_BOUND('',#965,.T.);
#965 = EDGE_LOOP('',(#966,#967,#968,#969,#970,#971,#972,#973));
#966 = ORIENTED_EDGE('',*,*,#659,.F.);
#967 = ORIENTED_EDGE('',*,*,#479,.F.);
#968 = ORIENTED_EDGE('',*,*,#642,.T.);
#969 = ORIENTED_EDGE('',*,*,#799,.T.);
#970 = ORIENTED_EDGE('',*,*,#887,.F.);
#971 = ORIENTED_EDGE('',*,*,#934,.F.);
#972 = ORIENTED_EDGE('',*,*,#919,.T.);
#973 = ORIENTED_EDGE('',*,*,#816,.T.);
#974 = PLANE('',#975);
#975 = AXIS2_PLACEMENT_3D('',#976,#977,#978);
#976 = CARTESIAN_POINT('',(0.,-8.5,14.119565217391));
#977 = DIRECTION('',(0.,1.,0.));
#978 = DIRECTION('',(0.,-0.,1.));
#979 = ( GEOMETRIC_REPRESENTATION_CONTEXT(3) 
GLOBAL_UNCERTAINTY_ASSIGNED_CONTEXT((#983)) GLOBAL_UNIT_ASSIGNED_CONTEXT
((#980,#981,#982)) REPRESENTATION_CONTEXT('Context #1',
  '3D Context with UNIT and UNCERTAINTY') );
#980 = ( LENGTH_UNIT() NAMED_UNIT(*) SI_UNIT(.MILLI.,.METRE.) );
#981 = ( NAMED_UNIT(*) PLANE_ANGLE_UNIT() SI_UNIT($,.RADIAN.) );
#982 = ( NAMED_UNIT(*) SI_UNIT($,.STERADIAN.) SOLID_ANGLE_UNIT() );
#983 = UNCERTAINTY_MEASURE_WITH_UNIT(LENGTH_MEASURE(5.E-06),#980,
  'distance_accuracy_value','confusion accuracy');
#984 = PRODUCT_RELATED_PRODUCT_CATEGORY('part',$,(#7));
#985 = MECHANICAL_DESIGN_GEOMETRIC_PRESENTATION_REPRESENTATION('',(#986)
  ,#979);
#986 = STYLED_ITEM('color',(#987),#15);
#987 = PRESENTATION_STYLE_ASSIGNMENT((#988,#994));
#988 = SURFACE_STYLE_USAGE(.BOTH.,#989);
#989 = SURFACE_SIDE_STYLE('',(#990));
#990 = SURFACE_STYLE_FILL_AREA(#991);
#991 = FILL_AREA_STYLE('',(#992));
#992 = FILL_AREA_STYLE_COLOUR('',#993);
#993 = COLOUR_RGB('',0.800000010877,0.800000010877,0.901960800373);
#994 = CURVE_STYLE('',#995,POSITIVE_LENGTH_MEASURE(0.1),#996);
#995 = DRAUGHTING_PRE_DEFINED_CURVE_FONT('continuous');
#996 = COLOUR_RGB('',9.803921802644E-02,9.803921802644E-02,
  9.803921802644E-02);
ENDSEC;
END-ISO-10303-21;
