ISO-10303-21;
HEADER;
FILE_DESCRIPTION(('FreeCAD Model'),'2;1');
FILE_NAME('Open CASCADE Shape Model','2026-06-27T11:11:45',('Author'),(
    ''),'Open CASCADE STEP processor 7.8','FreeCAD','Unknown');
FILE_SCHEMA(('AUTOMOTIVE_DESIGN { 1 0 10303 214 1 1 1 1 }'));
ENDSEC;
DATA;
#1 = APPLICATION_PROTOCOL_DEFINITION('international standard',
  'automotive_design',2000,#2);
#2 = APPLICATION_CONTEXT(
  'core data for automotive mechanical design processes');
#3 = SHAPE_DEFINITION_REPRESENTATION(#4,#10);
#4 = PRODUCT_DEFINITION_SHAPE('','',#5);
#5 = PRODUCT_DEFINITION('design','',#6,#9);
#6 = PRODUCT_DEFINITION_FORMATION('','',#7);
#7 = PRODUCT('Body','Body','',(#8));
#8 = PRODUCT_CONTEXT('',#2,'mechanical');
#9 = PRODUCT_DEFINITION_CONTEXT('part definition',#2,'design');
#10 = ADVANCED_BREP_SHAPE_REPRESENTATION('',(#11,#15),#551);
#11 = AXIS2_PLACEMENT_3D('',#12,#13,#14);
#12 = CARTESIAN_POINT('',(0.,0.,0.));
#13 = DIRECTION('',(0.,0.,1.));
#14 = DIRECTION('',(1.,0.,-0.));
#15 = MANIFOLD_SOLID_BREP('',#16);
#16 = CLOSED_SHELL('',(#17,#57,#120,#185,#216,#279,#298,#344,#373,#390,
    #414,#445,#482,#494,#511,#523,#535));
#17 = ADVANCED_FACE('',(#18),#52,.F.);
#18 = FACE_BOUND('',#19,.F.);
#19 = EDGE_LOOP('',(#20,#30,#38,#46));
#20 = ORIENTED_EDGE('',*,*,#21,.T.);
#21 = EDGE_CURVE('',#22,#24,#26,.T.);
#22 = VERTEX_POINT('',#23);
#23 = CARTESIAN_POINT('',(6.,-2.6,0.));
#24 = VERTEX_POINT('',#25);
#25 = CARTESIAN_POINT('',(6.,-2.6,10.));
#26 = LINE('',#27,#28);
#27 = CARTESIAN_POINT('',(6.,-2.6,0.));
#28 = VECTOR('',#29,1.);
#29 = DIRECTION('',(0.,0.,1.));
#30 = ORIENTED_EDGE('',*,*,#31,.T.);
#31 = EDGE_CURVE('',#24,#32,#34,.T.);
#32 = VERTEX_POINT('',#33);
#33 = CARTESIAN_POINT('',(6.,2.6,10.));
#34 = LINE('',#35,#36);
#35 = CARTESIAN_POINT('',(6.,-2.6,10.));
#36 = VECTOR('',#37,1.);
#37 = DIRECTION('',(0.,1.,0.));
#38 = ORIENTED_EDGE('',*,*,#39,.F.);
#39 = EDGE_CURVE('',#40,#32,#42,.T.);
#40 = VERTEX_POINT('',#41);
#41 = CARTESIAN_POINT('',(6.,2.6,0.));
#42 = LINE('',#43,#44);
#43 = CARTESIAN_POINT('',(6.,2.6,0.));
#44 = VECTOR('',#45,1.);
#45 = DIRECTION('',(0.,0.,1.));
#46 = ORIENTED_EDGE('',*,*,#47,.F.);
#47 = EDGE_CURVE('',#22,#40,#48,.T.);
#48 = LINE('',#49,#50);
#49 = CARTESIAN_POINT('',(6.,-2.6,0.));
#50 = VECTOR('',#51,1.);
#51 = DIRECTION('',(0.,1.,0.));
#52 = PLANE('',#53);
#53 = AXIS2_PLACEMENT_3D('',#54,#55,#56);
#54 = CARTESIAN_POINT('',(6.,-2.6,0.));
#55 = DIRECTION('',(-1.,0.,0.));
#56 = DIRECTION('',(0.,1.,0.));
#57 = ADVANCED_FACE('',(#58),#115,.F.);
#58 = FACE_BOUND('',#59,.F.);
#59 = EDGE_LOOP('',(#60,#70,#76,#77,#85,#93,#101,#109));
#60 = ORIENTED_EDGE('',*,*,#61,.F.);
#61 = EDGE_CURVE('',#62,#64,#66,.T.);
#62 = VERTEX_POINT('',#63);
#63 = CARTESIAN_POINT('',(2.5,-2.6,0.));
#64 = VERTEX_POINT('',#65);
#65 = CARTESIAN_POINT('',(2.5,-0.6,0.));
#66 = LINE('',#67,#68);
#67 = CARTESIAN_POINT('',(2.5,-2.6,0.));
#68 = VECTOR('',#69,1.);
#69 = DIRECTION('',(0.,1.,-2.2E-16));
#70 = ORIENTED_EDGE('',*,*,#71,.T.);
#71 = EDGE_CURVE('',#62,#22,#72,.T.);
#72 = LINE('',#73,#74);
#73 = CARTESIAN_POINT('',(-6.,-2.6,0.));
#74 = VECTOR('',#75,1.);
#75 = DIRECTION('',(1.,0.,0.));
#76 = ORIENTED_EDGE('',*,*,#47,.T.);
#77 = ORIENTED_EDGE('',*,*,#78,.T.);
#78 = EDGE_CURVE('',#40,#79,#81,.T.);
#79 = VERTEX_POINT('',#80);
#80 = CARTESIAN_POINT('',(2.5,2.6,-1.E-15));
#81 = LINE('',#82,#83);
#82 = CARTESIAN_POINT('',(6.,2.6,0.));
#83 = VECTOR('',#84,1.);
#84 = DIRECTION('',(-1.,0.,0.));
#85 = ORIENTED_EDGE('',*,*,#86,.F.);
#86 = EDGE_CURVE('',#87,#79,#89,.T.);
#87 = VERTEX_POINT('',#88);
#88 = CARTESIAN_POINT('',(2.5,0.6,0.));
#89 = LINE('',#90,#91);
#90 = CARTESIAN_POINT('',(2.5,-2.6,0.));
#91 = VECTOR('',#92,1.);
#92 = DIRECTION('',(0.,1.,-2.2E-16));
#93 = ORIENTED_EDGE('',*,*,#94,.F.);
#94 = EDGE_CURVE('',#95,#87,#97,.T.);
#95 = VERTEX_POINT('',#96);
#96 = CARTESIAN_POINT('',(4.,0.6,0.));
#97 = LINE('',#98,#99);
#98 = CARTESIAN_POINT('',(4.,0.6,0.));
#99 = VECTOR('',#100,1.);
#100 = DIRECTION('',(-1.,0.,0.));
#101 = ORIENTED_EDGE('',*,*,#102,.F.);
#102 = EDGE_CURVE('',#103,#95,#105,.T.);
#103 = VERTEX_POINT('',#104);
#104 = CARTESIAN_POINT('',(4.,-0.6,0.));
#105 = LINE('',#106,#107);
#106 = CARTESIAN_POINT('',(4.,-0.6,0.));
#107 = VECTOR('',#108,1.);
#108 = DIRECTION('',(0.,1.,0.));
#109 = ORIENTED_EDGE('',*,*,#110,.F.);
#110 = EDGE_CURVE('',#64,#103,#111,.T.);
#111 = LINE('',#112,#113);
#112 = CARTESIAN_POINT('',(-4.,-0.6,0.));
#113 = VECTOR('',#114,1.);
#114 = DIRECTION('',(1.,0.,0.));
#115 = PLANE('',#116);
#116 = AXIS2_PLACEMENT_3D('',#117,#118,#119);
#117 = CARTESIAN_POINT('',(2.E-17,7.E-17,0.));
#118 = DIRECTION('',(0.,0.,1.));
#119 = DIRECTION('',(1.,0.,0.));
#120 = ADVANCED_FACE('',(#121,#146),#180,.T.);
#121 = FACE_BOUND('',#122,.T.);
#122 = EDGE_LOOP('',(#123,#131,#132,#140));
#123 = ORIENTED_EDGE('',*,*,#124,.T.);
#124 = EDGE_CURVE('',#125,#24,#127,.T.);
#125 = VERTEX_POINT('',#126);
#126 = CARTESIAN_POINT('',(-6.,-2.6,10.));
#127 = LINE('',#128,#129);
#128 = CARTESIAN_POINT('',(-6.,-2.6,10.));
#129 = VECTOR('',#130,1.);
#130 = DIRECTION('',(1.,0.,0.));
#131 = ORIENTED_EDGE('',*,*,#31,.T.);
#132 = ORIENTED_EDGE('',*,*,#133,.T.);
#133 = EDGE_CURVE('',#32,#134,#136,.T.);
#134 = VERTEX_POINT('',#135);
#135 = CARTESIAN_POINT('',(-6.,2.6,10.));
#136 = LINE('',#137,#138);
#137 = CARTESIAN_POINT('',(6.,2.6,10.));
#138 = VECTOR('',#139,1.);
#139 = DIRECTION('',(-1.,0.,0.));
#140 = ORIENTED_EDGE('',*,*,#141,.T.);
#141 = EDGE_CURVE('',#134,#125,#142,.T.);
#142 = LINE('',#143,#144);
#143 = CARTESIAN_POINT('',(-6.,2.6,10.));
#144 = VECTOR('',#145,1.);
#145 = DIRECTION('',(0.,-1.,0.));
#146 = FACE_BOUND('',#147,.F.);
#147 = EDGE_LOOP('',(#148,#158,#166,#174));
#148 = ORIENTED_EDGE('',*,*,#149,.T.);
#149 = EDGE_CURVE('',#150,#152,#154,.T.);
#150 = VERTEX_POINT('',#151);
#151 = CARTESIAN_POINT('',(-4.,-0.6,10.));
#152 = VERTEX_POINT('',#153);
#153 = CARTESIAN_POINT('',(4.,-0.6,10.));
#154 = LINE('',#155,#156);
#155 = CARTESIAN_POINT('',(-4.,-0.6,10.));
#156 = VECTOR('',#157,1.);
#157 = DIRECTION('',(1.,0.,0.));
#158 = ORIENTED_EDGE('',*,*,#159,.T.);
#159 = EDGE_CURVE('',#152,#160,#162,.T.);
#160 = VERTEX_POINT('',#161);
#161 = CARTESIAN_POINT('',(4.,0.6,10.));
#162 = LINE('',#163,#164);
#163 = CARTESIAN_POINT('',(4.,-0.6,10.));
#164 = VECTOR('',#165,1.);
#165 = DIRECTION('',(0.,1.,0.));
#166 = ORIENTED_EDGE('',*,*,#167,.T.);
#167 = EDGE_CURVE('',#160,#168,#170,.T.);
#168 = VERTEX_POINT('',#169);
#169 = CARTESIAN_POINT('',(-4.,0.6,10.));
#170 = LINE('',#171,#172);
#171 = CARTESIAN_POINT('',(4.,0.6,10.));
#172 = VECTOR('',#173,1.);
#173 = DIRECTION('',(-1.,0.,0.));
#174 = ORIENTED_EDGE('',*,*,#175,.T.);
#175 = EDGE_CURVE('',#168,#150,#176,.T.);
#176 = LINE('',#177,#178);
#177 = CARTESIAN_POINT('',(-4.,0.6,10.));
#178 = VECTOR('',#179,1.);
#179 = DIRECTION('',(0.,-1.,0.));
#180 = PLANE('',#181);
#181 = AXIS2_PLACEMENT_3D('',#182,#183,#184);
#182 = CARTESIAN_POINT('',(2.E-17,7.E-17,10.));
#183 = DIRECTION('',(0.,0.,1.));
#184 = DIRECTION('',(1.,0.,0.));
#185 = ADVANCED_FACE('',(#186),#211,.F.);
#186 = FACE_BOUND('',#187,.F.);
#187 = EDGE_LOOP('',(#188,#196,#197,#205));
#188 = ORIENTED_EDGE('',*,*,#189,.T.);
#189 = EDGE_CURVE('',#190,#134,#192,.T.);
#190 = VERTEX_POINT('',#191);
#191 = CARTESIAN_POINT('',(-6.,2.6,0.));
#192 = LINE('',#193,#194);
#193 = CARTESIAN_POINT('',(-6.,2.6,0.));
#194 = VECTOR('',#195,1.);
#195 = DIRECTION('',(0.,0.,1.));
#196 = ORIENTED_EDGE('',*,*,#141,.T.);
#197 = ORIENTED_EDGE('',*,*,#198,.F.);
#198 = EDGE_CURVE('',#199,#125,#201,.T.);
#199 = VERTEX_POINT('',#200);
#200 = CARTESIAN_POINT('',(-6.,-2.6,0.));
#201 = LINE('',#202,#203);
#202 = CARTESIAN_POINT('',(-6.,-2.6,0.));
#203 = VECTOR('',#204,1.);
#204 = DIRECTION('',(0.,0.,1.));
#205 = ORIENTED_EDGE('',*,*,#206,.F.);
#206 = EDGE_CURVE('',#190,#199,#207,.T.);
#207 = LINE('',#208,#209);
#208 = CARTESIAN_POINT('',(-6.,2.6,0.));
#209 = VECTOR('',#210,1.);
#210 = DIRECTION('',(0.,-1.,0.));
#211 = PLANE('',#212);
#212 = AXIS2_PLACEMENT_3D('',#213,#214,#215);
#213 = CARTESIAN_POINT('',(-6.,2.6,0.));
#214 = DIRECTION('',(1.,0.,0.));
#215 = DIRECTION('',(0.,-1.,0.));
#216 = ADVANCED_FACE('',(#217),#274,.F.);
#217 = FACE_BOUND('',#218,.F.);
#218 = EDGE_LOOP('',(#219,#220,#228,#236,#244,#252,#260,#268));
#219 = ORIENTED_EDGE('',*,*,#206,.T.);
#220 = ORIENTED_EDGE('',*,*,#221,.T.);
#221 = EDGE_CURVE('',#199,#222,#224,.T.);
#222 = VERTEX_POINT('',#223);
#223 = CARTESIAN_POINT('',(-2.5,-2.6,0.));
#224 = LINE('',#225,#226);
#225 = CARTESIAN_POINT('',(-6.,-2.6,0.));
#226 = VECTOR('',#227,1.);
#227 = DIRECTION('',(1.,0.,0.));
#228 = ORIENTED_EDGE('',*,*,#229,.T.);
#229 = EDGE_CURVE('',#222,#230,#232,.T.);
#230 = VERTEX_POINT('',#231);
#231 = CARTESIAN_POINT('',(-2.5,-0.6,-0.));
#232 = LINE('',#233,#234);
#233 = CARTESIAN_POINT('',(-2.5,-2.6,0.));
#234 = VECTOR('',#235,1.);
#235 = DIRECTION('',(0.,1.,-2.2E-16));
#236 = ORIENTED_EDGE('',*,*,#237,.F.);
#237 = EDGE_CURVE('',#238,#230,#240,.T.);
#238 = VERTEX_POINT('',#239);
#239 = CARTESIAN_POINT('',(-4.,-0.6,0.));
#240 = LINE('',#241,#242);
#241 = CARTESIAN_POINT('',(-4.,-0.6,0.));
#242 = VECTOR('',#243,1.);
#243 = DIRECTION('',(1.,0.,0.));
#244 = ORIENTED_EDGE('',*,*,#245,.F.);
#245 = EDGE_CURVE('',#246,#238,#248,.T.);
#246 = VERTEX_POINT('',#247);
#247 = CARTESIAN_POINT('',(-4.,0.6,0.));
#248 = LINE('',#249,#250);
#249 = CARTESIAN_POINT('',(-4.,0.6,0.));
#250 = VECTOR('',#251,1.);
#251 = DIRECTION('',(0.,-1.,0.));
#252 = ORIENTED_EDGE('',*,*,#253,.F.);
#253 = EDGE_CURVE('',#254,#246,#256,.T.);
#254 = VERTEX_POINT('',#255);
#255 = CARTESIAN_POINT('',(-2.5,0.6,0.));
#256 = LINE('',#257,#258);
#257 = CARTESIAN_POINT('',(4.,0.6,0.));
#258 = VECTOR('',#259,1.);
#259 = DIRECTION('',(-1.,0.,0.));
#260 = ORIENTED_EDGE('',*,*,#261,.T.);
#261 = EDGE_CURVE('',#254,#262,#264,.T.);
#262 = VERTEX_POINT('',#263);
#263 = CARTESIAN_POINT('',(-2.5,2.6,-1.E-15));
#264 = LINE('',#265,#266);
#265 = CARTESIAN_POINT('',(-2.5,-2.6,0.));
#266 = VECTOR('',#267,1.);
#267 = DIRECTION('',(0.,1.,-2.2E-16));
#268 = ORIENTED_EDGE('',*,*,#269,.T.);
#269 = EDGE_CURVE('',#262,#190,#270,.T.);
#270 = LINE('',#271,#272);
#271 = CARTESIAN_POINT('',(6.,2.6,0.));
#272 = VECTOR('',#273,1.);
#273 = DIRECTION('',(-1.,0.,0.));
#274 = PLANE('',#275);
#275 = AXIS2_PLACEMENT_3D('',#276,#277,#278);
#276 = CARTESIAN_POINT('',(2.E-17,7.E-17,0.));
#277 = DIRECTION('',(0.,0.,1.));
#278 = DIRECTION('',(1.,0.,0.));
#279 = ADVANCED_FACE('',(#280),#293,.F.);
#280 = FACE_BOUND('',#281,.F.);
#281 = EDGE_LOOP('',(#282,#283,#284,#285,#286,#292));
#282 = ORIENTED_EDGE('',*,*,#39,.T.);
#283 = ORIENTED_EDGE('',*,*,#133,.T.);
#284 = ORIENTED_EDGE('',*,*,#189,.F.);
#285 = ORIENTED_EDGE('',*,*,#269,.F.);
#286 = ORIENTED_EDGE('',*,*,#287,.F.);
#287 = EDGE_CURVE('',#79,#262,#288,.T.);
#288 = LINE('',#289,#290);
#289 = CARTESIAN_POINT('',(6.,2.6,0.));
#290 = VECTOR('',#291,1.);
#291 = DIRECTION('',(-1.,0.,0.));
#292 = ORIENTED_EDGE('',*,*,#78,.F.);
#293 = PLANE('',#294);
#294 = AXIS2_PLACEMENT_3D('',#295,#296,#297);
#295 = CARTESIAN_POINT('',(6.,2.6,0.));
#296 = DIRECTION('',(0.,-1.,0.));
#297 = DIRECTION('',(-1.,0.,0.));
#298 = ADVANCED_FACE('',(#299),#339,.T.);
#299 = FACE_BOUND('',#300,.T.);
#300 = EDGE_LOOP('',(#301,#302,#308,#309,#317,#325,#333));
#301 = ORIENTED_EDGE('',*,*,#229,.T.);
#302 = ORIENTED_EDGE('',*,*,#303,.T.);
#303 = EDGE_CURVE('',#230,#254,#304,.T.);
#304 = LINE('',#305,#306);
#305 = CARTESIAN_POINT('',(-2.5,-2.6,0.));
#306 = VECTOR('',#307,1.);
#307 = DIRECTION('',(0.,1.,-2.2E-16));
#308 = ORIENTED_EDGE('',*,*,#261,.T.);
#309 = ORIENTED_EDGE('',*,*,#310,.T.);
#310 = EDGE_CURVE('',#262,#311,#313,.T.);
#311 = VERTEX_POINT('',#312);
#312 = CARTESIAN_POINT('',(-2.5,72.,-1.7E-14));
#313 = LINE('',#314,#315);
#314 = CARTESIAN_POINT('',(-2.5,-2.6,0.));
#315 = VECTOR('',#316,1.);
#316 = DIRECTION('',(0.,1.,-2.2E-16));
#317 = ORIENTED_EDGE('',*,*,#318,.T.);
#318 = EDGE_CURVE('',#311,#319,#321,.T.);
#319 = VERTEX_POINT('',#320);
#320 = CARTESIAN_POINT('',(-2.5,72.,-1.5));
#321 = LINE('',#322,#323);
#322 = CARTESIAN_POINT('',(-2.5,72.,-1.7E-14));
#323 = VECTOR('',#324,1.);
#324 = DIRECTION('',(0.,0.,-1.));
#325 = ORIENTED_EDGE('',*,*,#326,.F.);
#326 = EDGE_CURVE('',#327,#319,#329,.T.);
#327 = VERTEX_POINT('',#328);
#328 = CARTESIAN_POINT('',(-2.5,-2.6,-1.5));
#329 = LINE('',#330,#331);
#330 = CARTESIAN_POINT('',(-2.5,-2.6,-1.5));
#331 = VECTOR('',#332,1.);
#332 = DIRECTION('',(0.,1.,-2.2E-16));
#333 = ORIENTED_EDGE('',*,*,#334,.F.);
#334 = EDGE_CURVE('',#222,#327,#335,.T.);
#335 = LINE('',#336,#337);
#336 = CARTESIAN_POINT('',(-2.5,-2.6,0.));
#337 = VECTOR('',#338,1.);
#338 = DIRECTION('',(0.,0.,-1.));
#339 = PLANE('',#340);
#340 = AXIS2_PLACEMENT_3D('',#341,#342,#343);
#341 = CARTESIAN_POINT('',(-2.5,-2.6,0.));
#342 = DIRECTION('',(-1.,0.,0.));
#343 = DIRECTION('',(-0.,-2.2E-16,-1.));
#344 = ADVANCED_FACE('',(#345),#368,.T.);
#345 = FACE_BOUND('',#346,.T.);
#346 = EDGE_LOOP('',(#347,#353,#354,#360,#361,#367));
#347 = ORIENTED_EDGE('',*,*,#348,.T.);
#348 = EDGE_CURVE('',#95,#160,#349,.T.);
#349 = LINE('',#350,#351);
#350 = CARTESIAN_POINT('',(4.,0.6,0.));
#351 = VECTOR('',#352,1.);
#352 = DIRECTION('',(0.,0.,1.));
#353 = ORIENTED_EDGE('',*,*,#167,.T.);
#354 = ORIENTED_EDGE('',*,*,#355,.F.);
#355 = EDGE_CURVE('',#246,#168,#356,.T.);
#356 = LINE('',#357,#358);
#357 = CARTESIAN_POINT('',(-4.,0.6,0.));
#358 = VECTOR('',#359,1.);
#359 = DIRECTION('',(0.,0.,1.));
#360 = ORIENTED_EDGE('',*,*,#253,.F.);
#361 = ORIENTED_EDGE('',*,*,#362,.F.);
#362 = EDGE_CURVE('',#87,#254,#363,.T.);
#363 = LINE('',#364,#365);
#364 = CARTESIAN_POINT('',(4.,0.6,0.));
#365 = VECTOR('',#366,1.);
#366 = DIRECTION('',(-1.,0.,0.));
#367 = ORIENTED_EDGE('',*,*,#94,.F.);
#368 = PLANE('',#369);
#369 = AXIS2_PLACEMENT_3D('',#370,#371,#372);
#370 = CARTESIAN_POINT('',(4.,0.6,0.));
#371 = DIRECTION('',(0.,-1.,0.));
#372 = DIRECTION('',(-1.,0.,0.));
#373 = ADVANCED_FACE('',(#374),#385,.T.);
#374 = FACE_BOUND('',#375,.T.);
#375 = EDGE_LOOP('',(#376,#377,#378,#384));
#376 = ORIENTED_EDGE('',*,*,#355,.T.);
#377 = ORIENTED_EDGE('',*,*,#175,.T.);
#378 = ORIENTED_EDGE('',*,*,#379,.F.);
#379 = EDGE_CURVE('',#238,#150,#380,.T.);
#380 = LINE('',#381,#382);
#381 = CARTESIAN_POINT('',(-4.,-0.6,0.));
#382 = VECTOR('',#383,1.);
#383 = DIRECTION('',(0.,0.,1.));
#384 = ORIENTED_EDGE('',*,*,#245,.F.);
#385 = PLANE('',#386);
#386 = AXIS2_PLACEMENT_3D('',#387,#388,#389);
#387 = CARTESIAN_POINT('',(-4.,0.6,0.));
#388 = DIRECTION('',(1.,0.,0.));
#389 = DIRECTION('',(0.,-1.,0.));
#390 = ADVANCED_FACE('',(#391),#409,.T.);
#391 = FACE_BOUND('',#392,.T.);
#392 = EDGE_LOOP('',(#393,#394,#395,#401,#402,#408));
#393 = ORIENTED_EDGE('',*,*,#379,.T.);
#394 = ORIENTED_EDGE('',*,*,#149,.T.);
#395 = ORIENTED_EDGE('',*,*,#396,.F.);
#396 = EDGE_CURVE('',#103,#152,#397,.T.);
#397 = LINE('',#398,#399);
#398 = CARTESIAN_POINT('',(4.,-0.6,0.));
#399 = VECTOR('',#400,1.);
#400 = DIRECTION('',(0.,0.,1.));
#401 = ORIENTED_EDGE('',*,*,#110,.F.);
#402 = ORIENTED_EDGE('',*,*,#403,.F.);
#403 = EDGE_CURVE('',#230,#64,#404,.T.);
#404 = LINE('',#405,#406);
#405 = CARTESIAN_POINT('',(-4.,-0.6,0.));
#406 = VECTOR('',#407,1.);
#407 = DIRECTION('',(1.,0.,0.));
#408 = ORIENTED_EDGE('',*,*,#237,.F.);
#409 = PLANE('',#410);
#410 = AXIS2_PLACEMENT_3D('',#411,#412,#413);
#411 = CARTESIAN_POINT('',(-4.,-0.6,0.));
#412 = DIRECTION('',(0.,1.,0.));
#413 = DIRECTION('',(1.,0.,0.));
#414 = ADVANCED_FACE('',(#415),#440,.T.);
#415 = FACE_BOUND('',#416,.T.);
#416 = EDGE_LOOP('',(#417,#418,#426,#434));
#417 = ORIENTED_EDGE('',*,*,#326,.T.);
#418 = ORIENTED_EDGE('',*,*,#419,.T.);
#419 = EDGE_CURVE('',#319,#420,#422,.T.);
#420 = VERTEX_POINT('',#421);
#421 = CARTESIAN_POINT('',(2.5,72.,-1.5));
#422 = LINE('',#423,#424);
#423 = CARTESIAN_POINT('',(-2.5,72.,-1.5));
#424 = VECTOR('',#425,1.);
#425 = DIRECTION('',(1.,0.,0.));
#426 = ORIENTED_EDGE('',*,*,#427,.F.);
#427 = EDGE_CURVE('',#428,#420,#430,.T.);
#428 = VERTEX_POINT('',#429);
#429 = CARTESIAN_POINT('',(2.5,-2.6,-1.5));
#430 = LINE('',#431,#432);
#431 = CARTESIAN_POINT('',(2.5,-2.6,-1.5));
#432 = VECTOR('',#433,1.);
#433 = DIRECTION('',(0.,1.,-2.2E-16));
#434 = ORIENTED_EDGE('',*,*,#435,.F.);
#435 = EDGE_CURVE('',#327,#428,#436,.T.);
#436 = LINE('',#437,#438);
#437 = CARTESIAN_POINT('',(-2.5,-2.6,-1.5));
#438 = VECTOR('',#439,1.);
#439 = DIRECTION('',(1.,0.,0.));
#440 = PLANE('',#441);
#441 = AXIS2_PLACEMENT_3D('',#442,#443,#444);
#442 = CARTESIAN_POINT('',(-2.5,-2.6,-1.5));
#443 = DIRECTION('',(0.,-2.2E-16,-1.));
#444 = DIRECTION('',(1.,0.,0.));
#445 = ADVANCED_FACE('',(#446),#477,.T.);
#446 = FACE_BOUND('',#447,.T.);
#447 = EDGE_LOOP('',(#448,#449,#457,#463,#464,#470,#471));
#448 = ORIENTED_EDGE('',*,*,#427,.T.);
#449 = ORIENTED_EDGE('',*,*,#450,.T.);
#450 = EDGE_CURVE('',#420,#451,#453,.T.);
#451 = VERTEX_POINT('',#452);
#452 = CARTESIAN_POINT('',(2.5,72.,-1.7E-14));
#453 = LINE('',#454,#455);
#454 = CARTESIAN_POINT('',(2.5,72.,-1.5));
#455 = VECTOR('',#456,1.);
#456 = DIRECTION('',(0.,0.,1.));
#457 = ORIENTED_EDGE('',*,*,#458,.F.);
#458 = EDGE_CURVE('',#79,#451,#459,.T.);
#459 = LINE('',#460,#461);
#460 = CARTESIAN_POINT('',(2.5,-2.6,0.));
#461 = VECTOR('',#462,1.);
#462 = DIRECTION('',(0.,1.,-2.2E-16));
#463 = ORIENTED_EDGE('',*,*,#86,.F.);
#464 = ORIENTED_EDGE('',*,*,#465,.F.);
#465 = EDGE_CURVE('',#64,#87,#466,.T.);
#466 = LINE('',#467,#468);
#467 = CARTESIAN_POINT('',(2.5,-2.6,0.));
#468 = VECTOR('',#469,1.);
#469 = DIRECTION('',(0.,1.,-2.2E-16));
#470 = ORIENTED_EDGE('',*,*,#61,.F.);
#471 = ORIENTED_EDGE('',*,*,#472,.F.);
#472 = EDGE_CURVE('',#428,#62,#473,.T.);
#473 = LINE('',#474,#475);
#474 = CARTESIAN_POINT('',(2.5,-2.6,-1.5));
#475 = VECTOR('',#476,1.);
#476 = DIRECTION('',(0.,0.,1.));
#477 = PLANE('',#478);
#478 = AXIS2_PLACEMENT_3D('',#479,#480,#481);
#479 = CARTESIAN_POINT('',(2.5,-2.6,-1.5));
#480 = DIRECTION('',(1.,0.,0.));
#481 = DIRECTION('',(-0.,2.2E-16,1.));
#482 = ADVANCED_FACE('',(#483),#489,.T.);
#483 = FACE_BOUND('',#484,.T.);
#484 = EDGE_LOOP('',(#485,#486,#487,#488));
#485 = ORIENTED_EDGE('',*,*,#396,.T.);
#486 = ORIENTED_EDGE('',*,*,#159,.T.);
#487 = ORIENTED_EDGE('',*,*,#348,.F.);
#488 = ORIENTED_EDGE('',*,*,#102,.F.);
#489 = PLANE('',#490);
#490 = AXIS2_PLACEMENT_3D('',#491,#492,#493);
#491 = CARTESIAN_POINT('',(4.,-0.6,0.));
#492 = DIRECTION('',(-1.,0.,0.));
#493 = DIRECTION('',(0.,1.,0.));
#494 = ADVANCED_FACE('',(#495),#506,.T.);
#495 = FACE_BOUND('',#496,.T.);
#496 = EDGE_LOOP('',(#497,#498,#499,#505));
#497 = ORIENTED_EDGE('',*,*,#287,.F.);
#498 = ORIENTED_EDGE('',*,*,#458,.T.);
#499 = ORIENTED_EDGE('',*,*,#500,.T.);
#500 = EDGE_CURVE('',#451,#311,#501,.T.);
#501 = LINE('',#502,#503);
#502 = CARTESIAN_POINT('',(2.5,72.,-1.7E-14));
#503 = VECTOR('',#504,1.);
#504 = DIRECTION('',(-1.,0.,0.));
#505 = ORIENTED_EDGE('',*,*,#310,.F.);
#506 = PLANE('',#507);
#507 = AXIS2_PLACEMENT_3D('',#508,#509,#510);
#508 = CARTESIAN_POINT('',(2.5,-2.6,0.));
#509 = DIRECTION('',(0.,2.2E-16,1.));
#510 = DIRECTION('',(-1.,0.,0.));
#511 = ADVANCED_FACE('',(#512),#518,.T.);
#512 = FACE_BOUND('',#513,.T.);
#513 = EDGE_LOOP('',(#514,#515,#516,#517));
#514 = ORIENTED_EDGE('',*,*,#403,.T.);
#515 = ORIENTED_EDGE('',*,*,#465,.T.);
#516 = ORIENTED_EDGE('',*,*,#362,.T.);
#517 = ORIENTED_EDGE('',*,*,#303,.F.);
#518 = PLANE('',#519);
#519 = AXIS2_PLACEMENT_3D('',#520,#521,#522);
#520 = CARTESIAN_POINT('',(2.5,-2.6,0.));
#521 = DIRECTION('',(0.,2.2E-16,1.));
#522 = DIRECTION('',(-1.,0.,0.));
#523 = ADVANCED_FACE('',(#524),#530,.T.);
#524 = FACE_BOUND('',#525,.F.);
#525 = EDGE_LOOP('',(#526,#527,#528,#529));
#526 = ORIENTED_EDGE('',*,*,#419,.T.);
#527 = ORIENTED_EDGE('',*,*,#450,.T.);
#528 = ORIENTED_EDGE('',*,*,#500,.T.);
#529 = ORIENTED_EDGE('',*,*,#318,.T.);
#530 = PLANE('',#531);
#531 = AXIS2_PLACEMENT_3D('',#532,#533,#534);
#532 = CARTESIAN_POINT('',(2.E-16,72.,-0.75));
#533 = DIRECTION('',(0.,1.,-3.E-16));
#534 = DIRECTION('',(0.,3.E-16,1.));
#535 = ADVANCED_FACE('',(#536),#546,.T.);
#536 = FACE_BOUND('',#537,.T.);
#537 = EDGE_LOOP('',(#538,#539,#540,#541,#542,#543,#544,#545));
#538 = ORIENTED_EDGE('',*,*,#198,.F.);
#539 = ORIENTED_EDGE('',*,*,#221,.T.);
#540 = ORIENTED_EDGE('',*,*,#334,.T.);
#541 = ORIENTED_EDGE('',*,*,#435,.T.);
#542 = ORIENTED_EDGE('',*,*,#472,.T.);
#543 = ORIENTED_EDGE('',*,*,#71,.T.);
#544 = ORIENTED_EDGE('',*,*,#21,.T.);
#545 = ORIENTED_EDGE('',*,*,#124,.F.);
#546 = PLANE('',#547);
#547 = AXIS2_PLACEMENT_3D('',#548,#549,#550);
#548 = CARTESIAN_POINT('',(0.,-2.6,4.473404255319));
#549 = DIRECTION('',(-0.,-1.,-0.));
#550 = DIRECTION('',(0.,0.,-1.));
#551 = ( GEOMETRIC_REPRESENTATION_CONTEXT(3) 
GLOBAL_UNCERTAINTY_ASSIGNED_CONTEXT((#555)) GLOBAL_UNIT_ASSIGNED_CONTEXT
((#552,#553,#554)) REPRESENTATION_CONTEXT('Context #1',
  '3D Context with UNIT and UNCERTAINTY') );
#552 = ( LENGTH_UNIT() NAMED_UNIT(*) SI_UNIT(.MILLI.,.METRE.) );
#553 = ( NAMED_UNIT(*) PLANE_ANGLE_UNIT() SI_UNIT($,.RADIAN.) );
#554 = ( NAMED_UNIT(*) SI_UNIT($,.STERADIAN.) SOLID_ANGLE_UNIT() );
#555 = UNCERTAINTY_MEASURE_WITH_UNIT(LENGTH_MEASURE(1.E-07),#552,
  'distance_accuracy_value','confusion accuracy');
#556 = PRODUCT_RELATED_PRODUCT_CATEGORY('part',$,(#7));
#557 = MECHANICAL_DESIGN_GEOMETRIC_PRESENTATION_REPRESENTATION('',(#558)
  ,#551);
#558 = STYLED_ITEM('color',(#559),#15);
#559 = PRESENTATION_STYLE_ASSIGNMENT((#560,#566));
#560 = SURFACE_STYLE_USAGE(.BOTH.,#561);
#561 = SURFACE_SIDE_STYLE('',(#562));
#562 = SURFACE_STYLE_FILL_AREA(#563);
#563 = FILL_AREA_STYLE('',(#564));
#564 = FILL_AREA_STYLE_COLOUR('',#565);
#565 = COLOUR_RGB('',0.678431390124,0.709803936702,0.741176476869);
#566 = CURVE_STYLE('',#567,POSITIVE_LENGTH_MEASURE(0.1),#568);
#567 = DRAUGHTING_PRE_DEFINED_CURVE_FONT('continuous');
#568 = COLOUR_RGB('',9.803921802644E-02,9.803921802644E-02,
  9.803921802644E-02);
ENDSEC;
END-ISO-10303-21;
