ISO-10303-21;
HEADER;
FILE_DESCRIPTION(('FreeCAD Model'),'2;1');
FILE_NAME('Open CASCADE Shape Model','2026-07-05T18:34:56',('Author'),(
    ''),'Open CASCADE STEP processor 7.8','FreeCAD','Unknown');
FILE_SCHEMA(('AUTOMOTIVE_DESIGN { 1 0 10303 214 1 1 1 1 }'));
ENDSEC;
DATA;
#1 = APPLICATION_PROTOCOL_DEFINITION('international standard',
  'automotive_design',2000,#2);
#2 = APPLICATION_CONTEXT(
  'core data for automotive mechanical design processes');
#3 = SHAPE_DEFINITION_REPRESENTATION(#4,#10);
#4 = PRODUCT_DEFINITION_SHAPE('','',#5);
#5 = PRODUCT_DEFINITION('design','',#6,#9);
#6 = PRODUCT_DEFINITION_FORMATION('','',#7);
#7 = PRODUCT('Body','Body','',(#8));
#8 = PRODUCT_CONTEXT('',#2,'mechanical');
#9 = PRODUCT_DEFINITION_CONTEXT('part definition',#2,'design');
#10 = ADVANCED_BREP_SHAPE_REPRESENTATION('',(#11,#15),#1533);
#11 = AXIS2_PLACEMENT_3D('',#12,#13,#14);
#12 = CARTESIAN_POINT('',(0.,0.,0.));
#13 = DIRECTION('',(0.,0.,1.));
#14 = DIRECTION('',(1.,0.,-0.));
#15 = MANIFOLD_SOLID_BREP('',#16);
#16 = CLOSED_SHELL('',(#17,#57,#330,#355,#380,#509,#526,#543,#560,#577,
    #589,#606,#623,#661,#700,#724,#748,#780,#811,#850,#874,#898,#930,
    #961,#1000,#1024,#1048,#1072,#1103,#1127,#1151,#1183,#1200,#1217,
    #1243,#1267,#1291,#1310,#1322,#1348,#1372,#1391,#1403,#1427,#1451,
    #1470,#1496,#1513));
#17 = ADVANCED_FACE('',(#18),#52,.F.);
#18 = FACE_BOUND('',#19,.F.);
#19 = EDGE_LOOP('',(#20,#30,#38,#46));
#20 = ORIENTED_EDGE('',*,*,#21,.F.);
#21 = EDGE_CURVE('',#22,#24,#26,.T.);
#22 = VERTEX_POINT('',#23);
#23 = CARTESIAN_POINT('',(3.,0.,0.));
#24 = VERTEX_POINT('',#25);
#25 = CARTESIAN_POINT('',(193.5,0.,0.));
#26 = LINE('',#27,#28);
#27 = CARTESIAN_POINT('',(0.,0.,0.));
#28 = VECTOR('',#29,1.);
#29 = DIRECTION('',(1.,0.,0.));
#30 = ORIENTED_EDGE('',*,*,#31,.T.);
#31 = EDGE_CURVE('',#22,#32,#34,.T.);
#32 = VERTEX_POINT('',#33);
#33 = CARTESIAN_POINT('',(3.,-4.,0.));
#34 = LINE('',#35,#36);
#35 = CARTESIAN_POINT('',(3.,0.,-4.4E-16));
#36 = VECTOR('',#37,1.);
#37 = DIRECTION('',(0.,-1.,2.2E-16));
#38 = ORIENTED_EDGE('',*,*,#39,.T.);
#39 = EDGE_CURVE('',#32,#40,#42,.T.);
#40 = VERTEX_POINT('',#41);
#41 = CARTESIAN_POINT('',(193.5,-4.,0.));
#42 = LINE('',#43,#44);
#43 = CARTESIAN_POINT('',(0.,-4.,1.E-15));
#44 = VECTOR('',#45,1.);
#45 = DIRECTION('',(1.,0.,0.));
#46 = ORIENTED_EDGE('',*,*,#47,.F.);
#47 = EDGE_CURVE('',#24,#40,#48,.T.);
#48 = LINE('',#49,#50);
#49 = CARTESIAN_POINT('',(193.5,0.,-4.4E-16));
#50 = VECTOR('',#51,1.);
#51 = DIRECTION('',(0.,-1.,2.2E-16));
#52 = PLANE('',#53);
#53 = AXIS2_PLACEMENT_3D('',#54,#55,#56);
#54 = CARTESIAN_POINT('',(0.,0.,0.));
#55 = DIRECTION('',(0.,2.2E-16,1.));
#56 = DIRECTION('',(1.,0.,0.));
#57 = ADVANCED_FACE('',(#58,#119,#130,#141,#303,#314),#325,.T.);
#58 = FACE_BOUND('',#59,.T.);
#59 = EDGE_LOOP('',(#60,#61,#70,#78,#87,#95,#104,#112));
#60 = ORIENTED_EDGE('',*,*,#21,.F.);
#61 = ORIENTED_EDGE('',*,*,#62,.T.);
#62 = EDGE_CURVE('',#22,#63,#65,.T.);
#63 = VERTEX_POINT('',#64);
#64 = CARTESIAN_POINT('',(0.,1.E-15,3.));
#65 = CIRCLE('',#66,3.);
#66 = AXIS2_PLACEMENT_3D('',#67,#68,#69);
#67 = CARTESIAN_POINT('',(3.,7.35E-15,3.));
#68 = DIRECTION('',(0.,1.,-2.2E-16));
#69 = DIRECTION('',(0.,-2.2E-16,-1.));
#70 = ORIENTED_EDGE('',*,*,#71,.F.);
#71 = EDGE_CURVE('',#72,#63,#74,.T.);
#72 = VERTEX_POINT('',#73);
#73 = CARTESIAN_POINT('',(0.,1.5E-14,66.5));
#74 = LINE('',#75,#76);
#75 = CARTESIAN_POINT('',(0.,0.,69.5));
#76 = VECTOR('',#77,1.);
#77 = DIRECTION('',(0.,0.,-1.));
#78 = ORIENTED_EDGE('',*,*,#79,.T.);
#79 = EDGE_CURVE('',#72,#80,#82,.T.);
#80 = VERTEX_POINT('',#81);
#81 = CARTESIAN_POINT('',(3.,1.5E-14,69.5));
#82 = CIRCLE('',#83,3.);
#83 = AXIS2_PLACEMENT_3D('',#84,#85,#86);
#84 = CARTESIAN_POINT('',(3.,7.35E-15,66.5));
#85 = DIRECTION('',(0.,1.,-2.2E-16));
#86 = DIRECTION('',(0.,-2.2E-16,-1.));
#87 = ORIENTED_EDGE('',*,*,#88,.F.);
#88 = EDGE_CURVE('',#89,#80,#91,.T.);
#89 = VERTEX_POINT('',#90);
#90 = CARTESIAN_POINT('',(193.5,1.5E-14,69.5));
#91 = LINE('',#92,#93);
#92 = CARTESIAN_POINT('',(196.5,0.,69.5));
#93 = VECTOR('',#94,1.);
#94 = DIRECTION('',(-1.,0.,0.));
#95 = ORIENTED_EDGE('',*,*,#96,.F.);
#96 = EDGE_CURVE('',#97,#89,#99,.T.);
#97 = VERTEX_POINT('',#98);
#98 = CARTESIAN_POINT('',(196.5,1.5E-14,66.5));
#99 = CIRCLE('',#100,3.);
#100 = AXIS2_PLACEMENT_3D('',#101,#102,#103);
#101 = CARTESIAN_POINT('',(193.5,7.35E-15,66.5));
#102 = DIRECTION('',(0.,-1.,2.2E-16));
#103 = DIRECTION('',(0.,-2.2E-16,-1.));
#104 = ORIENTED_EDGE('',*,*,#105,.F.);
#105 = EDGE_CURVE('',#106,#97,#108,.T.);
#106 = VERTEX_POINT('',#107);
#107 = CARTESIAN_POINT('',(196.5,1.E-15,3.));
#108 = LINE('',#109,#110);
#109 = CARTESIAN_POINT('',(196.5,0.,0.));
#110 = VECTOR('',#111,1.);
#111 = DIRECTION('',(0.,0.,1.));
#112 = ORIENTED_EDGE('',*,*,#113,.F.);
#113 = EDGE_CURVE('',#24,#106,#114,.T.);
#114 = CIRCLE('',#115,3.);
#115 = AXIS2_PLACEMENT_3D('',#116,#117,#118);
#116 = CARTESIAN_POINT('',(193.5,7.35E-15,3.));
#117 = DIRECTION('',(0.,-1.,2.2E-16));
#118 = DIRECTION('',(0.,-2.2E-16,-1.));
#119 = FACE_BOUND('',#120,.T.);
#120 = EDGE_LOOP('',(#121));
#121 = ORIENTED_EDGE('',*,*,#122,.F.);
#122 = EDGE_CURVE('',#123,#123,#125,.T.);
#123 = VERTEX_POINT('',#124);
#124 = CARTESIAN_POINT('',(1.5,8.E-15,19.25));
#125 = CIRCLE('',#126,1.75);
#126 = AXIS2_PLACEMENT_3D('',#127,#128,#129);
#127 = CARTESIAN_POINT('',(3.25,7.55E-15,19.25));
#128 = DIRECTION('',(0.,1.,-2.2E-16));
#129 = DIRECTION('',(-1.,0.,0.));
#130 = FACE_BOUND('',#131,.T.);
#131 = EDGE_LOOP('',(#132));
#132 = ORIENTED_EDGE('',*,*,#133,.F.);
#133 = EDGE_CURVE('',#134,#134,#136,.T.);
#134 = VERTEX_POINT('',#135);
#135 = CARTESIAN_POINT('',(1.5,7.E-15,66.25));
#136 = CIRCLE('',#137,1.75);
#137 = AXIS2_PLACEMENT_3D('',#138,#139,#140);
#138 = CARTESIAN_POINT('',(3.25,7.55E-15,66.25));
#139 = DIRECTION('',(0.,1.,-2.2E-16));
#140 = DIRECTION('',(-1.,0.,0.));
#141 = FACE_BOUND('',#142,.T.);
#142 = EDGE_LOOP('',(#143,#153,#161,#169,#177,#185,#193,#201,#209,#217,
    #225,#233,#241,#249,#257,#265,#273,#281,#289,#297));
#143 = ORIENTED_EDGE('',*,*,#144,.T.);
#144 = EDGE_CURVE('',#145,#147,#149,.T.);
#145 = VERTEX_POINT('',#146);
#146 = CARTESIAN_POINT('',(6.5,8.893048215738E-15,47.));
#147 = VERTEX_POINT('',#148);
#148 = CARTESIAN_POINT('',(6.5,5.118289932013E-15,13.));
#149 = LINE('',#150,#151);
#150 = CARTESIAN_POINT('',(6.5,0.,57.5));
#151 = VECTOR('',#152,1.);
#152 = DIRECTION('',(0.,0.,-1.));
#153 = ORIENTED_EDGE('',*,*,#154,.F.);
#154 = EDGE_CURVE('',#155,#147,#157,.T.);
#155 = VERTEX_POINT('',#156);
#156 = CARTESIAN_POINT('',(3.25,1.023657986403E-14,13.));
#157 = LINE('',#158,#159);
#158 = CARTESIAN_POINT('',(3.25,1.023657986403E-14,13.));
#159 = VECTOR('',#160,1.);
#160 = DIRECTION('',(1.,0.,0.));
#161 = ORIENTED_EDGE('',*,*,#162,.F.);
#162 = EDGE_CURVE('',#163,#155,#165,.T.);
#163 = VERTEX_POINT('',#164);
#164 = CARTESIAN_POINT('',(3.25,7.572044604925E-15,1.));
#165 = LINE('',#166,#167);
#166 = CARTESIAN_POINT('',(3.25,7.572044604925E-15,1.));
#167 = VECTOR('',#168,1.);
#168 = DIRECTION('',(0.,2.22044604925E-16,1.));
#169 = ORIENTED_EDGE('',*,*,#170,.F.);
#170 = EDGE_CURVE('',#171,#163,#173,.T.);
#171 = VERTEX_POINT('',#172);
#172 = CARTESIAN_POINT('',(17.25,7.572044604925E-15,1.));
#173 = LINE('',#174,#175);
#174 = CARTESIAN_POINT('',(17.25,7.572044604925E-15,1.));
#175 = VECTOR('',#176,1.);
#176 = DIRECTION('',(-1.,0.,0.));
#177 = ORIENTED_EDGE('',*,*,#178,.F.);
#178 = EDGE_CURVE('',#179,#171,#181,.T.);
#179 = VERTEX_POINT('',#180);
#180 = CARTESIAN_POINT('',(17.25,8.460223024625E-15,5.));
#181 = LINE('',#182,#183);
#182 = CARTESIAN_POINT('',(17.25,8.460223024625E-15,5.));
#183 = VECTOR('',#184,1.);
#184 = DIRECTION('',(0.,-2.22044604925E-16,-1.));
#185 = ORIENTED_EDGE('',*,*,#186,.T.);
#186 = EDGE_CURVE('',#179,#187,#189,.T.);
#187 = VERTEX_POINT('',#188);
#188 = CARTESIAN_POINT('',(179.25,8.460223024625E-15,5.));
#189 = LINE('',#190,#191);
#190 = CARTESIAN_POINT('',(6.5,0.,5.));
#191 = VECTOR('',#192,1.);
#192 = DIRECTION('',(1.,0.,0.));
#193 = ORIENTED_EDGE('',*,*,#194,.F.);
#194 = EDGE_CURVE('',#195,#187,#197,.T.);
#195 = VERTEX_POINT('',#196);
#196 = CARTESIAN_POINT('',(179.25,7.572044604925E-15,1.));
#197 = LINE('',#198,#199);
#198 = CARTESIAN_POINT('',(179.25,7.572044604925E-15,1.));
#199 = VECTOR('',#200,1.);
#200 = DIRECTION('',(0.,2.22044604925E-16,1.));
#201 = ORIENTED_EDGE('',*,*,#202,.F.);
#202 = EDGE_CURVE('',#203,#195,#205,.T.);
#203 = VERTEX_POINT('',#204);
#204 = CARTESIAN_POINT('',(193.25,7.572044604925E-15,1.));
#205 = LINE('',#206,#207);
#206 = CARTESIAN_POINT('',(193.25,7.572044604925E-15,1.));
#207 = VECTOR('',#208,1.);
#208 = DIRECTION('',(-1.,0.,0.));
#209 = ORIENTED_EDGE('',*,*,#210,.F.);
#210 = EDGE_CURVE('',#211,#203,#213,.T.);
#211 = VERTEX_POINT('',#212);
#212 = CARTESIAN_POINT('',(193.25,1.023657986403E-14,13.));
#213 = LINE('',#214,#215);
#214 = CARTESIAN_POINT('',(193.25,1.023657986403E-14,13.));
#215 = VECTOR('',#216,1.);
#216 = DIRECTION('',(0.,-2.22044604925E-16,-1.));
#217 = ORIENTED_EDGE('',*,*,#218,.F.);
#218 = EDGE_CURVE('',#219,#211,#221,.T.);
#219 = VERTEX_POINT('',#220);
#220 = CARTESIAN_POINT('',(190.,5.118289932013E-15,13.));
#221 = LINE('',#222,#223);
#222 = CARTESIAN_POINT('',(187.25,1.023657986403E-14,13.));
#223 = VECTOR('',#224,1.);
#224 = DIRECTION('',(1.,0.,0.));
#225 = ORIENTED_EDGE('',*,*,#226,.T.);
#226 = EDGE_CURVE('',#219,#227,#229,.T.);
#227 = VERTEX_POINT('',#228);
#228 = CARTESIAN_POINT('',(190.,8.893048215738E-15,47.));
#229 = LINE('',#230,#231);
#230 = CARTESIAN_POINT('',(190.,0.,5.));
#231 = VECTOR('',#232,1.);
#232 = DIRECTION('',(0.,0.,1.));
#233 = ORIENTED_EDGE('',*,*,#234,.T.);
#234 = EDGE_CURVE('',#227,#235,#237,.T.);
#235 = VERTEX_POINT('',#236);
#236 = CARTESIAN_POINT('',(193.25,1.778609643148E-14,47.));
#237 = LINE('',#238,#239);
#238 = CARTESIAN_POINT('',(187.25,1.778609643148E-14,47.));
#239 = VECTOR('',#240,1.);
#240 = DIRECTION('',(1.,0.,0.));
#241 = ORIENTED_EDGE('',*,*,#242,.T.);
#242 = EDGE_CURVE('',#235,#243,#245,.T.);
#243 = VERTEX_POINT('',#244);
#244 = CARTESIAN_POINT('',(193.25,2.089472090043E-14,61.));
#245 = LINE('',#246,#247);
#246 = CARTESIAN_POINT('',(193.25,1.778609643148E-14,47.));
#247 = VECTOR('',#248,1.);
#248 = DIRECTION('',(0.,2.22044604925E-16,1.));
#249 = ORIENTED_EDGE('',*,*,#250,.T.);
#250 = EDGE_CURVE('',#243,#251,#253,.T.);
#251 = VERTEX_POINT('',#252);
#252 = CARTESIAN_POINT('',(179.25,2.089472090043E-14,61.));
#253 = LINE('',#254,#255);
#254 = CARTESIAN_POINT('',(193.25,2.089472090043E-14,61.));
#255 = VECTOR('',#256,1.);
#256 = DIRECTION('',(-1.,0.,0.));
#257 = ORIENTED_EDGE('',*,*,#258,.T.);
#258 = EDGE_CURVE('',#251,#259,#261,.T.);
#259 = VERTEX_POINT('',#260);
#260 = CARTESIAN_POINT('',(179.25,1.005878239159E-14,57.5));
#261 = LINE('',#262,#263);
#262 = CARTESIAN_POINT('',(179.25,2.089472090043E-14,61.));
#263 = VECTOR('',#264,1.);
#264 = DIRECTION('',(0.,-2.22044604925E-16,-1.));
#265 = ORIENTED_EDGE('',*,*,#266,.T.);
#266 = EDGE_CURVE('',#259,#267,#269,.T.);
#267 = VERTEX_POINT('',#268);
#268 = CARTESIAN_POINT('',(17.25,1.005878239159E-14,57.5));
#269 = LINE('',#270,#271);
#270 = CARTESIAN_POINT('',(190.,0.,57.5));
#271 = VECTOR('',#272,1.);
#272 = DIRECTION('',(-1.,0.,0.));
#273 = ORIENTED_EDGE('',*,*,#274,.T.);
#274 = EDGE_CURVE('',#267,#275,#277,.T.);
#275 = VERTEX_POINT('',#276);
#276 = CARTESIAN_POINT('',(17.25,2.089472090043E-14,61.));
#277 = LINE('',#278,#279);
#278 = CARTESIAN_POINT('',(17.25,1.956245327088E-14,55.));
#279 = VECTOR('',#280,1.);
#280 = DIRECTION('',(0.,2.22044604925E-16,1.));
#281 = ORIENTED_EDGE('',*,*,#282,.T.);
#282 = EDGE_CURVE('',#275,#283,#285,.T.);
#283 = VERTEX_POINT('',#284);
#284 = CARTESIAN_POINT('',(3.25,2.089472090043E-14,61.));
#285 = LINE('',#286,#287);
#286 = CARTESIAN_POINT('',(17.25,2.089472090043E-14,61.));
#287 = VECTOR('',#288,1.);
#288 = DIRECTION('',(-1.,0.,0.));
#289 = ORIENTED_EDGE('',*,*,#290,.T.);
#290 = EDGE_CURVE('',#283,#291,#293,.T.);
#291 = VERTEX_POINT('',#292);
#292 = CARTESIAN_POINT('',(3.25,1.778609643148E-14,47.));
#293 = LINE('',#294,#295);
#294 = CARTESIAN_POINT('',(3.25,2.089472090043E-14,61.));
#295 = VECTOR('',#296,1.);
#296 = DIRECTION('',(0.,-2.22044604925E-16,-1.));
#297 = ORIENTED_EDGE('',*,*,#298,.T.);
#298 = EDGE_CURVE('',#291,#145,#299,.T.);
#299 = LINE('',#300,#301);
#300 = CARTESIAN_POINT('',(3.25,1.778609643148E-14,47.));
#301 = VECTOR('',#302,1.);
#302 = DIRECTION('',(1.,0.,0.));
#303 = FACE_BOUND('',#304,.T.);
#304 = EDGE_LOOP('',(#305));
#305 = ORIENTED_EDGE('',*,*,#306,.F.);
#306 = EDGE_CURVE('',#307,#307,#309,.T.);
#307 = VERTEX_POINT('',#308);
#308 = CARTESIAN_POINT('',(191.5,8.E-15,19.25));
#309 = CIRCLE('',#310,1.75);
#310 = AXIS2_PLACEMENT_3D('',#311,#312,#313);
#311 = CARTESIAN_POINT('',(193.25,7.55E-15,19.25));
#312 = DIRECTION('',(0.,1.,-2.2E-16));
#313 = DIRECTION('',(-1.,0.,0.));
#314 = FACE_BOUND('',#315,.T.);
#315 = EDGE_LOOP('',(#316));
#316 = ORIENTED_EDGE('',*,*,#317,.F.);
#317 = EDGE_CURVE('',#318,#318,#320,.T.);
#318 = VERTEX_POINT('',#319);
#319 = CARTESIAN_POINT('',(191.5,8.E-15,66.25));
#320 = CIRCLE('',#321,1.75);
#321 = AXIS2_PLACEMENT_3D('',#322,#323,#324);
#322 = CARTESIAN_POINT('',(193.25,7.55E-15,66.25));
#323 = DIRECTION('',(0.,1.,-2.2E-16));
#324 = DIRECTION('',(-1.,0.,0.));
#325 = PLANE('',#326);
#326 = AXIS2_PLACEMENT_3D('',#327,#328,#329);
#327 = CARTESIAN_POINT('',(98.25,7.35E-15,33.104581673307));
#328 = DIRECTION('',(0.,1.,0.));
#329 = DIRECTION('',(0.,0.,1.));
#330 = ADVANCED_FACE('',(#331),#350,.T.);
#331 = FACE_BOUND('',#332,.F.);
#332 = EDGE_LOOP('',(#333,#334,#342,#349));
#333 = ORIENTED_EDGE('',*,*,#62,.T.);
#334 = ORIENTED_EDGE('',*,*,#335,.T.);
#335 = EDGE_CURVE('',#63,#336,#338,.T.);
#336 = VERTEX_POINT('',#337);
#337 = CARTESIAN_POINT('',(0.,-4.,3.));
#338 = LINE('',#339,#340);
#339 = CARTESIAN_POINT('',(-4.4E-16,6.7E-16,3.));
#340 = VECTOR('',#341,1.);
#341 = DIRECTION('',(0.,-1.,2.2E-16));
#342 = ORIENTED_EDGE('',*,*,#343,.F.);
#343 = EDGE_CURVE('',#32,#336,#344,.T.);
#344 = CIRCLE('',#345,3.);
#345 = AXIS2_PLACEMENT_3D('',#346,#347,#348);
#346 = CARTESIAN_POINT('',(3.,-4.,3.));
#347 = DIRECTION('',(0.,1.,-2.2E-16));
#348 = DIRECTION('',(0.,-2.2E-16,-1.));
#349 = ORIENTED_EDGE('',*,*,#31,.F.);
#350 = CYLINDRICAL_SURFACE('',#351,3.);
#351 = AXIS2_PLACEMENT_3D('',#352,#353,#354);
#352 = CARTESIAN_POINT('',(3.,6.7E-16,3.));
#353 = DIRECTION('',(0.,-1.,2.2E-16));
#354 = DIRECTION('',(0.,-2.2E-16,-1.));
#355 = ADVANCED_FACE('',(#356),#375,.T.);
#356 = FACE_BOUND('',#357,.T.);
#357 = EDGE_LOOP('',(#358,#359,#367,#374));
#358 = ORIENTED_EDGE('',*,*,#113,.T.);
#359 = ORIENTED_EDGE('',*,*,#360,.T.);
#360 = EDGE_CURVE('',#106,#361,#363,.T.);
#361 = VERTEX_POINT('',#362);
#362 = CARTESIAN_POINT('',(196.5,-4.,3.));
#363 = LINE('',#364,#365);
#364 = CARTESIAN_POINT('',(196.5,6.7E-16,3.));
#365 = VECTOR('',#366,1.);
#366 = DIRECTION('',(0.,-1.,2.2E-16));
#367 = ORIENTED_EDGE('',*,*,#368,.F.);
#368 = EDGE_CURVE('',#40,#361,#369,.T.);
#369 = CIRCLE('',#370,3.);
#370 = AXIS2_PLACEMENT_3D('',#371,#372,#373);
#371 = CARTESIAN_POINT('',(193.5,-4.,3.));
#372 = DIRECTION('',(0.,-1.,2.2E-16));
#373 = DIRECTION('',(0.,-2.2E-16,-1.));
#374 = ORIENTED_EDGE('',*,*,#47,.F.);
#375 = CYLINDRICAL_SURFACE('',#376,3.);
#376 = AXIS2_PLACEMENT_3D('',#377,#378,#379);
#377 = CARTESIAN_POINT('',(193.5,6.7E-16,3.));
#378 = DIRECTION('',(0.,-1.,2.2E-16));
#379 = DIRECTION('',(0.,-2.2E-16,-1.));
#380 = ADVANCED_FACE('',(#381,#426,#437,#448,#482,#493),#504,.F.);
#381 = FACE_BOUND('',#382,.F.);
#382 = EDGE_LOOP('',(#383,#384,#385,#393,#402,#410,#419,#425));
#383 = ORIENTED_EDGE('',*,*,#39,.F.);
#384 = ORIENTED_EDGE('',*,*,#343,.T.);
#385 = ORIENTED_EDGE('',*,*,#386,.F.);
#386 = EDGE_CURVE('',#387,#336,#389,.T.);
#387 = VERTEX_POINT('',#388);
#388 = CARTESIAN_POINT('',(0.,-4.,66.5));
#389 = LINE('',#390,#391);
#390 = CARTESIAN_POINT('',(0.,-4.,69.5));
#391 = VECTOR('',#392,1.);
#392 = DIRECTION('',(0.,0.,-1.));
#393 = ORIENTED_EDGE('',*,*,#394,.T.);
#394 = EDGE_CURVE('',#387,#395,#397,.T.);
#395 = VERTEX_POINT('',#396);
#396 = CARTESIAN_POINT('',(3.,-4.,69.5));
#397 = CIRCLE('',#398,3.);
#398 = AXIS2_PLACEMENT_3D('',#399,#400,#401);
#399 = CARTESIAN_POINT('',(3.,-4.,66.5));
#400 = DIRECTION('',(0.,1.,-2.2E-16));
#401 = DIRECTION('',(0.,-2.2E-16,-1.));
#402 = ORIENTED_EDGE('',*,*,#403,.F.);
#403 = EDGE_CURVE('',#404,#395,#406,.T.);
#404 = VERTEX_POINT('',#405);
#405 = CARTESIAN_POINT('',(193.5,-4.,69.5));
#406 = LINE('',#407,#408);
#407 = CARTESIAN_POINT('',(196.5,-4.,69.5));
#408 = VECTOR('',#409,1.);
#409 = DIRECTION('',(-1.,0.,0.));
#410 = ORIENTED_EDGE('',*,*,#411,.F.);
#411 = EDGE_CURVE('',#412,#404,#414,.T.);
#412 = VERTEX_POINT('',#413);
#413 = CARTESIAN_POINT('',(196.5,-4.,66.5));
#414 = CIRCLE('',#415,3.);
#415 = AXIS2_PLACEMENT_3D('',#416,#417,#418);
#416 = CARTESIAN_POINT('',(193.5,-4.,66.5));
#417 = DIRECTION('',(0.,-1.,2.2E-16));
#418 = DIRECTION('',(0.,-2.2E-16,-1.));
#419 = ORIENTED_EDGE('',*,*,#420,.F.);
#420 = EDGE_CURVE('',#361,#412,#421,.T.);
#421 = LINE('',#422,#423);
#422 = CARTESIAN_POINT('',(196.5,-4.,1.E-15));
#423 = VECTOR('',#424,1.);
#424 = DIRECTION('',(0.,0.,1.));
#425 = ORIENTED_EDGE('',*,*,#368,.F.);
#426 = FACE_BOUND('',#427,.F.);
#427 = EDGE_LOOP('',(#428));
#428 = ORIENTED_EDGE('',*,*,#429,.T.);
#429 = EDGE_CURVE('',#430,#430,#432,.T.);
#430 = VERTEX_POINT('',#431);
#431 = CARTESIAN_POINT('',(1.5,-4.,19.25));
#432 = CIRCLE('',#433,1.75);
#433 = AXIS2_PLACEMENT_3D('',#434,#435,#436);
#434 = CARTESIAN_POINT('',(3.25,-4.,19.25));
#435 = DIRECTION('',(0.,-1.,2.2E-16));
#436 = DIRECTION('',(-1.,0.,0.));
#437 = FACE_BOUND('',#438,.F.);
#438 = EDGE_LOOP('',(#439));
#439 = ORIENTED_EDGE('',*,*,#440,.T.);
#440 = EDGE_CURVE('',#441,#441,#443,.T.);
#441 = VERTEX_POINT('',#442);
#442 = CARTESIAN_POINT('',(1.5,-4.,66.25));
#443 = CIRCLE('',#444,1.75);
#444 = AXIS2_PLACEMENT_3D('',#445,#446,#447);
#445 = CARTESIAN_POINT('',(3.25,-4.,66.25));
#446 = DIRECTION('',(0.,-1.,2.2E-16));
#447 = DIRECTION('',(-1.,0.,0.));
#448 = FACE_BOUND('',#449,.F.);
#449 = EDGE_LOOP('',(#450,#460,#468,#476));
#450 = ORIENTED_EDGE('',*,*,#451,.T.);
#451 = EDGE_CURVE('',#452,#454,#456,.T.);
#452 = VERTEX_POINT('',#453);
#453 = CARTESIAN_POINT('',(6.5,-4.,5.));
#454 = VERTEX_POINT('',#455);
#455 = CARTESIAN_POINT('',(190.,-4.,5.));
#456 = LINE('',#457,#458);
#457 = CARTESIAN_POINT('',(6.5,-4.,5.));
#458 = VECTOR('',#459,1.);
#459 = DIRECTION('',(1.,0.,0.));
#460 = ORIENTED_EDGE('',*,*,#461,.T.);
#461 = EDGE_CURVE('',#454,#462,#464,.T.);
#462 = VERTEX_POINT('',#463);
#463 = CARTESIAN_POINT('',(190.,-4.,57.5));
#464 = LINE('',#465,#466);
#465 = CARTESIAN_POINT('',(190.,-4.,5.));
#466 = VECTOR('',#467,1.);
#467 = DIRECTION('',(0.,0.,1.));
#468 = ORIENTED_EDGE('',*,*,#469,.T.);
#469 = EDGE_CURVE('',#462,#470,#472,.T.);
#470 = VERTEX_POINT('',#471);
#471 = CARTESIAN_POINT('',(6.5,-4.,57.5));
#472 = LINE('',#473,#474);
#473 = CARTESIAN_POINT('',(190.,-4.,57.5));
#474 = VECTOR('',#475,1.);
#475 = DIRECTION('',(-1.,0.,0.));
#476 = ORIENTED_EDGE('',*,*,#477,.T.);
#477 = EDGE_CURVE('',#470,#452,#478,.T.);
#478 = LINE('',#479,#480);
#479 = CARTESIAN_POINT('',(6.5,-4.,57.5));
#480 = VECTOR('',#481,1.);
#481 = DIRECTION('',(0.,0.,-1.));
#482 = FACE_BOUND('',#483,.F.);
#483 = EDGE_LOOP('',(#484));
#484 = ORIENTED_EDGE('',*,*,#485,.T.);
#485 = EDGE_CURVE('',#486,#486,#488,.T.);
#486 = VERTEX_POINT('',#487);
#487 = CARTESIAN_POINT('',(191.5,-4.,19.25));
#488 = CIRCLE('',#489,1.75);
#489 = AXIS2_PLACEMENT_3D('',#490,#491,#492);
#490 = CARTESIAN_POINT('',(193.25,-4.,19.25));
#491 = DIRECTION('',(0.,-1.,2.2E-16));
#492 = DIRECTION('',(-1.,0.,0.));
#493 = FACE_BOUND('',#494,.F.);
#494 = EDGE_LOOP('',(#495));
#495 = ORIENTED_EDGE('',*,*,#496,.T.);
#496 = EDGE_CURVE('',#497,#497,#499,.T.);
#497 = VERTEX_POINT('',#498);
#498 = CARTESIAN_POINT('',(191.5,-4.,66.25));
#499 = CIRCLE('',#500,1.75);
#500 = AXIS2_PLACEMENT_3D('',#501,#502,#503);
#501 = CARTESIAN_POINT('',(193.25,-4.,66.25));
#502 = DIRECTION('',(0.,-1.,2.2E-16));
#503 = DIRECTION('',(-1.,0.,0.));
#504 = PLANE('',#505);
#505 = AXIS2_PLACEMENT_3D('',#506,#507,#508);
#506 = CARTESIAN_POINT('',(98.25,-4.,33.104581673307));
#507 = DIRECTION('',(0.,1.,0.));
#508 = DIRECTION('',(0.,0.,1.));
#509 = ADVANCED_FACE('',(#510),#521,.F.);
#510 = FACE_BOUND('',#511,.F.);
#511 = EDGE_LOOP('',(#512,#513,#519,#520));
#512 = ORIENTED_EDGE('',*,*,#71,.F.);
#513 = ORIENTED_EDGE('',*,*,#514,.T.);
#514 = EDGE_CURVE('',#72,#387,#515,.T.);
#515 = LINE('',#516,#517);
#516 = CARTESIAN_POINT('',(-4.4E-16,1.477E-14,66.5));
#517 = VECTOR('',#518,1.);
#518 = DIRECTION('',(0.,-1.,2.2E-16));
#519 = ORIENTED_EDGE('',*,*,#386,.T.);
#520 = ORIENTED_EDGE('',*,*,#335,.F.);
#521 = PLANE('',#522);
#522 = AXIS2_PLACEMENT_3D('',#523,#524,#525);
#523 = CARTESIAN_POINT('',(0.,1.543E-14,69.5));
#524 = DIRECTION('',(1.,0.,0.));
#525 = DIRECTION('',(0.,-2.2E-16,-1.));
#526 = ADVANCED_FACE('',(#527),#538,.F.);
#527 = FACE_BOUND('',#528,.F.);
#528 = EDGE_LOOP('',(#529,#530,#531,#532));
#529 = ORIENTED_EDGE('',*,*,#105,.F.);
#530 = ORIENTED_EDGE('',*,*,#360,.T.);
#531 = ORIENTED_EDGE('',*,*,#420,.T.);
#532 = ORIENTED_EDGE('',*,*,#533,.F.);
#533 = EDGE_CURVE('',#97,#412,#534,.T.);
#534 = LINE('',#535,#536);
#535 = CARTESIAN_POINT('',(196.5,1.477E-14,66.5));
#536 = VECTOR('',#537,1.);
#537 = DIRECTION('',(0.,-1.,2.2E-16));
#538 = PLANE('',#539);
#539 = AXIS2_PLACEMENT_3D('',#540,#541,#542);
#540 = CARTESIAN_POINT('',(196.5,0.,0.));
#541 = DIRECTION('',(-1.,0.,0.));
#542 = DIRECTION('',(0.,2.2E-16,1.));
#543 = ADVANCED_FACE('',(#544),#555,.T.);
#544 = FACE_BOUND('',#545,.F.);
#545 = EDGE_LOOP('',(#546,#547,#553,#554));
#546 = ORIENTED_EDGE('',*,*,#79,.T.);
#547 = ORIENTED_EDGE('',*,*,#548,.T.);
#548 = EDGE_CURVE('',#80,#395,#549,.T.);
#549 = LINE('',#550,#551);
#550 = CARTESIAN_POINT('',(3.,1.543E-14,69.5));
#551 = VECTOR('',#552,1.);
#552 = DIRECTION('',(0.,-1.,2.2E-16));
#553 = ORIENTED_EDGE('',*,*,#394,.F.);
#554 = ORIENTED_EDGE('',*,*,#514,.F.);
#555 = CYLINDRICAL_SURFACE('',#556,3.);
#556 = AXIS2_PLACEMENT_3D('',#557,#558,#559);
#557 = CARTESIAN_POINT('',(3.,1.477E-14,66.5));
#558 = DIRECTION('',(0.,-1.,2.2E-16));
#559 = DIRECTION('',(-1.,0.,0.));
#560 = ADVANCED_FACE('',(#561),#572,.T.);
#561 = FACE_BOUND('',#562,.T.);
#562 = EDGE_LOOP('',(#563,#564,#570,#571));
#563 = ORIENTED_EDGE('',*,*,#96,.T.);
#564 = ORIENTED_EDGE('',*,*,#565,.T.);
#565 = EDGE_CURVE('',#89,#404,#566,.T.);
#566 = LINE('',#567,#568);
#567 = CARTESIAN_POINT('',(193.5,1.543E-14,69.5));
#568 = VECTOR('',#569,1.);
#569 = DIRECTION('',(0.,-1.,2.2E-16));
#570 = ORIENTED_EDGE('',*,*,#411,.F.);
#571 = ORIENTED_EDGE('',*,*,#533,.F.);
#572 = CYLINDRICAL_SURFACE('',#573,3.);
#573 = AXIS2_PLACEMENT_3D('',#574,#575,#576);
#574 = CARTESIAN_POINT('',(193.5,1.477E-14,66.5));
#575 = DIRECTION('',(0.,-1.,2.2E-16));
#576 = DIRECTION('',(1.,0.,0.));
#577 = ADVANCED_FACE('',(#578),#584,.F.);
#578 = FACE_BOUND('',#579,.F.);
#579 = EDGE_LOOP('',(#580,#581,#582,#583));
#580 = ORIENTED_EDGE('',*,*,#88,.F.);
#581 = ORIENTED_EDGE('',*,*,#565,.T.);
#582 = ORIENTED_EDGE('',*,*,#403,.T.);
#583 = ORIENTED_EDGE('',*,*,#548,.F.);
#584 = PLANE('',#585);
#585 = AXIS2_PLACEMENT_3D('',#586,#587,#588);
#586 = CARTESIAN_POINT('',(196.5,1.543E-14,69.5));
#587 = DIRECTION('',(-0.,-2.2E-16,-1.));
#588 = DIRECTION('',(-1.,0.,0.));
#589 = ADVANCED_FACE('',(#590),#601,.F.);
#590 = FACE_BOUND('',#591,.T.);
#591 = EDGE_LOOP('',(#592,#598,#599,#600));
#592 = ORIENTED_EDGE('',*,*,#593,.F.);
#593 = EDGE_CURVE('',#430,#123,#594,.T.);
#594 = LINE('',#595,#596);
#595 = CARTESIAN_POINT('',(1.5,-4.,19.25));
#596 = VECTOR('',#597,1.);
#597 = DIRECTION('',(6.E-17,1.,-2.2E-16));
#598 = ORIENTED_EDGE('',*,*,#429,.T.);
#599 = ORIENTED_EDGE('',*,*,#593,.T.);
#600 = ORIENTED_EDGE('',*,*,#122,.T.);
#601 = CYLINDRICAL_SURFACE('',#602,1.75);
#602 = AXIS2_PLACEMENT_3D('',#603,#604,#605);
#603 = CARTESIAN_POINT('',(3.25,-4.,19.25));
#604 = DIRECTION('',(0.,1.,-2.2E-16));
#605 = DIRECTION('',(-1.,0.,0.));
#606 = ADVANCED_FACE('',(#607),#618,.F.);
#607 = FACE_BOUND('',#608,.T.);
#608 = EDGE_LOOP('',(#609,#615,#616,#617));
#609 = ORIENTED_EDGE('',*,*,#610,.F.);
#610 = EDGE_CURVE('',#441,#134,#611,.T.);
#611 = LINE('',#612,#613);
#612 = CARTESIAN_POINT('',(1.5,-4.,66.25));
#613 = VECTOR('',#614,1.);
#614 = DIRECTION('',(6.E-17,1.,-2.2E-16));
#615 = ORIENTED_EDGE('',*,*,#440,.T.);
#616 = ORIENTED_EDGE('',*,*,#610,.T.);
#617 = ORIENTED_EDGE('',*,*,#133,.T.);
#618 = CYLINDRICAL_SURFACE('',#619,1.75);
#619 = AXIS2_PLACEMENT_3D('',#620,#621,#622);
#620 = CARTESIAN_POINT('',(3.25,-4.,66.25));
#621 = DIRECTION('',(0.,1.,-2.2E-16));
#622 = DIRECTION('',(-1.,0.,0.));
#623 = ADVANCED_FACE('',(#624),#656,.T.);
#624 = FACE_BOUND('',#625,.T.);
#625 = EDGE_LOOP('',(#626,#634,#635,#643,#649,#650));
#626 = ORIENTED_EDGE('',*,*,#627,.T.);
#627 = EDGE_CURVE('',#628,#470,#630,.T.);
#628 = VERTEX_POINT('',#629);
#629 = CARTESIAN_POINT('',(6.5,0.,57.5));
#630 = LINE('',#631,#632);
#631 = CARTESIAN_POINT('',(6.5,1.277E-14,57.5));
#632 = VECTOR('',#633,1.);
#633 = DIRECTION('',(0.,-1.,2.2E-16));
#634 = ORIENTED_EDGE('',*,*,#477,.T.);
#635 = ORIENTED_EDGE('',*,*,#636,.F.);
#636 = EDGE_CURVE('',#637,#452,#639,.T.);
#637 = VERTEX_POINT('',#638);
#638 = CARTESIAN_POINT('',(6.5,0.,5.));
#639 = LINE('',#640,#641);
#640 = CARTESIAN_POINT('',(6.5,1.11E-15,5.));
#641 = VECTOR('',#642,1.);
#642 = DIRECTION('',(0.,-1.,2.2E-16));
#643 = ORIENTED_EDGE('',*,*,#644,.F.);
#644 = EDGE_CURVE('',#147,#637,#645,.T.);
#645 = LINE('',#646,#647);
#646 = CARTESIAN_POINT('',(6.5,0.,57.5));
#647 = VECTOR('',#648,1.);
#648 = DIRECTION('',(0.,0.,-1.));
#649 = ORIENTED_EDGE('',*,*,#144,.F.);
#650 = ORIENTED_EDGE('',*,*,#651,.F.);
#651 = EDGE_CURVE('',#628,#145,#652,.T.);
#652 = LINE('',#653,#654);
#653 = CARTESIAN_POINT('',(6.5,0.,57.5));
#654 = VECTOR('',#655,1.);
#655 = DIRECTION('',(0.,0.,-1.));
#656 = PLANE('',#657);
#657 = AXIS2_PLACEMENT_3D('',#658,#659,#660);
#658 = CARTESIAN_POINT('',(6.5,1.277E-14,57.5));
#659 = DIRECTION('',(1.,0.,0.));
#660 = DIRECTION('',(0.,-2.2E-16,-1.));
#661 = ADVANCED_FACE('',(#662),#695,.T.);
#662 = FACE_BOUND('',#663,.T.);
#663 = EDGE_LOOP('',(#664,#672,#680,#688,#694));
#664 = ORIENTED_EDGE('',*,*,#665,.T.);
#665 = EDGE_CURVE('',#291,#666,#668,.T.);
#666 = VERTEX_POINT('',#667);
#667 = CARTESIAN_POINT('',(3.25,130.,47.));
#668 = LINE('',#669,#670);
#669 = CARTESIAN_POINT('',(3.25,1.778609643148E-14,47.));
#670 = VECTOR('',#671,1.);
#671 = DIRECTION('',(0.,1.,-2.22044604925E-16));
#672 = ORIENTED_EDGE('',*,*,#673,.T.);
#673 = EDGE_CURVE('',#666,#674,#676,.T.);
#674 = VERTEX_POINT('',#675);
#675 = CARTESIAN_POINT('',(9.25,130.,47.));
#676 = LINE('',#677,#678);
#677 = CARTESIAN_POINT('',(3.25,130.,47.));
#678 = VECTOR('',#679,1.);
#679 = DIRECTION('',(1.,0.,0.));
#680 = ORIENTED_EDGE('',*,*,#681,.F.);
#681 = EDGE_CURVE('',#682,#674,#684,.T.);
#682 = VERTEX_POINT('',#683);
#683 = CARTESIAN_POINT('',(9.25,1.778609643148E-14,47.));
#684 = LINE('',#685,#686);
#685 = CARTESIAN_POINT('',(9.25,1.778609643148E-14,47.));
#686 = VECTOR('',#687,1.);
#687 = DIRECTION('',(0.,1.,-2.22044604925E-16));
#688 = ORIENTED_EDGE('',*,*,#689,.F.);
#689 = EDGE_CURVE('',#145,#682,#690,.T.);
#690 = LINE('',#691,#692);
#691 = CARTESIAN_POINT('',(3.25,1.778609643148E-14,47.));
#692 = VECTOR('',#693,1.);
#693 = DIRECTION('',(1.,0.,0.));
#694 = ORIENTED_EDGE('',*,*,#298,.F.);
#695 = PLANE('',#696);
#696 = AXIS2_PLACEMENT_3D('',#697,#698,#699);
#697 = CARTESIAN_POINT('',(3.25,1.778609643148E-14,47.));
#698 = DIRECTION('',(0.,-2.22044604925E-16,-1.));
#699 = DIRECTION('',(1.,0.,0.));
#700 = ADVANCED_FACE('',(#701),#719,.T.);
#701 = FACE_BOUND('',#702,.T.);
#702 = EDGE_LOOP('',(#703,#711,#717,#718));
#703 = ORIENTED_EDGE('',*,*,#704,.T.);
#704 = EDGE_CURVE('',#283,#705,#707,.T.);
#705 = VERTEX_POINT('',#706);
#706 = CARTESIAN_POINT('',(3.25,130.,61.));
#707 = LINE('',#708,#709);
#708 = CARTESIAN_POINT('',(3.25,2.089472090043E-14,61.));
#709 = VECTOR('',#710,1.);
#710 = DIRECTION('',(0.,1.,-2.22044604925E-16));
#711 = ORIENTED_EDGE('',*,*,#712,.T.);
#712 = EDGE_CURVE('',#705,#666,#713,.T.);
#713 = LINE('',#714,#715);
#714 = CARTESIAN_POINT('',(3.25,130.,61.));
#715 = VECTOR('',#716,1.);
#716 = DIRECTION('',(0.,-2.22044604925E-16,-1.));
#717 = ORIENTED_EDGE('',*,*,#665,.F.);
#718 = ORIENTED_EDGE('',*,*,#290,.F.);
#719 = PLANE('',#720);
#720 = AXIS2_PLACEMENT_3D('',#721,#722,#723);
#721 = CARTESIAN_POINT('',(3.25,2.089472090043E-14,61.));
#722 = DIRECTION('',(-1.,0.,0.));
#723 = DIRECTION('',(0.,-2.22044604925E-16,-1.));
#724 = ADVANCED_FACE('',(#725),#743,.T.);
#725 = FACE_BOUND('',#726,.T.);
#726 = EDGE_LOOP('',(#727,#735,#741,#742));
#727 = ORIENTED_EDGE('',*,*,#728,.T.);
#728 = EDGE_CURVE('',#275,#729,#731,.T.);
#729 = VERTEX_POINT('',#730);
#730 = CARTESIAN_POINT('',(17.25,130.,61.));
#731 = LINE('',#732,#733);
#732 = CARTESIAN_POINT('',(17.25,2.089472090043E-14,61.));
#733 = VECTOR('',#734,1.);
#734 = DIRECTION('',(0.,1.,-2.22044604925E-16));
#735 = ORIENTED_EDGE('',*,*,#736,.T.);
#736 = EDGE_CURVE('',#729,#705,#737,.T.);
#737 = LINE('',#738,#739);
#738 = CARTESIAN_POINT('',(17.25,130.,61.));
#739 = VECTOR('',#740,1.);
#740 = DIRECTION('',(-1.,0.,0.));
#741 = ORIENTED_EDGE('',*,*,#704,.F.);
#742 = ORIENTED_EDGE('',*,*,#282,.F.);
#743 = PLANE('',#744);
#744 = AXIS2_PLACEMENT_3D('',#745,#746,#747);
#745 = CARTESIAN_POINT('',(17.25,2.089472090043E-14,61.));
#746 = DIRECTION('',(0.,2.22044604925E-16,1.));
#747 = DIRECTION('',(-1.,0.,0.));
#748 = ADVANCED_FACE('',(#749),#775,.T.);
#749 = FACE_BOUND('',#750,.T.);
#750 = EDGE_LOOP('',(#751,#761,#767,#768,#769));
#751 = ORIENTED_EDGE('',*,*,#752,.T.);
#752 = EDGE_CURVE('',#753,#755,#757,.T.);
#753 = VERTEX_POINT('',#754);
#754 = CARTESIAN_POINT('',(17.25,1.956245327088E-14,55.));
#755 = VERTEX_POINT('',#756);
#756 = CARTESIAN_POINT('',(17.25,130.,55.));
#757 = LINE('',#758,#759);
#758 = CARTESIAN_POINT('',(17.25,1.956245327088E-14,55.));
#759 = VECTOR('',#760,1.);
#760 = DIRECTION('',(0.,1.,-2.22044604925E-16));
#761 = ORIENTED_EDGE('',*,*,#762,.T.);
#762 = EDGE_CURVE('',#755,#729,#763,.T.);
#763 = LINE('',#764,#765);
#764 = CARTESIAN_POINT('',(17.25,130.,55.));
#765 = VECTOR('',#766,1.);
#766 = DIRECTION('',(0.,2.22044604925E-16,1.));
#767 = ORIENTED_EDGE('',*,*,#728,.F.);
#768 = ORIENTED_EDGE('',*,*,#274,.F.);
#769 = ORIENTED_EDGE('',*,*,#770,.F.);
#770 = EDGE_CURVE('',#753,#267,#771,.T.);
#771 = LINE('',#772,#773);
#772 = CARTESIAN_POINT('',(17.25,1.956245327088E-14,55.));
#773 = VECTOR('',#774,1.);
#774 = DIRECTION('',(0.,2.22044604925E-16,1.));
#775 = PLANE('',#776);
#776 = AXIS2_PLACEMENT_3D('',#777,#778,#779);
#777 = CARTESIAN_POINT('',(17.25,1.956245327088E-14,55.));
#778 = DIRECTION('',(1.,0.,0.));
#779 = DIRECTION('',(0.,2.22044604925E-16,1.));
#780 = ADVANCED_FACE('',(#781),#806,.T.);
#781 = FACE_BOUND('',#782,.T.);
#782 = EDGE_LOOP('',(#783,#791,#792,#793,#799,#800));
#783 = ORIENTED_EDGE('',*,*,#784,.T.);
#784 = EDGE_CURVE('',#785,#462,#787,.T.);
#785 = VERTEX_POINT('',#786);
#786 = CARTESIAN_POINT('',(190.,0.,57.5));
#787 = LINE('',#788,#789);
#788 = CARTESIAN_POINT('',(190.,1.277E-14,57.5));
#789 = VECTOR('',#790,1.);
#790 = DIRECTION('',(0.,-1.,2.2E-16));
#791 = ORIENTED_EDGE('',*,*,#469,.T.);
#792 = ORIENTED_EDGE('',*,*,#627,.F.);
#793 = ORIENTED_EDGE('',*,*,#794,.F.);
#794 = EDGE_CURVE('',#267,#628,#795,.T.);
#795 = LINE('',#796,#797);
#796 = CARTESIAN_POINT('',(190.,0.,57.5));
#797 = VECTOR('',#798,1.);
#798 = DIRECTION('',(-1.,0.,0.));
#799 = ORIENTED_EDGE('',*,*,#266,.F.);
#800 = ORIENTED_EDGE('',*,*,#801,.F.);
#801 = EDGE_CURVE('',#785,#259,#802,.T.);
#802 = LINE('',#803,#804);
#803 = CARTESIAN_POINT('',(190.,0.,57.5));
#804 = VECTOR('',#805,1.);
#805 = DIRECTION('',(-1.,0.,0.));
#806 = PLANE('',#807);
#807 = AXIS2_PLACEMENT_3D('',#808,#809,#810);
#808 = CARTESIAN_POINT('',(190.,1.277E-14,57.5));
#809 = DIRECTION('',(-0.,-2.2E-16,-1.));
#810 = DIRECTION('',(-1.,0.,0.));
#811 = ADVANCED_FACE('',(#812),#845,.T.);
#812 = FACE_BOUND('',#813,.T.);
#813 = EDGE_LOOP('',(#814,#822,#830,#838,#844));
#814 = ORIENTED_EDGE('',*,*,#815,.T.);
#815 = EDGE_CURVE('',#251,#816,#818,.T.);
#816 = VERTEX_POINT('',#817);
#817 = CARTESIAN_POINT('',(179.25,130.,61.));
#818 = LINE('',#819,#820);
#819 = CARTESIAN_POINT('',(179.25,2.089472090043E-14,61.));
#820 = VECTOR('',#821,1.);
#821 = DIRECTION('',(0.,1.,-2.22044604925E-16));
#822 = ORIENTED_EDGE('',*,*,#823,.T.);
#823 = EDGE_CURVE('',#816,#824,#826,.T.);
#824 = VERTEX_POINT('',#825);
#825 = CARTESIAN_POINT('',(179.25,130.,55.));
#826 = LINE('',#827,#828);
#827 = CARTESIAN_POINT('',(179.25,130.,61.));
#828 = VECTOR('',#829,1.);
#829 = DIRECTION('',(0.,-2.22044604925E-16,-1.));
#830 = ORIENTED_EDGE('',*,*,#831,.F.);
#831 = EDGE_CURVE('',#832,#824,#834,.T.);
#832 = VERTEX_POINT('',#833);
#833 = CARTESIAN_POINT('',(179.25,1.956245327088E-14,55.));
#834 = LINE('',#835,#836);
#835 = CARTESIAN_POINT('',(179.25,1.956245327088E-14,55.));
#836 = VECTOR('',#837,1.);
#837 = DIRECTION('',(0.,1.,-2.22044604925E-16));
#838 = ORIENTED_EDGE('',*,*,#839,.F.);
#839 = EDGE_CURVE('',#259,#832,#840,.T.);
#840 = LINE('',#841,#842);
#841 = CARTESIAN_POINT('',(179.25,2.089472090043E-14,61.));
#842 = VECTOR('',#843,1.);
#843 = DIRECTION('',(0.,-2.22044604925E-16,-1.));
#844 = ORIENTED_EDGE('',*,*,#258,.F.);
#845 = PLANE('',#846);
#846 = AXIS2_PLACEMENT_3D('',#847,#848,#849);
#847 = CARTESIAN_POINT('',(179.25,2.089472090043E-14,61.));
#848 = DIRECTION('',(-1.,0.,0.));
#849 = DIRECTION('',(0.,-2.22044604925E-16,-1.));
#850 = ADVANCED_FACE('',(#851),#869,.T.);
#851 = FACE_BOUND('',#852,.T.);
#852 = EDGE_LOOP('',(#853,#861,#867,#868));
#853 = ORIENTED_EDGE('',*,*,#854,.T.);
#854 = EDGE_CURVE('',#243,#855,#857,.T.);
#855 = VERTEX_POINT('',#856);
#856 = CARTESIAN_POINT('',(193.25,130.,61.));
#857 = LINE('',#858,#859);
#858 = CARTESIAN_POINT('',(193.25,2.089472090043E-14,61.));
#859 = VECTOR('',#860,1.);
#860 = DIRECTION('',(0.,1.,-2.22044604925E-16));
#861 = ORIENTED_EDGE('',*,*,#862,.T.);
#862 = EDGE_CURVE('',#855,#816,#863,.T.);
#863 = LINE('',#864,#865);
#864 = CARTESIAN_POINT('',(193.25,130.,61.));
#865 = VECTOR('',#866,1.);
#866 = DIRECTION('',(-1.,0.,0.));
#867 = ORIENTED_EDGE('',*,*,#815,.F.);
#868 = ORIENTED_EDGE('',*,*,#250,.F.);
#869 = PLANE('',#870);
#870 = AXIS2_PLACEMENT_3D('',#871,#872,#873);
#871 = CARTESIAN_POINT('',(193.25,2.089472090043E-14,61.));
#872 = DIRECTION('',(0.,2.22044604925E-16,1.));
#873 = DIRECTION('',(-1.,0.,0.));
#874 = ADVANCED_FACE('',(#875),#893,.T.);
#875 = FACE_BOUND('',#876,.T.);
#876 = EDGE_LOOP('',(#877,#885,#891,#892));
#877 = ORIENTED_EDGE('',*,*,#878,.T.);
#878 = EDGE_CURVE('',#235,#879,#881,.T.);
#879 = VERTEX_POINT('',#880);
#880 = CARTESIAN_POINT('',(193.25,130.,47.));
#881 = LINE('',#882,#883);
#882 = CARTESIAN_POINT('',(193.25,1.778609643148E-14,47.));
#883 = VECTOR('',#884,1.);
#884 = DIRECTION('',(0.,1.,-2.22044604925E-16));
#885 = ORIENTED_EDGE('',*,*,#886,.T.);
#886 = EDGE_CURVE('',#879,#855,#887,.T.);
#887 = LINE('',#888,#889);
#888 = CARTESIAN_POINT('',(193.25,130.,47.));
#889 = VECTOR('',#890,1.);
#890 = DIRECTION('',(0.,2.22044604925E-16,1.));
#891 = ORIENTED_EDGE('',*,*,#854,.F.);
#892 = ORIENTED_EDGE('',*,*,#242,.F.);
#893 = PLANE('',#894);
#894 = AXIS2_PLACEMENT_3D('',#895,#896,#897);
#895 = CARTESIAN_POINT('',(193.25,1.778609643148E-14,47.));
#896 = DIRECTION('',(1.,0.,0.));
#897 = DIRECTION('',(0.,2.22044604925E-16,1.));
#898 = ADVANCED_FACE('',(#899),#925,.T.);
#899 = FACE_BOUND('',#900,.T.);
#900 = EDGE_LOOP('',(#901,#911,#917,#918,#919));
#901 = ORIENTED_EDGE('',*,*,#902,.T.);
#902 = EDGE_CURVE('',#903,#905,#907,.T.);
#903 = VERTEX_POINT('',#904);
#904 = CARTESIAN_POINT('',(187.25,1.778609643148E-14,47.));
#905 = VERTEX_POINT('',#906);
#906 = CARTESIAN_POINT('',(187.25,130.,47.));
#907 = LINE('',#908,#909);
#908 = CARTESIAN_POINT('',(187.25,1.778609643148E-14,47.));
#909 = VECTOR('',#910,1.);
#910 = DIRECTION('',(0.,1.,-2.22044604925E-16));
#911 = ORIENTED_EDGE('',*,*,#912,.T.);
#912 = EDGE_CURVE('',#905,#879,#913,.T.);
#913 = LINE('',#914,#915);
#914 = CARTESIAN_POINT('',(187.25,130.,47.));
#915 = VECTOR('',#916,1.);
#916 = DIRECTION('',(1.,0.,0.));
#917 = ORIENTED_EDGE('',*,*,#878,.F.);
#918 = ORIENTED_EDGE('',*,*,#234,.F.);
#919 = ORIENTED_EDGE('',*,*,#920,.F.);
#920 = EDGE_CURVE('',#903,#227,#921,.T.);
#921 = LINE('',#922,#923);
#922 = CARTESIAN_POINT('',(187.25,1.778609643148E-14,47.));
#923 = VECTOR('',#924,1.);
#924 = DIRECTION('',(1.,0.,0.));
#925 = PLANE('',#926);
#926 = AXIS2_PLACEMENT_3D('',#927,#928,#929);
#927 = CARTESIAN_POINT('',(187.25,1.778609643148E-14,47.));
#928 = DIRECTION('',(0.,-2.22044604925E-16,-1.));
#929 = DIRECTION('',(1.,0.,0.));
#930 = ADVANCED_FACE('',(#931),#956,.T.);
#931 = FACE_BOUND('',#932,.T.);
#932 = EDGE_LOOP('',(#933,#941,#942,#943,#949,#950));
#933 = ORIENTED_EDGE('',*,*,#934,.T.);
#934 = EDGE_CURVE('',#935,#454,#937,.T.);
#935 = VERTEX_POINT('',#936);
#936 = CARTESIAN_POINT('',(190.,0.,5.));
#937 = LINE('',#938,#939);
#938 = CARTESIAN_POINT('',(190.,1.11E-15,5.));
#939 = VECTOR('',#940,1.);
#940 = DIRECTION('',(0.,-1.,2.2E-16));
#941 = ORIENTED_EDGE('',*,*,#461,.T.);
#942 = ORIENTED_EDGE('',*,*,#784,.F.);
#943 = ORIENTED_EDGE('',*,*,#944,.F.);
#944 = EDGE_CURVE('',#227,#785,#945,.T.);
#945 = LINE('',#946,#947);
#946 = CARTESIAN_POINT('',(190.,0.,5.));
#947 = VECTOR('',#948,1.);
#948 = DIRECTION('',(0.,0.,1.));
#949 = ORIENTED_EDGE('',*,*,#226,.F.);
#950 = ORIENTED_EDGE('',*,*,#951,.F.);
#951 = EDGE_CURVE('',#935,#219,#952,.T.);
#952 = LINE('',#953,#954);
#953 = CARTESIAN_POINT('',(190.,0.,5.));
#954 = VECTOR('',#955,1.);
#955 = DIRECTION('',(0.,0.,1.));
#956 = PLANE('',#957);
#957 = AXIS2_PLACEMENT_3D('',#958,#959,#960);
#958 = CARTESIAN_POINT('',(190.,1.11E-15,5.));
#959 = DIRECTION('',(-1.,0.,0.));
#960 = DIRECTION('',(0.,2.2E-16,1.));
#961 = ADVANCED_FACE('',(#962),#995,.F.);
#962 = FACE_BOUND('',#963,.F.);
#963 = EDGE_LOOP('',(#964,#974,#982,#988,#989));
#964 = ORIENTED_EDGE('',*,*,#965,.T.);
#965 = EDGE_CURVE('',#966,#968,#970,.T.);
#966 = VERTEX_POINT('',#967);
#967 = CARTESIAN_POINT('',(187.25,1.023657986403E-14,13.));
#968 = VERTEX_POINT('',#969);
#969 = CARTESIAN_POINT('',(187.25,130.,13.));
#970 = LINE('',#971,#972);
#971 = CARTESIAN_POINT('',(187.25,1.023657986403E-14,13.));
#972 = VECTOR('',#973,1.);
#973 = DIRECTION('',(0.,1.,-2.22044604925E-16));
#974 = ORIENTED_EDGE('',*,*,#975,.T.);
#975 = EDGE_CURVE('',#968,#976,#978,.T.);
#976 = VERTEX_POINT('',#977);
#977 = CARTESIAN_POINT('',(193.25,130.,13.));
#978 = LINE('',#979,#980);
#979 = CARTESIAN_POINT('',(187.25,130.,13.));
#980 = VECTOR('',#981,1.);
#981 = DIRECTION('',(1.,0.,0.));
#982 = ORIENTED_EDGE('',*,*,#983,.F.);
#983 = EDGE_CURVE('',#211,#976,#984,.T.);
#984 = LINE('',#985,#986);
#985 = CARTESIAN_POINT('',(193.25,1.023657986403E-14,13.));
#986 = VECTOR('',#987,1.);
#987 = DIRECTION('',(0.,1.,-2.22044604925E-16));
#988 = ORIENTED_EDGE('',*,*,#218,.F.);
#989 = ORIENTED_EDGE('',*,*,#990,.F.);
#990 = EDGE_CURVE('',#966,#219,#991,.T.);
#991 = LINE('',#992,#993);
#992 = CARTESIAN_POINT('',(187.25,1.023657986403E-14,13.));
#993 = VECTOR('',#994,1.);
#994 = DIRECTION('',(1.,0.,0.));
#995 = PLANE('',#996);
#996 = AXIS2_PLACEMENT_3D('',#997,#998,#999);
#997 = CARTESIAN_POINT('',(187.25,1.023657986403E-14,13.));
#998 = DIRECTION('',(0.,-2.22044604925E-16,-1.));
#999 = DIRECTION('',(1.,0.,0.));
#1000 = ADVANCED_FACE('',(#1001),#1019,.F.);
#1001 = FACE_BOUND('',#1002,.F.);
#1002 = EDGE_LOOP('',(#1003,#1004,#1012,#1018));
#1003 = ORIENTED_EDGE('',*,*,#983,.T.);
#1004 = ORIENTED_EDGE('',*,*,#1005,.T.);
#1005 = EDGE_CURVE('',#976,#1006,#1008,.T.);
#1006 = VERTEX_POINT('',#1007);
#1007 = CARTESIAN_POINT('',(193.25,130.,1.));
#1008 = LINE('',#1009,#1010);
#1009 = CARTESIAN_POINT('',(193.25,130.,13.));
#1010 = VECTOR('',#1011,1.);
#1011 = DIRECTION('',(0.,-2.22044604925E-16,-1.));
#1012 = ORIENTED_EDGE('',*,*,#1013,.F.);
#1013 = EDGE_CURVE('',#203,#1006,#1014,.T.);
#1014 = LINE('',#1015,#1016);
#1015 = CARTESIAN_POINT('',(193.25,7.572044604925E-15,1.));
#1016 = VECTOR('',#1017,1.);
#1017 = DIRECTION('',(0.,1.,-2.22044604925E-16));
#1018 = ORIENTED_EDGE('',*,*,#210,.F.);
#1019 = PLANE('',#1020);
#1020 = AXIS2_PLACEMENT_3D('',#1021,#1022,#1023);
#1021 = CARTESIAN_POINT('',(193.25,1.023657986403E-14,13.));
#1022 = DIRECTION('',(-1.,0.,0.));
#1023 = DIRECTION('',(0.,-2.22044604925E-16,-1.));
#1024 = ADVANCED_FACE('',(#1025),#1043,.F.);
#1025 = FACE_BOUND('',#1026,.F.);
#1026 = EDGE_LOOP('',(#1027,#1028,#1036,#1042));
#1027 = ORIENTED_EDGE('',*,*,#1013,.T.);
#1028 = ORIENTED_EDGE('',*,*,#1029,.T.);
#1029 = EDGE_CURVE('',#1006,#1030,#1032,.T.);
#1030 = VERTEX_POINT('',#1031);
#1031 = CARTESIAN_POINT('',(179.25,130.,1.));
#1032 = LINE('',#1033,#1034);
#1033 = CARTESIAN_POINT('',(193.25,130.,1.));
#1034 = VECTOR('',#1035,1.);
#1035 = DIRECTION('',(-1.,0.,0.));
#1036 = ORIENTED_EDGE('',*,*,#1037,.F.);
#1037 = EDGE_CURVE('',#195,#1030,#1038,.T.);
#1038 = LINE('',#1039,#1040);
#1039 = CARTESIAN_POINT('',(179.25,7.572044604925E-15,1.));
#1040 = VECTOR('',#1041,1.);
#1041 = DIRECTION('',(0.,1.,-2.22044604925E-16));
#1042 = ORIENTED_EDGE('',*,*,#202,.F.);
#1043 = PLANE('',#1044);
#1044 = AXIS2_PLACEMENT_3D('',#1045,#1046,#1047);
#1045 = CARTESIAN_POINT('',(193.25,7.572044604925E-15,1.));
#1046 = DIRECTION('',(0.,2.22044604925E-16,1.));
#1047 = DIRECTION('',(-1.,0.,0.));
#1048 = ADVANCED_FACE('',(#1049),#1067,.F.);
#1049 = FACE_BOUND('',#1050,.F.);
#1050 = EDGE_LOOP('',(#1051,#1052,#1060,#1066));
#1051 = ORIENTED_EDGE('',*,*,#1037,.T.);
#1052 = ORIENTED_EDGE('',*,*,#1053,.T.);
#1053 = EDGE_CURVE('',#1030,#1054,#1056,.T.);
#1054 = VERTEX_POINT('',#1055);
#1055 = CARTESIAN_POINT('',(179.25,130.,5.));
#1056 = LINE('',#1057,#1058);
#1057 = CARTESIAN_POINT('',(179.25,130.,1.));
#1058 = VECTOR('',#1059,1.);
#1059 = DIRECTION('',(0.,2.22044604925E-16,1.));
#1060 = ORIENTED_EDGE('',*,*,#1061,.F.);
#1061 = EDGE_CURVE('',#187,#1054,#1062,.T.);
#1062 = LINE('',#1063,#1064);
#1063 = CARTESIAN_POINT('',(179.25,8.460223024625E-15,5.));
#1064 = VECTOR('',#1065,1.);
#1065 = DIRECTION('',(0.,1.,-2.22044604925E-16));
#1066 = ORIENTED_EDGE('',*,*,#194,.F.);
#1067 = PLANE('',#1068);
#1068 = AXIS2_PLACEMENT_3D('',#1069,#1070,#1071);
#1069 = CARTESIAN_POINT('',(179.25,7.572044604925E-15,1.));
#1070 = DIRECTION('',(1.,0.,0.));
#1071 = DIRECTION('',(0.,2.22044604925E-16,1.));
#1072 = ADVANCED_FACE('',(#1073),#1098,.F.);
#1073 = FACE_BOUND('',#1074,.F.);
#1074 = EDGE_LOOP('',(#1075,#1083,#1091,#1097));
#1075 = ORIENTED_EDGE('',*,*,#1076,.T.);
#1076 = EDGE_CURVE('',#179,#1077,#1079,.T.);
#1077 = VERTEX_POINT('',#1078);
#1078 = CARTESIAN_POINT('',(17.25,130.,5.));
#1079 = LINE('',#1080,#1081);
#1080 = CARTESIAN_POINT('',(17.25,8.460223024625E-15,5.));
#1081 = VECTOR('',#1082,1.);
#1082 = DIRECTION('',(0.,1.,-2.22044604925E-16));
#1083 = ORIENTED_EDGE('',*,*,#1084,.T.);
#1084 = EDGE_CURVE('',#1077,#1085,#1087,.T.);
#1085 = VERTEX_POINT('',#1086);
#1086 = CARTESIAN_POINT('',(17.25,130.,1.));
#1087 = LINE('',#1088,#1089);
#1088 = CARTESIAN_POINT('',(17.25,130.,5.));
#1089 = VECTOR('',#1090,1.);
#1090 = DIRECTION('',(0.,-2.22044604925E-16,-1.));
#1091 = ORIENTED_EDGE('',*,*,#1092,.F.);
#1092 = EDGE_CURVE('',#171,#1085,#1093,.T.);
#1093 = LINE('',#1094,#1095);
#1094 = CARTESIAN_POINT('',(17.25,7.572044604925E-15,1.));
#1095 = VECTOR('',#1096,1.);
#1096 = DIRECTION('',(0.,1.,-2.22044604925E-16));
#1097 = ORIENTED_EDGE('',*,*,#178,.F.);
#1098 = PLANE('',#1099);
#1099 = AXIS2_PLACEMENT_3D('',#1100,#1101,#1102);
#1100 = CARTESIAN_POINT('',(17.25,8.460223024625E-15,5.));
#1101 = DIRECTION('',(-1.,0.,0.));
#1102 = DIRECTION('',(0.,-2.22044604925E-16,-1.));
#1103 = ADVANCED_FACE('',(#1104),#1122,.F.);
#1104 = FACE_BOUND('',#1105,.F.);
#1105 = EDGE_LOOP('',(#1106,#1107,#1115,#1121));
#1106 = ORIENTED_EDGE('',*,*,#1092,.T.);
#1107 = ORIENTED_EDGE('',*,*,#1108,.T.);
#1108 = EDGE_CURVE('',#1085,#1109,#1111,.T.);
#1109 = VERTEX_POINT('',#1110);
#1110 = CARTESIAN_POINT('',(3.25,130.,1.));
#1111 = LINE('',#1112,#1113);
#1112 = CARTESIAN_POINT('',(17.25,130.,1.));
#1113 = VECTOR('',#1114,1.);
#1114 = DIRECTION('',(-1.,0.,0.));
#1115 = ORIENTED_EDGE('',*,*,#1116,.F.);
#1116 = EDGE_CURVE('',#163,#1109,#1117,.T.);
#1117 = LINE('',#1118,#1119);
#1118 = CARTESIAN_POINT('',(3.25,7.572044604925E-15,1.));
#1119 = VECTOR('',#1120,1.);
#1120 = DIRECTION('',(0.,1.,-2.22044604925E-16));
#1121 = ORIENTED_EDGE('',*,*,#170,.F.);
#1122 = PLANE('',#1123);
#1123 = AXIS2_PLACEMENT_3D('',#1124,#1125,#1126);
#1124 = CARTESIAN_POINT('',(17.25,7.572044604925E-15,1.));
#1125 = DIRECTION('',(0.,2.22044604925E-16,1.));
#1126 = DIRECTION('',(-1.,0.,0.));
#1127 = ADVANCED_FACE('',(#1128),#1146,.F.);
#1128 = FACE_BOUND('',#1129,.F.);
#1129 = EDGE_LOOP('',(#1130,#1131,#1139,#1145));
#1130 = ORIENTED_EDGE('',*,*,#1116,.T.);
#1131 = ORIENTED_EDGE('',*,*,#1132,.T.);
#1132 = EDGE_CURVE('',#1109,#1133,#1135,.T.);
#1133 = VERTEX_POINT('',#1134);
#1134 = CARTESIAN_POINT('',(3.25,130.,13.));
#1135 = LINE('',#1136,#1137);
#1136 = CARTESIAN_POINT('',(3.25,130.,1.));
#1137 = VECTOR('',#1138,1.);
#1138 = DIRECTION('',(0.,2.22044604925E-16,1.));
#1139 = ORIENTED_EDGE('',*,*,#1140,.F.);
#1140 = EDGE_CURVE('',#155,#1133,#1141,.T.);
#1141 = LINE('',#1142,#1143);
#1142 = CARTESIAN_POINT('',(3.25,1.023657986403E-14,13.));
#1143 = VECTOR('',#1144,1.);
#1144 = DIRECTION('',(0.,1.,-2.22044604925E-16));
#1145 = ORIENTED_EDGE('',*,*,#162,.F.);
#1146 = PLANE('',#1147);
#1147 = AXIS2_PLACEMENT_3D('',#1148,#1149,#1150);
#1148 = CARTESIAN_POINT('',(3.25,7.572044604925E-15,1.));
#1149 = DIRECTION('',(1.,0.,0.));
#1150 = DIRECTION('',(0.,2.22044604925E-16,1.));
#1151 = ADVANCED_FACE('',(#1152),#1178,.F.);
#1152 = FACE_BOUND('',#1153,.F.);
#1153 = EDGE_LOOP('',(#1154,#1155,#1163,#1171,#1177));
#1154 = ORIENTED_EDGE('',*,*,#1140,.T.);
#1155 = ORIENTED_EDGE('',*,*,#1156,.T.);
#1156 = EDGE_CURVE('',#1133,#1157,#1159,.T.);
#1157 = VERTEX_POINT('',#1158);
#1158 = CARTESIAN_POINT('',(9.25,130.,13.));
#1159 = LINE('',#1160,#1161);
#1160 = CARTESIAN_POINT('',(3.25,130.,13.));
#1161 = VECTOR('',#1162,1.);
#1162 = DIRECTION('',(1.,0.,0.));
#1163 = ORIENTED_EDGE('',*,*,#1164,.F.);
#1164 = EDGE_CURVE('',#1165,#1157,#1167,.T.);
#1165 = VERTEX_POINT('',#1166);
#1166 = CARTESIAN_POINT('',(9.25,1.023657986403E-14,13.));
#1167 = LINE('',#1168,#1169);
#1168 = CARTESIAN_POINT('',(9.25,1.023657986403E-14,13.));
#1169 = VECTOR('',#1170,1.);
#1170 = DIRECTION('',(0.,1.,-2.22044604925E-16));
#1171 = ORIENTED_EDGE('',*,*,#1172,.F.);
#1172 = EDGE_CURVE('',#147,#1165,#1173,.T.);
#1173 = LINE('',#1174,#1175);
#1174 = CARTESIAN_POINT('',(3.25,1.023657986403E-14,13.));
#1175 = VECTOR('',#1176,1.);
#1176 = DIRECTION('',(1.,0.,0.));
#1177 = ORIENTED_EDGE('',*,*,#154,.F.);
#1178 = PLANE('',#1179);
#1179 = AXIS2_PLACEMENT_3D('',#1180,#1181,#1182);
#1180 = CARTESIAN_POINT('',(3.25,1.023657986403E-14,13.));
#1181 = DIRECTION('',(0.,-2.22044604925E-16,-1.));
#1182 = DIRECTION('',(1.,0.,0.));
#1183 = ADVANCED_FACE('',(#1184),#1195,.F.);
#1184 = FACE_BOUND('',#1185,.T.);
#1185 = EDGE_LOOP('',(#1186,#1192,#1193,#1194));
#1186 = ORIENTED_EDGE('',*,*,#1187,.F.);
#1187 = EDGE_CURVE('',#486,#307,#1188,.T.);
#1188 = LINE('',#1189,#1190);
#1189 = CARTESIAN_POINT('',(191.5,-4.,19.25));
#1190 = VECTOR('',#1191,1.);
#1191 = DIRECTION('',(6.E-17,1.,-2.2E-16));
#1192 = ORIENTED_EDGE('',*,*,#485,.T.);
#1193 = ORIENTED_EDGE('',*,*,#1187,.T.);
#1194 = ORIENTED_EDGE('',*,*,#306,.T.);
#1195 = CYLINDRICAL_SURFACE('',#1196,1.75);
#1196 = AXIS2_PLACEMENT_3D('',#1197,#1198,#1199);
#1197 = CARTESIAN_POINT('',(193.25,-4.,19.25));
#1198 = DIRECTION('',(0.,1.,-2.2E-16));
#1199 = DIRECTION('',(-1.,0.,0.));
#1200 = ADVANCED_FACE('',(#1201),#1212,.F.);
#1201 = FACE_BOUND('',#1202,.T.);
#1202 = EDGE_LOOP('',(#1203,#1209,#1210,#1211));
#1203 = ORIENTED_EDGE('',*,*,#1204,.F.);
#1204 = EDGE_CURVE('',#497,#318,#1205,.T.);
#1205 = LINE('',#1206,#1207);
#1206 = CARTESIAN_POINT('',(191.5,-4.,66.25));
#1207 = VECTOR('',#1208,1.);
#1208 = DIRECTION('',(6.E-17,1.,-2.2E-16));
#1209 = ORIENTED_EDGE('',*,*,#496,.T.);
#1210 = ORIENTED_EDGE('',*,*,#1204,.T.);
#1211 = ORIENTED_EDGE('',*,*,#317,.T.);
#1212 = CYLINDRICAL_SURFACE('',#1213,1.75);
#1213 = AXIS2_PLACEMENT_3D('',#1214,#1215,#1216);
#1214 = CARTESIAN_POINT('',(193.25,-4.,66.25));
#1215 = DIRECTION('',(0.,1.,-2.2E-16));
#1216 = DIRECTION('',(-1.,0.,0.));
#1217 = ADVANCED_FACE('',(#1218),#1238,.F.);
#1218 = FACE_BOUND('',#1219,.F.);
#1219 = EDGE_LOOP('',(#1220,#1228,#1234,#1235,#1236,#1237));
#1220 = ORIENTED_EDGE('',*,*,#1221,.F.);
#1221 = EDGE_CURVE('',#1222,#753,#1224,.T.);
#1222 = VERTEX_POINT('',#1223);
#1223 = CARTESIAN_POINT('',(9.25,1.956245327088E-14,55.));
#1224 = LINE('',#1225,#1226);
#1225 = CARTESIAN_POINT('',(9.25,1.956245327088E-14,55.));
#1226 = VECTOR('',#1227,1.);
#1227 = DIRECTION('',(1.,1.972152263053E-31,8.881784197001E-16));
#1228 = ORIENTED_EDGE('',*,*,#1229,.F.);
#1229 = EDGE_CURVE('',#682,#1222,#1230,.T.);
#1230 = LINE('',#1231,#1232);
#1231 = CARTESIAN_POINT('',(9.25,1.778609643148E-14,47.));
#1232 = VECTOR('',#1233,1.);
#1233 = DIRECTION('',(0.,2.22044604925E-16,1.));
#1234 = ORIENTED_EDGE('',*,*,#689,.F.);
#1235 = ORIENTED_EDGE('',*,*,#651,.F.);
#1236 = ORIENTED_EDGE('',*,*,#794,.F.);
#1237 = ORIENTED_EDGE('',*,*,#770,.F.);
#1238 = PLANE('',#1239);
#1239 = AXIS2_PLACEMENT_3D('',#1240,#1241,#1242);
#1240 = CARTESIAN_POINT('',(98.25,1.431562149524E-14,31.37037037037));
#1241 = DIRECTION('',(0.,1.,0.));
#1242 = DIRECTION('',(0.,0.,1.));
#1243 = ADVANCED_FACE('',(#1244),#1262,.F.);
#1244 = FACE_BOUND('',#1245,.F.);
#1245 = EDGE_LOOP('',(#1246,#1254,#1260,#1261));
#1246 = ORIENTED_EDGE('',*,*,#1247,.T.);
#1247 = EDGE_CURVE('',#1165,#1248,#1250,.T.);
#1248 = VERTEX_POINT('',#1249);
#1249 = CARTESIAN_POINT('',(9.25,8.460223024625E-15,5.));
#1250 = LINE('',#1251,#1252);
#1251 = CARTESIAN_POINT('',(9.25,1.023657986403E-14,13.));
#1252 = VECTOR('',#1253,1.);
#1253 = DIRECTION('',(0.,-2.22044604925E-16,-1.));
#1254 = ORIENTED_EDGE('',*,*,#1255,.F.);
#1255 = EDGE_CURVE('',#637,#1248,#1256,.T.);
#1256 = LINE('',#1257,#1258);
#1257 = CARTESIAN_POINT('',(6.5,0.,5.));
#1258 = VECTOR('',#1259,1.);
#1259 = DIRECTION('',(1.,0.,0.));
#1260 = ORIENTED_EDGE('',*,*,#644,.F.);
#1261 = ORIENTED_EDGE('',*,*,#1172,.T.);
#1262 = PLANE('',#1263);
#1263 = AXIS2_PLACEMENT_3D('',#1264,#1265,#1266);
#1264 = CARTESIAN_POINT('',(98.25,1.431562149524E-14,31.37037037037));
#1265 = DIRECTION('',(0.,1.,0.));
#1266 = DIRECTION('',(0.,0.,1.));
#1267 = ADVANCED_FACE('',(#1268),#1286,.T.);
#1268 = FACE_BOUND('',#1269,.T.);
#1269 = EDGE_LOOP('',(#1270,#1271,#1279,#1285));
#1270 = ORIENTED_EDGE('',*,*,#681,.T.);
#1271 = ORIENTED_EDGE('',*,*,#1272,.T.);
#1272 = EDGE_CURVE('',#674,#1273,#1275,.T.);
#1273 = VERTEX_POINT('',#1274);
#1274 = CARTESIAN_POINT('',(9.25,130.,55.));
#1275 = LINE('',#1276,#1277);
#1276 = CARTESIAN_POINT('',(9.25,130.,47.));
#1277 = VECTOR('',#1278,1.);
#1278 = DIRECTION('',(0.,2.22044604925E-16,1.));
#1279 = ORIENTED_EDGE('',*,*,#1280,.F.);
#1280 = EDGE_CURVE('',#1222,#1273,#1281,.T.);
#1281 = LINE('',#1282,#1283);
#1282 = CARTESIAN_POINT('',(9.25,1.956245327088E-14,55.));
#1283 = VECTOR('',#1284,1.);
#1284 = DIRECTION('',(0.,1.,-2.22044604925E-16));
#1285 = ORIENTED_EDGE('',*,*,#1229,.F.);
#1286 = PLANE('',#1287);
#1287 = AXIS2_PLACEMENT_3D('',#1288,#1289,#1290);
#1288 = CARTESIAN_POINT('',(9.25,1.778609643148E-14,47.));
#1289 = DIRECTION('',(1.,0.,0.));
#1290 = DIRECTION('',(0.,2.22044604925E-16,1.));
#1291 = ADVANCED_FACE('',(#1292),#1305,.T.);
#1292 = FACE_BOUND('',#1293,.F.);
#1293 = EDGE_LOOP('',(#1294,#1300,#1301,#1302,#1303,#1304));
#1294 = ORIENTED_EDGE('',*,*,#1295,.T.);
#1295 = EDGE_CURVE('',#1273,#755,#1296,.T.);
#1296 = LINE('',#1297,#1298);
#1297 = CARTESIAN_POINT('',(9.25,130.,55.));
#1298 = VECTOR('',#1299,1.);
#1299 = DIRECTION('',(1.,1.972152263053E-31,8.881784197001E-16));
#1300 = ORIENTED_EDGE('',*,*,#762,.T.);
#1301 = ORIENTED_EDGE('',*,*,#736,.T.);
#1302 = ORIENTED_EDGE('',*,*,#712,.T.);
#1303 = ORIENTED_EDGE('',*,*,#673,.T.);
#1304 = ORIENTED_EDGE('',*,*,#1272,.T.);
#1305 = PLANE('',#1306);
#1306 = AXIS2_PLACEMENT_3D('',#1307,#1308,#1309);
#1307 = CARTESIAN_POINT('',(98.25,130.,31.37037037037));
#1308 = DIRECTION('',(0.,1.,0.));
#1309 = DIRECTION('',(0.,0.,1.));
#1310 = ADVANCED_FACE('',(#1311),#1317,.T.);
#1311 = FACE_BOUND('',#1312,.T.);
#1312 = EDGE_LOOP('',(#1313,#1314,#1315,#1316));
#1313 = ORIENTED_EDGE('',*,*,#1280,.T.);
#1314 = ORIENTED_EDGE('',*,*,#1295,.T.);
#1315 = ORIENTED_EDGE('',*,*,#752,.F.);
#1316 = ORIENTED_EDGE('',*,*,#1221,.F.);
#1317 = PLANE('',#1318);
#1318 = AXIS2_PLACEMENT_3D('',#1319,#1320,#1321);
#1319 = CARTESIAN_POINT('',(9.25,1.956245327088E-14,55.));
#1320 = DIRECTION('',(8.881784197001E-16,-2.22044604925E-16,-1.));
#1321 = DIRECTION('',(1.,1.972152263053E-31,8.881784197001E-16));
#1322 = ADVANCED_FACE('',(#1323),#1343,.F.);
#1323 = FACE_BOUND('',#1324,.F.);
#1324 = EDGE_LOOP('',(#1325,#1333,#1339,#1340,#1341,#1342));
#1325 = ORIENTED_EDGE('',*,*,#1326,.F.);
#1326 = EDGE_CURVE('',#1327,#903,#1329,.T.);
#1327 = VERTEX_POINT('',#1328);
#1328 = CARTESIAN_POINT('',(187.25,1.956245327088E-14,55.));
#1329 = LINE('',#1330,#1331);
#1330 = CARTESIAN_POINT('',(187.25,1.956245327088E-14,55.));
#1331 = VECTOR('',#1332,1.);
#1332 = DIRECTION('',(0.,-2.22044604925E-16,-1.));
#1333 = ORIENTED_EDGE('',*,*,#1334,.F.);
#1334 = EDGE_CURVE('',#832,#1327,#1335,.T.);
#1335 = LINE('',#1336,#1337);
#1336 = CARTESIAN_POINT('',(179.25,1.956245327088E-14,55.));
#1337 = VECTOR('',#1338,1.);
#1338 = DIRECTION('',(1.,-1.972152263053E-31,-8.881784197001E-16));
#1339 = ORIENTED_EDGE('',*,*,#839,.F.);
#1340 = ORIENTED_EDGE('',*,*,#801,.F.);
#1341 = ORIENTED_EDGE('',*,*,#944,.F.);
#1342 = ORIENTED_EDGE('',*,*,#920,.F.);
#1343 = PLANE('',#1344);
#1344 = AXIS2_PLACEMENT_3D('',#1345,#1346,#1347);
#1345 = CARTESIAN_POINT('',(98.25,1.431562149524E-14,31.37037037037));
#1346 = DIRECTION('',(0.,1.,0.));
#1347 = DIRECTION('',(0.,0.,1.));
#1348 = ADVANCED_FACE('',(#1349),#1367,.T.);
#1349 = FACE_BOUND('',#1350,.T.);
#1350 = EDGE_LOOP('',(#1351,#1352,#1360,#1366));
#1351 = ORIENTED_EDGE('',*,*,#831,.T.);
#1352 = ORIENTED_EDGE('',*,*,#1353,.T.);
#1353 = EDGE_CURVE('',#824,#1354,#1356,.T.);
#1354 = VERTEX_POINT('',#1355);
#1355 = CARTESIAN_POINT('',(187.25,130.,55.));
#1356 = LINE('',#1357,#1358);
#1357 = CARTESIAN_POINT('',(179.25,130.,55.));
#1358 = VECTOR('',#1359,1.);
#1359 = DIRECTION('',(1.,-1.972152263053E-31,-8.881784197001E-16));
#1360 = ORIENTED_EDGE('',*,*,#1361,.F.);
#1361 = EDGE_CURVE('',#1327,#1354,#1362,.T.);
#1362 = LINE('',#1363,#1364);
#1363 = CARTESIAN_POINT('',(187.25,1.956245327088E-14,55.));
#1364 = VECTOR('',#1365,1.);
#1365 = DIRECTION('',(0.,1.,-2.22044604925E-16));
#1366 = ORIENTED_EDGE('',*,*,#1334,.F.);
#1367 = PLANE('',#1368);
#1368 = AXIS2_PLACEMENT_3D('',#1369,#1370,#1371);
#1369 = CARTESIAN_POINT('',(179.25,1.956245327088E-14,55.));
#1370 = DIRECTION('',(-8.881784197001E-16,-2.22044604925E-16,-1.));
#1371 = DIRECTION('',(1.,-1.972152263053E-31,-8.881784197001E-16));
#1372 = ADVANCED_FACE('',(#1373),#1386,.T.);
#1373 = FACE_BOUND('',#1374,.F.);
#1374 = EDGE_LOOP('',(#1375,#1381,#1382,#1383,#1384,#1385));
#1375 = ORIENTED_EDGE('',*,*,#1376,.T.);
#1376 = EDGE_CURVE('',#1354,#905,#1377,.T.);
#1377 = LINE('',#1378,#1379);
#1378 = CARTESIAN_POINT('',(187.25,130.,55.));
#1379 = VECTOR('',#1380,1.);
#1380 = DIRECTION('',(0.,-2.22044604925E-16,-1.));
#1381 = ORIENTED_EDGE('',*,*,#912,.T.);
#1382 = ORIENTED_EDGE('',*,*,#886,.T.);
#1383 = ORIENTED_EDGE('',*,*,#862,.T.);
#1384 = ORIENTED_EDGE('',*,*,#823,.T.);
#1385 = ORIENTED_EDGE('',*,*,#1353,.T.);
#1386 = PLANE('',#1387);
#1387 = AXIS2_PLACEMENT_3D('',#1388,#1389,#1390);
#1388 = CARTESIAN_POINT('',(98.25,130.,31.37037037037));
#1389 = DIRECTION('',(0.,1.,0.));
#1390 = DIRECTION('',(0.,0.,1.));
#1391 = ADVANCED_FACE('',(#1392),#1398,.T.);
#1392 = FACE_BOUND('',#1393,.T.);
#1393 = EDGE_LOOP('',(#1394,#1395,#1396,#1397));
#1394 = ORIENTED_EDGE('',*,*,#1361,.T.);
#1395 = ORIENTED_EDGE('',*,*,#1376,.T.);
#1396 = ORIENTED_EDGE('',*,*,#902,.F.);
#1397 = ORIENTED_EDGE('',*,*,#1326,.F.);
#1398 = PLANE('',#1399);
#1399 = AXIS2_PLACEMENT_3D('',#1400,#1401,#1402);
#1400 = CARTESIAN_POINT('',(187.25,1.956245327088E-14,55.));
#1401 = DIRECTION('',(-1.,0.,0.));
#1402 = DIRECTION('',(0.,-2.22044604925E-16,-1.));
#1403 = ADVANCED_FACE('',(#1404),#1422,.F.);
#1404 = FACE_BOUND('',#1405,.F.);
#1405 = EDGE_LOOP('',(#1406,#1414,#1415,#1416));
#1406 = ORIENTED_EDGE('',*,*,#1407,.F.);
#1407 = EDGE_CURVE('',#966,#1408,#1410,.T.);
#1408 = VERTEX_POINT('',#1409);
#1409 = CARTESIAN_POINT('',(187.25,8.460223024625E-15,5.));
#1410 = LINE('',#1411,#1412);
#1411 = CARTESIAN_POINT('',(187.25,1.023657986403E-14,13.));
#1412 = VECTOR('',#1413,1.);
#1413 = DIRECTION('',(0.,-2.22044604925E-16,-1.));
#1414 = ORIENTED_EDGE('',*,*,#990,.T.);
#1415 = ORIENTED_EDGE('',*,*,#951,.F.);
#1416 = ORIENTED_EDGE('',*,*,#1417,.F.);
#1417 = EDGE_CURVE('',#1408,#935,#1418,.T.);
#1418 = LINE('',#1419,#1420);
#1419 = CARTESIAN_POINT('',(6.5,0.,5.));
#1420 = VECTOR('',#1421,1.);
#1421 = DIRECTION('',(1.,0.,0.));
#1422 = PLANE('',#1423);
#1423 = AXIS2_PLACEMENT_3D('',#1424,#1425,#1426);
#1424 = CARTESIAN_POINT('',(98.25,1.431562149524E-14,31.37037037037));
#1425 = DIRECTION('',(0.,1.,0.));
#1426 = DIRECTION('',(0.,0.,1.));
#1427 = ADVANCED_FACE('',(#1428),#1446,.T.);
#1428 = FACE_BOUND('',#1429,.T.);
#1429 = EDGE_LOOP('',(#1430,#1431,#1439,#1445));
#1430 = ORIENTED_EDGE('',*,*,#965,.T.);
#1431 = ORIENTED_EDGE('',*,*,#1432,.T.);
#1432 = EDGE_CURVE('',#968,#1433,#1435,.T.);
#1433 = VERTEX_POINT('',#1434);
#1434 = CARTESIAN_POINT('',(187.25,130.,5.));
#1435 = LINE('',#1436,#1437);
#1436 = CARTESIAN_POINT('',(187.25,130.,13.));
#1437 = VECTOR('',#1438,1.);
#1438 = DIRECTION('',(0.,-2.22044604925E-16,-1.));
#1439 = ORIENTED_EDGE('',*,*,#1440,.F.);
#1440 = EDGE_CURVE('',#1408,#1433,#1441,.T.);
#1441 = LINE('',#1442,#1443);
#1442 = CARTESIAN_POINT('',(187.25,8.460223024625E-15,5.));
#1443 = VECTOR('',#1444,1.);
#1444 = DIRECTION('',(0.,1.,-2.22044604925E-16));
#1445 = ORIENTED_EDGE('',*,*,#1407,.F.);
#1446 = PLANE('',#1447);
#1447 = AXIS2_PLACEMENT_3D('',#1448,#1449,#1450);
#1448 = CARTESIAN_POINT('',(187.25,1.023657986403E-14,13.));
#1449 = DIRECTION('',(-1.,0.,0.));
#1450 = DIRECTION('',(0.,-2.22044604925E-16,-1.));
#1451 = ADVANCED_FACE('',(#1452),#1465,.T.);
#1452 = FACE_BOUND('',#1453,.T.);
#1453 = EDGE_LOOP('',(#1454,#1455,#1456,#1457,#1458,#1464));
#1454 = ORIENTED_EDGE('',*,*,#975,.T.);
#1455 = ORIENTED_EDGE('',*,*,#1005,.T.);
#1456 = ORIENTED_EDGE('',*,*,#1029,.T.);
#1457 = ORIENTED_EDGE('',*,*,#1053,.T.);
#1458 = ORIENTED_EDGE('',*,*,#1459,.T.);
#1459 = EDGE_CURVE('',#1054,#1433,#1460,.T.);
#1460 = LINE('',#1461,#1462);
#1461 = CARTESIAN_POINT('',(179.25,130.,5.));
#1462 = VECTOR('',#1463,1.);
#1463 = DIRECTION('',(1.,-2.465190328816E-32,-1.110223024625E-16));
#1464 = ORIENTED_EDGE('',*,*,#1432,.F.);
#1465 = PLANE('',#1466);
#1466 = AXIS2_PLACEMENT_3D('',#1467,#1468,#1469);
#1467 = CARTESIAN_POINT('',(98.25,130.,31.37037037037));
#1468 = DIRECTION('',(0.,1.,0.));
#1469 = DIRECTION('',(0.,0.,1.));
#1470 = ADVANCED_FACE('',(#1471),#1491,.T.);
#1471 = FACE_BOUND('',#1472,.T.);
#1472 = EDGE_LOOP('',(#1473,#1481,#1482,#1483,#1484,#1485));
#1473 = ORIENTED_EDGE('',*,*,#1474,.T.);
#1474 = EDGE_CURVE('',#1475,#1077,#1477,.T.);
#1475 = VERTEX_POINT('',#1476);
#1476 = CARTESIAN_POINT('',(9.25,130.,5.));
#1477 = LINE('',#1478,#1479);
#1478 = CARTESIAN_POINT('',(9.25,130.,5.));
#1479 = VECTOR('',#1480,1.);
#1480 = DIRECTION('',(1.,0.,0.));
#1481 = ORIENTED_EDGE('',*,*,#1084,.T.);
#1482 = ORIENTED_EDGE('',*,*,#1108,.T.);
#1483 = ORIENTED_EDGE('',*,*,#1132,.T.);
#1484 = ORIENTED_EDGE('',*,*,#1156,.T.);
#1485 = ORIENTED_EDGE('',*,*,#1486,.T.);
#1486 = EDGE_CURVE('',#1157,#1475,#1487,.T.);
#1487 = LINE('',#1488,#1489);
#1488 = CARTESIAN_POINT('',(9.25,130.,13.));
#1489 = VECTOR('',#1490,1.);
#1490 = DIRECTION('',(0.,-2.22044604925E-16,-1.));
#1491 = PLANE('',#1492);
#1492 = AXIS2_PLACEMENT_3D('',#1493,#1494,#1495);
#1493 = CARTESIAN_POINT('',(98.25,130.,31.37037037037));
#1494 = DIRECTION('',(0.,1.,0.));
#1495 = DIRECTION('',(0.,0.,1.));
#1496 = ADVANCED_FACE('',(#1497),#1508,.F.);
#1497 = FACE_BOUND('',#1498,.F.);
#1498 = EDGE_LOOP('',(#1499,#1500,#1501,#1507));
#1499 = ORIENTED_EDGE('',*,*,#1164,.T.);
#1500 = ORIENTED_EDGE('',*,*,#1486,.T.);
#1501 = ORIENTED_EDGE('',*,*,#1502,.F.);
#1502 = EDGE_CURVE('',#1248,#1475,#1503,.T.);
#1503 = LINE('',#1504,#1505);
#1504 = CARTESIAN_POINT('',(9.25,8.460223024625E-15,5.));
#1505 = VECTOR('',#1506,1.);
#1506 = DIRECTION('',(0.,1.,-2.22044604925E-16));
#1507 = ORIENTED_EDGE('',*,*,#1247,.F.);
#1508 = PLANE('',#1509);
#1509 = AXIS2_PLACEMENT_3D('',#1510,#1511,#1512);
#1510 = CARTESIAN_POINT('',(9.25,1.023657986403E-14,13.));
#1511 = DIRECTION('',(-1.,0.,0.));
#1512 = DIRECTION('',(0.,-2.22044604925E-16,-1.));
#1513 = ADVANCED_FACE('',(#1514),#1528,.T.);
#1514 = FACE_BOUND('',#1515,.T.);
#1515 = EDGE_LOOP('',(#1516,#1517,#1518,#1519,#1520,#1521,#1522,#1523,
    #1524,#1525,#1526,#1527));
#1516 = ORIENTED_EDGE('',*,*,#636,.T.);
#1517 = ORIENTED_EDGE('',*,*,#451,.T.);
#1518 = ORIENTED_EDGE('',*,*,#934,.F.);
#1519 = ORIENTED_EDGE('',*,*,#1417,.F.);
#1520 = ORIENTED_EDGE('',*,*,#1440,.T.);
#1521 = ORIENTED_EDGE('',*,*,#1459,.F.);
#1522 = ORIENTED_EDGE('',*,*,#1061,.F.);
#1523 = ORIENTED_EDGE('',*,*,#186,.F.);
#1524 = ORIENTED_EDGE('',*,*,#1076,.T.);
#1525 = ORIENTED_EDGE('',*,*,#1474,.F.);
#1526 = ORIENTED_EDGE('',*,*,#1502,.F.);
#1527 = ORIENTED_EDGE('',*,*,#1255,.F.);
#1528 = PLANE('',#1529);
#1529 = AXIS2_PLACEMENT_3D('',#1530,#1531,#1532);
#1530 = CARTESIAN_POINT('',(98.25,39.251396648045,5.));
#1531 = DIRECTION('',(0.,0.,1.));
#1532 = DIRECTION('',(1.,0.,0.));
#1533 = ( GEOMETRIC_REPRESENTATION_CONTEXT(3) 
GLOBAL_UNCERTAINTY_ASSIGNED_CONTEXT((#1537)) 
GLOBAL_UNIT_ASSIGNED_CONTEXT((#1534,#1535,#1536)) REPRESENTATION_CONTEXT
('Context #1','3D Context with UNIT and UNCERTAINTY') );
#1534 = ( LENGTH_UNIT() NAMED_UNIT(*) SI_UNIT(.MILLI.,.METRE.) );
#1535 = ( NAMED_UNIT(*) PLANE_ANGLE_UNIT() SI_UNIT($,.RADIAN.) );
#1536 = ( NAMED_UNIT(*) SI_UNIT($,.STERADIAN.) SOLID_ANGLE_UNIT() );
#1537 = UNCERTAINTY_MEASURE_WITH_UNIT(LENGTH_MEASURE(1.E-07),#1534,
  'distance_accuracy_value','confusion accuracy');
#1538 = PRODUCT_RELATED_PRODUCT_CATEGORY('part',$,(#7));
#1539 = MECHANICAL_DESIGN_GEOMETRIC_PRESENTATION_REPRESENTATION('',(
    #1540),#1533);
#1540 = STYLED_ITEM('color',(#1541),#15);
#1541 = PRESENTATION_STYLE_ASSIGNMENT((#1542,#1548));
#1542 = SURFACE_STYLE_USAGE(.BOTH.,#1543);
#1543 = SURFACE_SIDE_STYLE('',(#1544));
#1544 = SURFACE_STYLE_FILL_AREA(#1545);
#1545 = FILL_AREA_STYLE('',(#1546));
#1546 = FILL_AREA_STYLE_COLOUR('',#1547);
#1547 = COLOUR_RGB('',0.678431390124,0.709803936702,0.741176476869);
#1548 = CURVE_STYLE('',#1549,POSITIVE_LENGTH_MEASURE(0.1),#1550);
#1549 = DRAUGHTING_PRE_DEFINED_CURVE_FONT('continuous');
#1550 = COLOUR_RGB('',9.803921802644E-02,9.803921802644E-02,
  9.803921802644E-02);
ENDSEC;
END-ISO-10303-21;
